<?xml version="1.0" standalone="no"?>
<!DOCTYPE svg PUBLIC "-//W3C//DTD SVG 1.1//EN" "http://www.w3.org/Graphics/SVG/1.1/DTD/svg11.dtd" >
<svg xmlns="http://www.w3.org/2000/svg">
<metadata>Generated by IcoMoon</metadata>
<defs>
<font id="bt-panorama" horiz-adv-x="1024">
<font-face units-per-em="1024" ascent="960" descent="-64" />
<missing-glyph horiz-adv-x="1024" />
<glyph unicode="&#x20;" horiz-adv-x="512" d="" />
<glyph unicode="&#xe000;" glyph-name="icon-nodata" d="M810 200h-116v182c0 10 8 16 16 16 10 0 16-6 16-16v-148h84c8 0 16-8 16-18 0-8-8-16-16-16zM710-64c-154 0-280 126-280 280 0 156 126 282 280 282 156 0 280-126 280-282 0-154-124-280-280-280zM710 464c-136 0-248-110-248-248 0-136 112-246 248-246s248 110 248 246c0 138-112 248-248 248zM446 596c-232 0-412 80-412 182s180 182 412 182c232 0 412-80 412-182s-180-182-412-182zM446 926c-228 0-380-76-380-148s152-148 380-148c228 0 380 76 380 148s-152 148-380 148zM842 596c-8 0-16 8-16 18v164c0 10 8 16 16 16 10 0 16-6 16-16v-164c0-10-6-18-16-18zM364 436c0 0 0 0-2 0-194 16-328 90-328 178 0 8 6 16 16 16 8 0 16-8 16-16 0-68 128-132 300-146 8 0 16-8 14-18 0-8-8-14-16-14zM316 276c0 0-2 0-2 0-170 24-280 92-280 172 0 10 6 16 16 16 8 0 16-6 16-16 0-60 104-118 252-140 10 0 16-10 14-18 0-8-8-14-16-14zM332 108c0 0 0 0-2 0-178 22-296 92-296 174v496c0 10 6 16 16 16 8 0 16-6 16-16v-496c0-62 112-122 268-142 10 0 16-8 14-18 0-8-8-14-16-14z" />
<glyph unicode="&#xe001;" glyph-name="bt-panorama-1" d="M768 448h-64l-192-256-192 256h-64c-70 0-128-58-128-128v-384h768v384c0 70-58 128-128 128zM736 736c0-124-100-224-224-224s-224 100-224 224c0 124 100 224 224 224s224-100 224-224z" />
<glyph unicode="&#xe010;" glyph-name="bt-panorama-16" d="M448 374c-36 0-64 28-64 64 0 34 28 64 64 64h508c-10 56-36 112-78 156-2 0-2 2-4 2l-68 68c0 2-2 2-2 4l-228 228-512-512 512-512 228 228c0 0 2 2 2 4l68 68c2 0 2 2 4 2 38 40 62 86 74 136z" />
<glyph unicode="&#xe019;" glyph-name="bt-panorama-25" d="M512 512c-36 0-64-28-64-64s28-64 64-64c36 0 64 28 64 64s-28 64-64 64zM512 962v-128c212 0 384-172 384-384s-172-384-384-384v-128c282 0 512 230 512 512s-230 512-512 512zM800 450c0 158-130 288-288 288v-128c88 0 160-72 160-160s-72-160-160-160v-128c158 0 288 128 288 288zM0 640v-384h192l256-192v768l-256-192z" />
<glyph unicode="&#xe01a;" glyph-name="bt-panorama-26" d="M0 640v-384h192l256-192v768l-256-192z" />
<glyph unicode="&#xe025;" glyph-name="bt-panorama-37" d="M256 960h512l-256-256z" />
<glyph unicode="&#xe026;" glyph-name="bt-panorama-38" d="M512 960c-70 0-128-58-128-128s58-128 128-128c70 0 128 58 128 128s-58 128-128 128zM896 576c-70 0-128-58-128-128s58-128 128-128c70 0 128 58 128 128s-58 128-128 128zM128 576c-70 0-128-58-128-128s58-128 128-128c70 0 128 58 128 128s-58 128-128 128zM512 192c-70 0-128-58-128-128s58-128 128-128c70 0 128 58 128 128s-58 128-128 128zM874 810c-50 50-132 50-180 0-50-50-50-132 0-180 48-50 130-50 180 0 50 48 50 130 0 180zM874 268c-50 48-132 48-180 0-50-50-50-132 0-182 48-50 130-50 180 0s50 132 0 182zM332 810c-50 50-132 50-182 0s-50-132 0-180c50-50 132-50 182 0 48 48 48 130 0 180zM332 268c-50 48-132 48-182 0-50-50-50-132 0-182s132-50 182 0c48 50 48 132 0 182z" />
<glyph unicode="&#xe027;" glyph-name="bt-panorama-39" d="M832 960h-704c-42 0-128-86-128-192v-640c0-106 86-192 192-192h640c106 0 192 86 192 192v640c0 106-86 192-192 192zM832 416c0-18-14-32-32-32h-576c-18 0-32 14-32 32v64c0 18 14 32 32 32h576c18 0 32-14 32-32z" />
<glyph unicode="&#xe02f;" glyph-name="bt-panorama-47" d="M512 704c-142 0-256-114-256-256s114-256 256-256c142 0 256 114 256 256s-114 256-256 256z" />
<glyph unicode="&#xe030;" glyph-name="bt-panorama-48" d="M832 960h-704c-42 0-128-86-128-192v-640c0-106 86-192 192-192h640c106 0 192 86 192 192v640c0 106-86 192-192 192z" />
<glyph unicode="&#xe031;" glyph-name="bt-panorama-49" d="M192 576l320-320 320 320z" />
<glyph unicode="&#xe032;" glyph-name="bt-panorama-50" d="M256 320h512l-256-256zM768 576h-512l256 256z" />
<glyph unicode="&#xe033;" glyph-name="bt-panorama-51" d="M928 896h-96v-192c0-36-28-64-64-64s-64 28-64 64v192h-448v-192c0-36-28-64-64-64s-64 28-64 64v192h-96c-18 0-32-14-32-32v-896c0-18 14-32 32-32h896c18 0 32 14 32 32v896c0 18-14 32-32 32zM320 64h-192v192h192zM320 320h-192v192h192zM576 64h-192v192h192zM576 320h-192v192h192zM832 64h-192v192h192zM832 320h-192v192h192z" />
<glyph unicode="&#xe034;" glyph-name="bt-panorama-52" d="M832 896c70 0 128-58 128-128v-640c0-70-58-128-128-128h-640c-70 0-128 58-128 128v640c0 70 58 128 128 128h640zM768 960h-640c-42 0-128-86-128-192v-640c0-106 86-192 192-192h640c106 0 192 86 192 192v640c0 106-86 192-192 192z" />
<glyph unicode="&#xe035;" glyph-name="bt-panorama-53" d="M832 960h-640c-106 0-192-86-192-192v-640c0-106 86-192 192-192h640c106 0 192 86 192 192v568l-580-580-324 324 136 136 188-188 444 444 136-136v72c0 106-86 192-192 192z" />
<glyph unicode="&#xe036;" glyph-name="bt-panorama-54" d="M512 896c248 0 448-200 448-448s-200-448-448-448c-248 0-448 200-448 448s200 448 448 448zM512 960c-282 0-512-230-512-512s230-512 512-512c282 0 512 230 512 512s-230 512-512 512z" />
<glyph unicode="&#xe037;" glyph-name="bt-panorama-55" d="M512 960c-282 0-512-230-512-512s230-512 512-512c282 0 512 230 512 512s-230 512-512 512zM512 0c-248 0-448 200-448 448s200 448 448 448c248 0 448-200 448-448s-200-448-448-448zM768 448c0-142-114-256-256-256s-256 114-256 256c0 142 114 256 256 256s256-114 256-256z" />
<glyph unicode="&#xe038;" glyph-name="bt-panorama-56" d="M512 960c-282 0-512-230-512-512s230-512 512-512c282 0 512 230 512 512s-230 512-512 512z" />
<glyph unicode="&#xe039;" glyph-name="bt-panorama-57" d="M960 960h-896c-36 0-64-28-64-64v-896c0-36 28-64 64-64h896c36 0 64 28 64 64v896c0 36-28 64-64 64zM448 224c0-18-14-32-32-32h-64c-18 0-32 14-32 32v448c0 18 14 32 32 32h64c18 0 32-14 32-32zM704 224c0-18-14-32-32-32h-64c-18 0-32 14-32 32v448c0 18 14 32 32 32h64c18 0 32-14 32-32z" />
<glyph unicode="&#xe03a;" glyph-name="bt-panorama-58" d="M960 960h-896c-36 0-64-28-64-64v-896c0-36 28-64 64-64h896c36 0 64 28 64 64v896c0 36-28 64-64 64zM382 192v512l322-256z" />
<glyph unicode="&#xe03b;" glyph-name="bt-panorama-59" d="M0 960h1024v-256h-1024zM0 192h1024v-256h-1024zM0 576h1024v-256h-1024z" />
<glyph unicode="&#xe03c;" glyph-name="bt-panorama-60" d="M544 514l30 2c36 0 68 26 68 62 0 34-26 62-62 62h-132v-364c0-12 8-18 20-20l154 2c36 2 64 26 64 62 0 40-30 64-70 64h-58c-12 0-46 20-46 32v78c0 12 20 20 32 20zM320 768v154c-82-32-154-86-208-154zM512 960c-22 0-44-2-64-4v-188h116c122 0 208-68 208-188 0-44-24-90-56-118 50-32 84-88 84-152 0-98-78-178-176-182h-284c-12 2-20 8-20 20v464l86 28h-368c-24-64-38-124-38-194 0-282 230-510 512-510s512 228 512 512c0 282-230 512-512 512z" />
<glyph unicode="&#xe03d;" glyph-name="bt-panorama-61" d="M512 960c-282 0-512-230-512-512s230-512 512-512c282 0 512 230 512 512s-230 512-512 512zM448 512h128c106 0 192-86 192-192s-86-192-192-192v-64c0-36-28-64-64-64s-64 28-64 64v64h-128c-36 0-64 28-64 64s28 64 64 64h256c36 0 64 28 64 64s-28 64-64 64h-128c-106 0-192 86-192 192s86 192 192 192v64c0 36 28 64 64 64s64-28 64-64v-64h128c36 0 64-28 64-64s-28-64-64-64h-256c-36 0-64-28-64-64s28-64 64-64z" />
<glyph unicode="&#xe03e;" glyph-name="bt-panorama-62" d="M640 736l-384-288 384-320v192h368c-58-192-258-384-496-384-282 0-512 230-512 512s230 512 512 512c238 0 438-192 494-384h-366z" />
<glyph unicode="&#xe03f;" glyph-name="bt-panorama-63" d="M384 160l384 288-384 320v-192h-368c58 192 258 384 496 384 282 0 512-230 512-512s-230-512-512-512c-238 0-438 192-494 384h366z" />
<glyph unicode="&#xe040;" glyph-name="bt-panorama-64" d="M928 960h-896c-18 0-32-14-32-32v-960c0-18 14-32 32-32h352v320h192v-320h352c18 0 32 14 32 32v960c0 18-14 32-32 32zM320 384h-192v192h192zM320 640h-192v192h192zM576 384h-192v192h192zM576 640h-192v192h192zM832 384h-192v192h192zM832 640h-192v192h192z" />
<glyph unicode="&#xe041;" glyph-name="bt-panorama-65" d="M1024 384l-512 448-512-448h126l2-384c0-36 28-64 64-64h128c36 0 64 28 64 64v256h256v-256c0-36 28-64 64-64h128c36 0 64 28 64 64v384z" />
<glyph unicode="&#xe042;" glyph-name="bt-panorama-66" d="M1024 448l-320 320-88-88 168-168h-528v-128h526l-166-168 88-88zM128 832h640v128h-768v-1024h768v128h-640z" />
<glyph unicode="&#xe043;" glyph-name="bt-panorama-67" d="M192 900c0-2 0-2 0-4 0 36-28 64-64 64s-64-28-64-64v-896c0-36 28-64 64-64s64 28 64 64v316c278-210 426 210 704 0 0 194 0 390 0 584-278 210-426-210-704 0z" />
<glyph unicode="&#xe044;" glyph-name="bt-panorama-68" d="M928 960h-832c-18 0-32-14-32-32v-32l320-448v-512l256 128v384l320 448v32c0 18-14 32-32 32zM428 536c-14-10-34-8-44 8l-218 316c-10 14-6 34 8 44 16 10 36 6 46-8l218-316c8-16 6-34-10-44z" />
<glyph unicode="&#xe045;" glyph-name="bt-panorama-69" d="M512 960c-176 0-320-150-320-320s256-704 320-704c64 0 320 534 320 704s-144 320-320 320zM512 512c-70 0-128 58-128 128s58 128 128 128c70 0 128-58 128-128s-58-128-128-128z" />
<glyph unicode="&#xe046;" glyph-name="bt-panorama-70" d="M0 576c0-212 172-384 384-384 82 0 160 26 222 72l308-310c14-12 30-18 46-18s32 6 46 18c24 26 24 66 0 92l-310 308c46 62 72 140 72 222 0 212-172 384-384 384s-384-172-384-384zM128 576c0 142 114 256 256 256s256-114 256-256c0-142-114-256-256-256s-256 114-256 256z" />
<glyph unicode="&#xe047;" glyph-name="bt-panorama-71" d="M512 576c-70 0-128-58-128-128s58-128 128-128c70 0 128 58 128 128s-58 128-128 128z" />
<glyph unicode="&#xe048;" glyph-name="bt-panorama-72" d="M922 424c0 18 0 34-2 52l104 34-48 146-104-34c-16 30-38 56-60 82l64 90-124 90-72-90c-30 14-40 26-104 32v134h-128v-134c-64-6-74-18-104-32l-68 90-126-90 64-90c-24-26-44-52-62-82l-104 34-48-146 106-34c-2-18-4-34-4-52s0-34 4-52l-106-34 48-146 104 34c18-30 38-56 60-82l-64-90 124-90 72 90c30-14 40-26 104-32v-86h128v86c64 6 74 18 104 32l68-90 126 90-64 90c24 26 44 52 62 82l104-34 48 146-106 34c4 18 4 34 4 52zM512 232c-106 0-192 86-192 192s86 192 192 192c106 0 192-86 192-192s-86-192-192-192z" />
<glyph unicode="&#xe049;" glyph-name="bt-panorama-73" d="M712 64h-512v640h512v-128l128 128v64c0 36-30 64-64 64h-192c0 70-58 128-128 128-72 0-128-58-128-128h-192c-36 0-64-28-64-64v-768c0-36 28-64 64-64h640c34 0 64 28 64 64v256l-128-128zM456 896c34 0 64-28 64-64s-30-64-64-64c-36 0-64 28-64 64s28 64 64 64zM1014 618l-44 46c-14 12-34 12-46 0l-248-248-114 112c-12 12-32 12-46 0l-44-44c-12-14-12-34 0-46l136-136 44-46c4-2 8-4 12-6 6-2 12-2 18-2 2 2 4 2 6 2 0 0 2 2 4 2 2 2 4 4 6 4l46 46 270 272c14 12 14 32 0 44z" />
<glyph unicode="&#xe04a;" glyph-name="bt-panorama-74" d="M512 768c-214 0-402-128-512-320 110-192 298-320 512-320s402 128 512 320c-110 192-298 320-512 320zM512 224c-154 0-300 82-398 224 98 142 244 224 398 224s300-82 398-224c-98-142-244-224-398-224zM512 448v160c-88 0-160-72-160-160s72-160 160-160c88 0 160 72 160 160 0 44-18 84-46 114z" />
<glyph unicode="&#xe04b;" glyph-name="bt-panorama-75" d="M706 170l-56 80-474 676-52-36 130-186c-104-56-192-144-254-252 110-194 298-320 512-320 44 0 88 6 130 16l150-212 52 36zM512 228c-154 0-300 82-398 224 52 76 120 134 196 172l64-92c-14-24-22-52-22-80 0-90 72-160 160-160 10 0 20 0 28 2l44-60c-24-4-48-6-72-6zM512 772c-46 0-92-8-136-20l60-84c24 4 50 8 76 8 154 0 300-84 398-224-54-80-122-138-200-176l56-80c104 56 194 144 258 256-110 192-298 320-512 320zM512 612c-12 0-24-2-34-4l168-242c16 24 26 54 26 86 0 88-72 160-160 160z" />
<glyph unicode="&#xe04d;" glyph-name="bt-panorama-77" d="M0 960h256v-256h-256zM0 576h256v-256h-256zM384 576h640v-256h-640zM384 960h640v-256h-640zM384 192h640v-256h-640zM0 192h256v-256h-256z" />
<glyph unicode="&#xe04e;" glyph-name="bt-panorama-78" d="M0 960h448v-448h-448zM576 960h448v-448h-448zM576 384h448v-448h-448zM0 384h448v-448h-448z" />
<glyph unicode="&#xe04f;" glyph-name="bt-panorama-79" d="M0 960h256v-256h-256zM0 576h256v-256h-256zM384 576h256v-256h-256zM384 960h256v-256h-256zM384 192h256v-256h-256zM768 576h256v-256h-256zM768 960h256v-256h-256zM768 192h256v-256h-256zM0 192h256v-256h-256z" />
<glyph unicode="&#xe050;" glyph-name="bt-panorama-80" d="M512 960c-282 0-512-230-512-512s230-512 512-512c282 0 512 230 512 512s-230 512-512 512zM424 304c26-30 58-46 96-46 40 0 70 14 90 40 12 14 22 36 30 64h114c-10-60-36-110-76-146-40-38-92-58-156-58-78 0-140 26-186 78-44 50-68 120-68 210 0 96 26 170 78 222 44 46 100 70 170 70 92 0 158-32 202-92 22-34 36-68 38-104h-116c-8 28-18 48-28 60-22 24-52 36-92 36-42 0-74-16-98-50s-36-82-36-144c0-62 14-108 38-140z" />
<glyph unicode="&#xe051;" glyph-name="bt-panorama-81" d="M512 896c248 0 448-200 448-448s-200-448-448-448c-248 0-448 200-448 448s200 448 448 448zM512 960c-282 0-512-230-512-512s230-512 512-512c282 0 512 230 512 512s-230 512-512 512zM424 304c26-30 58-46 96-46 40 0 70 14 90 40 12 14 22 36 30 64h114c-10-60-36-110-76-146-40-38-92-58-156-58-78 0-140 26-186 78-44 50-68 120-68 210 0 96 26 170 78 222 44 46 100 70 170 70 92 0 158-32 202-92 22-34 36-68 38-104h-116c-8 28-18 48-28 60-22 24-52 36-92 36-42 0-74-16-98-50s-36-82-36-144c0-62 14-108 38-140z" />
<glyph unicode="&#xe052;" glyph-name="bt-panorama-82" d="M512 960c-282 0-512-230-512-512s230-512 512-512c282 0 512 230 512 512s-230 512-512 512zM570 172h-116v552h116z" />
<glyph unicode="&#xe053;" glyph-name="bt-panorama-83" d="M512 896c248 0 448-200 448-448s-200-448-448-448c-248 0-448 200-448 448s200 448 448 448zM512 960c-282 0-512-230-512-512s230-512 512-512c282 0 512 230 512 512s-230 512-512 512zM570 172h-116v552h116z" />
<glyph unicode="&#xe054;" glyph-name="bt-panorama-84" d="M512 960c-282 0-512-230-512-512s230-512 512-512c282 0 512 230 512 512s-230 512-512 512zM652 346c0-46-8-84-24-112-26-46-76-70-146-70s-116 20-140 58c-24 36-36 88-36 154v12h108v-12c2-44 6-74 14-90 8-18 24-26 50-26s42 8 50 28c6 10 8 30 8 56v388h116z" />
<glyph unicode="&#xe055;" glyph-name="bt-panorama-85" d="M512 896c248 0 448-200 448-448s-200-448-448-448c-248 0-448 200-448 448s200 448 448 448zM512 960c-282 0-512-230-512-512s230-512 512-512c282 0 512 230 512 512s-230 512-512 512zM652 346c0-46-8-84-24-112-26-46-76-70-146-70s-116 20-140 58c-24 36-36 88-36 154v12h108v-12c2-44 6-74 14-90 8-18 24-26 50-26s42 8 50 28c6 10 8 30 8 56v388h116z" />
<glyph unicode="&#xe056;" glyph-name="bt-panorama-86" d="M512 960c-282 0-512-230-512-512s230-512 512-512c282 0 512 230 512 512s-230 512-512 512zM682 206c-38-32-94-50-164-50-74 0-130 16-172 50-42 32-64 78-64 136h112c2-26 10-44 20-58 20-22 52-34 98-34 28 0 50 4 68 10 34 12 50 32 50 64 0 18-8 32-24 42s-42 18-78 26l-60 14c-58 12-98 26-120 42-38 26-56 64-56 120 0 48 18 90 54 122 36 34 90 50 162 50 58 0 108-16 150-46 42-32 64-76 66-136h-112c-2 34-16 58-44 72-18 8-42 14-68 14-32 0-56-6-74-18s-28-30-28-50c0-20 10-36 28-44 12-8 36-16 74-24l96-22c42-10 74-24 96-40 32-26 50-64 50-114s-20-92-60-126z" />
<glyph unicode="&#xe057;" glyph-name="bt-panorama-87" d="M512 896c248 0 448-200 448-448s-200-448-448-448c-248 0-448 200-448 448s200 448 448 448zM512 960c-282 0-512-230-512-512s230-512 512-512c282 0 512 230 512 512s-230 512-512 512zM682 206c-38-32-94-50-164-50-74 0-130 16-172 50-42 32-64 78-64 136h112c2-26 10-44 20-58 20-22 52-34 98-34 28 0 50 4 68 10 34 12 50 32 50 64 0 18-8 32-24 42s-42 18-78 26l-60 14c-58 12-98 26-120 42-38 26-56 64-56 120 0 48 18 90 54 122 36 34 90 50 162 50 58 0 108-16 150-46 42-32 64-76 66-136h-112c-2 34-16 58-44 72-18 8-42 14-68 14-32 0-56-6-74-18s-28-30-28-50c0-20 10-36 28-44 12-8 36-16 74-24l96-22c42-10 74-24 96-40 32-26 48-64 48-114 2-50-18-92-58-126z" />
<glyph unicode="&#xe058;" glyph-name="bt-panorama-88" d="M512 960c-282 0-512-230-512-512s230-512 512-512c282 0 512 230 512 512s-230 512-512 512zM736 626h-166v-454h-116v454h-166v98h448z" />
<glyph unicode="&#xe059;" glyph-name="bt-panorama-89" d="M512 896c248 0 448-200 448-448s-200-448-448-448c-248 0-448 200-448 448s200 448 448 448zM512 960c-282 0-512-230-512-512s230-512 512-512c282 0 512 230 512 512s-230 512-512 512zM736 626h-166v-454h-116v454h-166v98h448z" />
<glyph unicode="&#xe05a;" glyph-name="bt-panorama-90" d="M320 186v-250l192 128 192-122v250l-192-64zM896 576l-136 66 84 126-150-12 10 152-126-84-66 136-66-136-126 84 10-152-150 12 84-126-136-66 136-66-84-126 150 12-10-152 126 84 66-136 66 136 126-84-10 152 150-12-84 126z" />
<glyph unicode="&#xe05b;" glyph-name="bt-panorama-91" d="M512 960c-282 0-512-230-512-512s230-512 512-512c284 0 512 230 512 512s-228 512-512 512zM512 160c0-18-14-32-32-32h-64c-18 0-32 14-32 32v64c0 18 14 32 32 32h64c18 0 32-14 32-32zM542 384c-16 0-32-14-32-32s-14-32-32-32h-64c-16 0-32 14-32 32 0 88 72 160 160 160 36 0 64 28 64 64s-28 64-64 64h-62c-36 0-64-16-64-50-2-18-20-14-36-14h-64c-18 0-28 0-26 0 10 128 92 192 190 192h32c128 0 206-86 206-192s-68-192-176-192z" />
<glyph unicode="&#xe05c;" glyph-name="bt-panorama-92" d="M512-64c284 0 512 230 512 512s-228 512-512 512c-282 0-512-230-512-512s230-512 512-512zM448 736c0 18 14 32 32 32h64c18 0 32-14 32-32v-64c0-18-14-32-32-32h-64c-18 0-32 14-32 32zM448 544c0 18 14 32 32 32h64c18 0 32-14 32-32v-384c0-18-14-32-32-32h-64c-18 0-32 14-32 32z" />
<glyph unicode="&#xe05d;" glyph-name="bt-panorama-93" d="M520 960l88-182 168 114-14-202 202 14-114-168 182-88-182-88 114-168-202 14 14-202-168 114-88-182-88 182-168-114 14 202-202-14 114 168-182 88 182 88-114 168 202-14-14 202 168-114z" />
<glyph unicode="&#xe05e;" glyph-name="bt-panorama-94" d="M520 110l-316-174 60 370-256 262 354 54 158 338 158-338 354-54-256-262 60-370z" />
<glyph unicode="&#xe05f;" glyph-name="bt-panorama-95" d="M520 110l-316-174 60 370-256 262 354 54 158 338z" />
<glyph unicode="&#xe060;" glyph-name="bt-panorama" d="M512 960c-282 0-512-230-512-512s230-512 512-512c282 0 512 230 512 512s-230 512-512 512zM784 562l-318-318c-2-2-4-2-6-4-2 0-2-2-4-2-2-2-4-2-4-2-8-2-14-2-20 2-4 0-8 4-10 6l-182 182c-12 12-12 32 0 44l46 46c12 12 32 12 46 0l112-114 250 250c12 12 32 12 44 0l46-46c12-12 12-32 0-44z" />
<glyph unicode="&#xe061;" glyph-name="bt-panorama-97" d="M388 128l-324 324 136 136 188-188 444 444 136-136z" />
<glyph unicode="&#xe062;" glyph-name="bt-panorama-98" d="M940 190l-330 700c-52 94-204 94-258 0l-330-700c-52-94-8-170 100-170h718c108 0 154 76 100 170zM546 180c0-18-16-32-32-32h-64c-18 0-32 14-32 32v64c0 18 14 32 32 32h64c16 0 32-14 32-32zM546 372c0-18-14-32-32-32h-64c-18 0-32 14-32 32v320c0 18 14 32 32 32h64c18 0 32-14 32-32z" />
<glyph unicode="&#xe063;" glyph-name="bt-panorama-99" d="M512 960c-282 0-512-230-512-512s230-512 512-512c282 0 512 230 512 512s-230 512-512 512zM576 160c0-18-14-32-32-32h-64c-18 0-32 14-32 32v64c0 18 14 32 32 32h64c18 0 32-14 32-32zM576 352c0-18-14-32-32-32h-64c-18 0-32 14-32 32v384c0 18 14 32 32 32h64c18 0 32-14 32-32z" />
<glyph unicode="&#xe064;" glyph-name="bt-panorama-100" d="M896 384l-88 88-232-232v720h-128v-718l-232 230-88-88 384-384z" />
<glyph unicode="&#xe065;" glyph-name="bt-panorama-101" d="M448 64l88 88-232 232h720v128h-718l230 232-88 88-384-384z" />
<glyph unicode="&#xe066;" glyph-name="bt-panorama-102" d="M576 832l-88-88 232-232h-720v-128h718l-230-232 88-88 384 384z" />
<glyph unicode="&#xe067;" glyph-name="bt-panorama-103" d="M128 512l88-88 232 232v-720h128v718l232-230 88 88-384 384z" />
<glyph unicode="&#xe068;" glyph-name="bt-panorama-104" d="M128 576l384-384 384 384-128 128-256-256-256 256z" />
<glyph unicode="&#xe069;" glyph-name="bt-panorama-105" d="M640 832l-384-384 384-384 128 128-256 256 256 256z" />
<glyph unicode="&#xe06a;" glyph-name="bt-panorama-106" d="M448 64l384 384-384 384-128-128 256-256-256-256z" />
<glyph unicode="&#xe06b;" glyph-name="bt-panorama-107" d="M896 320l-384 384-384-384 128-128 256 256 256-256z" />
<glyph unicode="&#xe06c;" glyph-name="bt-panorama-108" d="M192 544l320-320 320 320z" />
<glyph unicode="&#xe06d;" glyph-name="bt-panorama-109" d="M640 768l-320-320 320-320z" />
<glyph unicode="&#xe06e;" glyph-name="bt-panorama-110" d="M384 128l320 320-320 320z" />
<glyph unicode="&#xe06f;" glyph-name="bt-panorama-111" d="M832 288l-320 320-320-320z" />
<glyph unicode="&#xe070;" glyph-name="bt-panorama-112" d="M576 768v-384h128l-190-256-194 256h128v384z" />
<glyph unicode="&#xe071;" glyph-name="bt-panorama-113" d="M704 384v320c0 36-28 64-64 64h-256c-36 0-64-28-64-64v-320h-128l320-320 320 320z" />
<glyph unicode="&#xe072;" glyph-name="bt-panorama-114" d="M320 512v-320c0-36 28-64 64-64h256c36 0 64 28 64 64v320h128l-320 320-320-320z" />
<glyph unicode="&#xe073;" glyph-name="bt-panorama-115" d="M448 128v384h-128l190 256 194-256h-128v-384z" />
<glyph unicode="&#xe074;" glyph-name="bt-panorama-116" d="M480 256h-64c-18 0-32-14-32-32v-64c0-18 14-32 32-32h64c18 0 32 14 32 32v64c0 18-14 32-32 32zM512 768h-32c-98 0-180-64-190-192-4 0 8 0 26 0h64c16 0 32-4 36 14 0 34 28 50 64 50h62c36 0 64-28 64-64s-28-64-64-64c-88 0-160-72-160-160 0-18 16-32 32-32h64c18 0 32 14 32 32s16 32 32 32c106 0 176 86 176 192s-78 192-206 192zM512 960c-282 0-512-230-512-512s230-512 512-512c282 0 512 230 512 512s-230 512-512 512zM512 0c-248 0-448 200-448 448s200 448 448 448c248 0 448-200 448-448s-200-448-448-448z" />
<glyph unicode="&#xe076;" glyph-name="bt-panorama-118" d="M228 816h316c88 0 148-26 186-78 20-30 32-66 32-104 0-48-14-86-40-114-14-16-34-30-58-44 36-14 64-30 84-48 32-32 48-76 48-132 0-48-14-90-44-130-44-56-116-86-212-86h-312zM508 504c42 0 74 6 98 18 38 18 56 52 56 100s-20 80-60 96c-22 10-54 14-98 14h-180v-228zM540 166c62 0 106 18 132 52 18 24 26 50 26 82 0 54-24 90-72 108-26 12-60 16-102 16h-200v-258z" />
<glyph unicode="&#xe077;" glyph-name="bt-panorama-119" d="M320 320c2-42 12-76 28-102 32-48 88-74 168-74 36 0 70 6 98 16 58 22 86 58 86 112 0 40-12 68-36 86-24 16-62 30-116 42l-96 24c-62 14-108 30-134 48-44 30-68 76-68 138 0 66 24 120 68 162s106 64 188 64c76 0 138-20 192-56 52-38 78-98 78-178h-94c-4 38-14 68-30 90-30 38-78 58-148 58-56 0-98-14-122-38s-36-54-36-86c0-36 14-62 44-78 18-12 62-24 128-40l100-24c48-12 86-28 112-46 44-36 68-84 68-150 0-82-30-140-88-174-56-36-124-54-200-54-90 0-158 24-210 70-50 48-74 110-74 190z" />
<glyph unicode="&#xe078;" glyph-name="bt-panorama-120" d="M0 518l320 320h704l-320-320zM730 454h-538l-192-192h704l320 320h-166zM730 198h-538l-192-192h704l320 320h-166z" />
<glyph unicode="&#xe07c;" glyph-name="bt-panorama-124" d="M192 0c0-36-28-64-64-64h-64c-36 0-64 28-64 64v448c0 36 28 64 64 64h64c36 0 64-28 64-64zM448 0c0-36-28-64-64-64h-64c-36 0-64 28-64 64v640c0 36 28 64 64 64h64c36 0 64-28 64-64zM704 0c0-36-28-64-64-64h-64c-36 0-64 28-64 64v448c0 36 28 64 64 64h64c36 0 64-28 64-64zM960 0c0-36-28-64-64-64h-64c-36 0-64 28-64 64v896c0 36 28 64 64 64h64c36 0 64-28 64-64z" />
<glyph unicode="&#xe07d;" glyph-name="bt-panorama-125" d="M64 704h448c36 0 64 28 64 64v64c0 36-28 64-64 64h-448c-36 0-64-28-64-64v-64c0-36 28-64 64-64zM64 448h640c36 0 64 28 64 64v64c0 36-28 64-64 64h-640c-36 0-64-28-64-64v-64c0-36 28-64 64-64zM64 192h448c36 0 64 28 64 64v64c0 36-28 64-64 64h-448c-36 0-64-28-64-64v-64c0-36 28-64 64-64zM960 128h-896c-36 0-64-28-64-64v-64c0-36 28-64 64-64h896c36 0 64 28 64 64v64c0 36-28 64-64 64z" />
<glyph unicode="&#xe07e;" glyph-name="bt-panorama-126" d="M832 0c0-36-28-64-64-64h-512c-36 0-64 28-64 64v896c0 36 28 64 64 64h512c36 0 64-28 64-64z" />
<glyph unicode="&#xe07f;" glyph-name="bt-panorama-127" d="M64 128c-36 0-64 28-64 64v512c0 36 28 64 64 64h896c36 0 64-28 64-64v-512c0-36-28-64-64-64z" />
<glyph unicode="&#xe080;" glyph-name="bt-panorama-128" d="M992 512h-960c-18 0-32-14-32-32v-64c0-18 14-32 32-32h960c18 0 32 14 32 32v64c0 18-14 32-32 32z" />
<glyph unicode="&#xe081;" glyph-name="bt-panorama-129" d="M512 832c212 0 384-172 384-384s-172-384-384-384c-212 0-384 172-384 384s172 384 384 384zM512 960c-282 0-512-230-512-512s230-512 512-512c282 0 512 230 512 512s-230 512-512 512z" />
<glyph unicode="&#xe082;" glyph-name="marketinformationicon1" d="M232-10h94v468l-94-72zM46-10h92v326l-92-70zM420-10h94v392l-94 38zM606-10h94v468l-94-62zM794-10h94v594l-94-62zM794 906l80-112-360-248-188 140-328-238v-94l328 238 188-140 402 276 74-108 34 244z" />
<glyph unicode="&#xe083;" glyph-name="bt-panorama-131" d="M1020 512c-32 252-248 448-508 448-282 0-512-230-512-512 0-260 196-476 448-508v-4h128v4c232 30 414 212 444 444h4v128zM890 512h-92c-6 90-26 174-56 242 78-58 132-144 148-242zM448 512h-92c10 128 50 224 92 276zM448 384v-276c-42 52-82 148-92 276zM576 384h92c-10-128-50-224-92-276zM576 512v276c42-52 82-148 92-276zM282 754c-30-68-50-152-56-242h-92c16 98 70 184 148 242zM134 384h92c6-90 26-174 56-242-78 58-132 144-148 242zM742 142c30 68 50 152 56 242h92c-16-98-70-184-148-242z" />
<glyph unicode="&#xe084;" glyph-name="bt-panorama-132" d="M448 832c-248 0-448-200-448-448s200-448 448-448c248 0 448 200 448 448h-448zM576 960v-448h448c0 248-200 448-448 448z" />
<glyph unicode="&#xe085;" glyph-name="bt-panorama-133" d="M704 964h-576v-1024h768v832zM640 708v192l192-192z" />
<glyph unicode="&#xe086;" glyph-name="bt-panorama-134" d="M704 960h-576v-1024h384l-256 256h128v256h256v-256h128l-256-256h384v832zM640 704v192l192-192z" />
<glyph unicode="&#xe087;" glyph-name="bt-panorama-135" d="M992 708h-544v96c0 16-14 32-32 32h-384c-18 0-32-16-32-32v-832c0-18 14-32 32-32h960c18 0 32 14 32 32v704c0 16-14 32-32 32z" />
<glyph unicode="&#xe088;" glyph-name="bt-panorama-136" d="M512 448l256-256h-128v-256h256v832l-192 192h-576v-1024h256v256h-128zM640 704v192l192-192z" />
<glyph unicode="&#xe089;" glyph-name="bt-panorama-137" d="M0 0h1024v-64h-1024zM960 512h-192v384c0 36-28 64-64 64h-384c-36 0-64-28-64-64v-384h-192l448-448z" />
<glyph unicode="&#xe08a;" glyph-name="bt-panorama-138" d="M826 568c-26 150-156 264-314 264-176 0-320-144-320-320 0-2 0-2 0-4-108-14-192-108-192-220 0-124 100-224 224-224h288l-256 256h128v256h256v-256h128l-256-256h256c142 0 256 114 256 256 0 122-84 222-198 248z" />
<glyph unicode="&#xe08b;" glyph-name="bt-panorama-139" d="M528 586c0 100-78 182-176 182s-176-82-176-182c0-100 78-182 176-182s176 82 176 182zM352 350c-194 0-352-156-352-348 0-36 30-66 66-66h572c36 0 66 30 66 66 0 192-158 348-352 348zM852 820c0 78-64 140-144 140s-144-62-144-140c0-76 64-140 144-140s144 64 144 140zM708 640c-44 0-84-10-122-28 0-8 2-16 2-26 0-80-38-150-96-196 44-16 84-68 120-68h330c30 0 54 22 54 50 0 148-128 268-288 268z" />
<glyph unicode="&#xe08c;" glyph-name="bt-panorama-140" d="M512 512c124 0 224 100 224 224s-100 224-224 224c-124 0-224-100-224-224s100-224 224-224zM512 448c-248 0-448-194-448-432 0-44 38-80 84-80h728c46 0 84 36 84 80 0 238-200 432-448 432z" />
<glyph unicode="&#xe08d;" glyph-name="bt-panorama-141" d="M992 448c18 0 32-12 32-30v-64c0-16-14-34-32-34h-448c-18 0-32 18-32 34v64c0 18 14 30 32 30h448zM992 448c18 0 32-12 32-30v-64c0-16-14-34-32-34h-448c-18 0-32 18-32 34v64c0 18 14 30 32 30h448zM672 736c0-124-100-224-224-224s-224 100-224 224c0 124 100 224 224 224s224-100 224-224zM800 64h-64c-52 0-96 46-96 98v94h-96c-52 0-96 46-96 98v64c0 10 2 20 4 30 0 0-2 0-4 0-248 0-448-194-448-432 0-44 38-80 84-80h728c46 0 84 36 84 80 0 36-4 68-12 100-16-30-48-52-84-52zM992 448h-160v162c0 18-14 30-32 30h-64c-18 0-32-12-32-30v-162h-160c-18 0-32-12-32-30v-64c0-16 14-34 32-34h160v-158c0-16 14-34 32-34h64c18 0 32 18 32 34v158h160c18 0 32 18 32 34v64c0 18-14 30-32 30z" />
<glyph unicode="&#xe08e;" glyph-name="bt-panorama-142" d="M704 960h-640v-1024h64c0 0 0 2 0 2 0 192 158 348 352 348s352-156 352-348c0-2 0-2 0-2h64v832zM480 340c-98 0-176 82-176 182s78 182 176 182c98 0 176-82 176-182s-78-182-176-182zM640 704v192l192-192z" />
<glyph unicode="&#xe08f;" glyph-name="bt-panorama-143" d="M672 736c0-124-100-224-224-224s-224 100-224 224c0 124 100 224 224 224s224-100 224-224zM544 256c-52 0-96 46-96 98v64c0 10 2 20 6 30-2 0-4 0-6 0-248 0-448-194-448-432 0-44 38-80 84-80h728c46 0 84 36 84 80 0 90-28 172-76 240zM992 448c18 0 32-12 32-30v-64c0-16-14-34-32-34h-448c-18 0-32 18-32 34v64c0 18 14 30 32 30h448zM992 448c18 0 32-12 32-30v-64c0-16-14-34-32-34h-448c-18 0-32 18-32 34v64c0 18 14 30 32 30h448zM992 448c18 0 32-12 32-30v-64c0-16-14-34-32-34h-448c-18 0-32 18-32 34v64c0 18 14 30 32 30h448z" />
<glyph unicode="&#xe090;" glyph-name="bt-panorama-144" d="M734 86l-46-46-298 298 108 108c-16 0-34 2-50 2-248 0-448-194-448-432 0-44 38-80 84-80h728c46 0 84 36 84 80 0 68-16 130-44 188zM672 736c0-124-100-224-224-224s-224 100-224 224c0 124 100 224 224 224s224-100 224-224zM482 344l206-208 336 336-90 90-246-244-116 116z" />
<glyph unicode="&#xe091;" glyph-name="bt-panorama-145" d="M704 960h-384c-70 0-128-58-128-128v-768c0-70 58-128 128-128h384c70 0 128 58 128 128v768c0 70-58 128-128 128zM512 0c-36 0-64 28-64 64s28 64 64 64c36 0 64-28 64-64s-28-64-64-64zM704 192h-384v640h384z" />
<glyph unicode="&#xe092;" glyph-name="bt-panorama-146" d="M704 832l-320-320 318-320v128h194c36 0 64 28 64 64v256c0 36-28 64-64 64h-194zM602 112l-90 114v-34h-384v640h384v-36l92 116 4 4c-24 26-58 44-96 44h-384c-70 0-128-58-128-128v-768c0-70 58-128 128-128h384c70 0 128 58 128 128v2zM320 0c-36 0-64 28-64 64s28 64 64 64c34 0 64-28 64-64s-30-64-64-64z" />
<glyph unicode="&#xe093;" glyph-name="bt-panorama-147" d="M512 192h-384v640h384v-64h128v64c0 70-58 128-128 128h-384c-70 0-128-58-128-128v-768c0-70 58-128 128-128h384c70 0 128 58 128 128v192h-128zM320 0c-36 0-64 28-64 64s28 64 64 64c36 0 64-28 64-64s-28-64-64-64zM704 192l256 320-254 320v-128h-258c-36 0-64-28-64-64v-256c0-36 28-64 64-64h258z" />
<glyph unicode="&#xe094;" glyph-name="bt-panorama-148" d="M768-64h-512l256 256zM256 960h512l-256-256zM992 512h-960c-18 0-32-14-32-32v-64c0-18 14-32 32-32h960c18 0 32 14 32 32v64c0 18-14 32-32 32zM992 320h-960c-18 0-32-14-32-32v-64c0-18 14-32 32-32h960c18 0 32 14 32 32v64c0 18-14 32-32 32zM992 704h-960c-18 0-32-14-32-32v-64c0-18 14-32 32-32h960c18 0 32 14 32 32v64c0 18-14 32-32 32z" />
<glyph unicode="&#xe095;" glyph-name="bt-panorama-149" d="M256 320h512l-256-256zM768 576h-512l256 256zM992 960h-960c-18 0-32-14-32-32v-64c0-18 14-32 32-32h960c18 0 32 14 32 32v64c0 18-14 32-32 32zM992 64h-960c-18 0-32-14-32-32v-64c0-18 14-32 32-32h960c18 0 32 14 32 32v64c0 18-14 32-32 32z" />
<glyph unicode="&#xe096;" glyph-name="bt-panorama-150" d="M1006 622l-322 322c-10 10-22 16-28 16-10 0-16-8-16-22 0-26 0-42 0-106h-288c-18 0-32-14-32-32v-132l-302-304c-24-24-24-64 0-90l322-320c24-26 44-22 44 6 0 24 0 40 0 104h288c18 0 32 14 32 32v132l302 304c24 24 24 66 0 90zM704 318v226c0 16-14 32-32 32h-288v192h320v66l256-258z" />
<glyph unicode="&#xe097;" glyph-name="bt-panorama-151" d="M874 810c-200 200-524 200-724 0s-200-524 0-724c200-200 524-200 724 0s200 524 0 724zM576 208c0-18-14-32-32-32h-64c-18 0-32 14-32 32v176h-176c-18 0-32 14-32 32v64c0 18 14 32 32 32h176v176c0 18 14 32 32 32h64c18 0 32-14 32-32v-176h176c16 0 32-14 32-32v-64c0-18-16-32-32-32h-176z" />
<glyph unicode="&#xe098;" glyph-name="bt-panorama-152" d="M1000 512h-416v416c0 18-14 32-32 32h-64c-18 0-32-14-32-32v-416h-416c-18 0-32-14-32-32v-64c0-18 14-32 32-32h416v-416c0-18 14-32 32-32h64c18 0 32 14 32 32v416h416c18 0 32 14 32 32v64c0 18-14 32-32 32z" />
<glyph unicode="&#xe099;" glyph-name="bt-panorama-153" d="M750 960l-136-274 120-168c-34-60-74-118-124-168-52-50-110-92-172-126l4 4-170 118-272-136 102-274c246 0 478 96 652 270s270 406 270 652z" />
<glyph unicode="&#xe09a;" glyph-name="bt-panorama-154" d="M640 544v384c0 18-14 32-32 32h-576c-18 0-32-14-32-32v-608l192 192h416c18 0 32 14 32 32zM992 576h-288v-128h-320v-288c0-18 14-32 32-32h416l192-192v608c0 18-14 32-32 32z" />
<glyph unicode="&#xe09b;" glyph-name="bt-panorama-155" d="M512 960c-282 0-512-230-512-512s230-512 512-512c282 0 512 230 512 512s-230 512-512 512zM726 324c14-12 14-32 0-46l-44-44c-12-12-34-12-46 0l-124 124-124-124c-12-12-32-12-46 0l-44 44c-14 14-14 34 0 46l124 124-124 124c-14 12-14 32 0 46l44 44c14 12 34 12 46 0l124-124 124 124c12 12 32 12 46 0l44-44c12-14 12-34 0-46l-124-124z" />
<glyph unicode="&#xe09c;" glyph-name="bt-panorama-156" d="M804 822l-294-294-294 294c-12 14-34 14-46 0l-46-44c-12-14-12-34 0-46l296-294-296-294c-12-12-12-32 0-46l46-44c12-14 34-14 46 0l294 294 294-294c12-14 32-14 46 0l44 44c12 14 12 34 0 46l-294 294 294 294c12 12 12 32 0 46l-44 44c-14 14-34 14-46 0z" />
<glyph unicode="&#xe09d;" glyph-name="bt-panorama-157" d="M1006 776l-170 170c-24 24-62 24-86 0l-78-78 256-256 78 78c24 24 24 62 0 86zM266 120c-20 6-38 16-54 32s-26 34-32 54c-20 6-38 16-54 32-16 14-26 34-30 54l-50-50c-6-6-12-14-14-26l-30-224c-10-36 14-60 50-50l224 30c12 2 20 8 26 14l50 50c-20 6-40 16-56 30-14 16-24 36-30 54zM202 398c-24-24-24-62 0-86 24-22 62-22 86 0-24-22-24-60 0-84 22-24 60-24 84 0-24-24-24-62 0-86s62-24 86 0l374 374-256 256z" />
<glyph unicode="&#xe09e;" glyph-name="bt-panorama-158" d="M512 366l-512 294v-508c0-46 38-84 86-84h852c48 0 86 38 86 84v508zM512 464l512 294c-6 44-42 78-86 78h-852c-44 0-80-34-86-78z" />
<glyph unicode="&#xe09f;" glyph-name="bt-panorama-159" d="M256 964h512v-512h-512zM960 516h-128v-128h-640v128h-128c-36 0-64-30-64-64v-384c0-36 28-64 64-64h896c36 0 64 28 64 64v384c0 34-28 64-64 64zM832 132c-54 0-96 42-96 96 0 52 42 96 96 96s96-44 96-96c0-54-42-96-96-96z" />
<glyph unicode="&#xe0a0;" glyph-name="bt-panorama-160" d="M1024 448c0 282-230 512-512 512s-512-230-512-512c0-282 230-512 512-512s512 230 512 512zM192 512l128 128 192-192 192 192 128-128-320-320z" />
<glyph unicode="&#xe0a1;" glyph-name="bt-panorama-161" d="M512 960c-282 0-512-230-512-512s230-512 512-512c282 0 512 230 512 512s-230 512-512 512zM448 128l-128 128 192 192-192 192 128 128 320-320z" />
<glyph unicode="&#xe0a2;" glyph-name="bt-panorama-162" d="M612 638l-292-292c-26-26-26-66 0-90 12-12 28-20 44-20 18 0 34 8 46 20l292 292c26 26 26 66 0 90-24 26-64 26-90 0zM948 884c-48 50-114 76-180 76s-132-26-180-76l-122-120 90-90 122 120c24 24 56 38 90 38s66-14 90-38c50-50 50-130 0-180l-120-122 90-90 120 122c102 98 102 262 0 360zM346 102c-24-24-56-38-90-38s-66 14-90 38c-50 50-50 130 0 180l120 122-90 90-120-122c-100-98-100-262 0-362 48-50 114-74 180-74s132 24 180 74l122 122-90 90z" />
<glyph unicode="&#xe0a3;" glyph-name="bt-panorama-163" d="M768 320h256v-128h-256zM640 192h128v-256h-128zM0 704h256v-128h-256zM256 960h128v-256h-128zM678 794c24 24 56 38 90 38s66-14 90-38c50-50 50-130 0-180l-120-122 90-90 120 122c100 98 100 262 0 362-48 50-114 74-180 74s-132-24-180-74l-122-122 90-90zM346 102c-24-24-56-38-90-38s-66 14-90 38c-50 50-50 130 0 180l120 122-90 90-120-122c-100-98-100-262 0-362 48-50 114-74 180-74s132 24 180 74l122 122-90 90z" />
<glyph unicode="&#xe0a4;" glyph-name="bt-panorama-164" d="M832 576h-64v128c0 142-114 256-256 256s-256-114-256-256v-128h-64c-36 0-64-28-64-64v-512c0-36 28-64 64-64h640c36 0 64 28 64 64v512c0 36-28 64-64 64zM576 128c0-36-28-64-64-64s-64 28-64 64v192c0 36 28 64 64 64s64-28 64-64zM384 576v128c0 70 58 128 128 128s128-58 128-128v-128z" />
<glyph unicode="&#xe0a5;" glyph-name="bt-panorama-165" d="M832 576h-448v128c0 70 58 128 128 128s128-58 128-128h128c0 142-114 256-256 256s-256-114-256-256v-128h-64c-36 0-64-28-64-64v-512c0-36 28-64 64-64h640c36 0 64 28 64 64v512c0 36-28 64-64 64zM576 128c0-36-28-64-64-64s-64 28-64 64v192c0 36 28 64 64 64s64-28 64-64z" />
<glyph unicode="&#xe0a6;" glyph-name="bt-panorama-166" d="M256 896h768v-128h-768zM256 320h768v-128h-768zM256 128h768v-128h-768zM512 704h512v-128h-512zM512 512h512v-128h-512zM0 704h512l-256-256z" />
<glyph unicode="&#xe0a7;" glyph-name="bt-panorama-167" d="M832 64h-704v704h320l128 128h-512c-36 0-64-28-64-64v-832c0-36 28-64 64-64h832c36 0 64 28 64 64v512l-128-128zM1016 866l-86 86c-12 12-30 10-42 0l-56-56 128-128 56 56c10 12 10 30 0 42zM394 288c-10 2-18 8-26 16s-14 16-16 26c-10 4-20 8-28 16-6 8-12 18-14 28l-26-26c-2-2-6-6-6-12l-16-112c-4-18 8-30 26-26l112 16c6 0 10 4 12 6l26 26c-10 2-20 8-28 14-8 8-12 18-16 28zM464 314c12-12 30-12 42 0l390 390-128 128-390-390c-12-12-12-30 0-42s32-12 44 0c-12-12-12-30 0-42s30-12 42 0c-12-12-12-32 0-44z" />
<glyph unicode="&#xe0a8;" glyph-name="bt-panorama-168" d="M512 960c-282 0-512-230-512-512s230-512 512-512c282 0 512 230 512 512s-230 512-512 512zM710 160l-198 110-198-110 38 232-160 164 222 34 98 210 98-210 222-34-160-164z" />
<glyph unicode="&#xe0a9;" glyph-name="bt-panorama-169" d="M384 576h-164c48 112 162 192 292 192 104 0 196-50 254-128h150c-72 152-226 256-404 256-202 0-374-134-430-320h-82l192-256zM832 576l-192-256h164c-48-112-162-192-292-192-104 0-196 50-254 128h-150c72-152 226-256 404-256 202 0 374 134 430 320h82z" />
<glyph unicode="&#xe0aa;" glyph-name="bt-panorama-170" d="M874 810c-200 200-524 200-724 0s-200-524 0-724c200-200 524-200 724 0s200 524 0 724zM384 384h-112c-18 0-32 14-32 32v64c0 18 14 32 32 32h480c16 0 32-14 32-32v-64c0-18-16-32-32-32z" />
<glyph unicode="&#xe0ab;" glyph-name="bt-panorama-171" d="M1000 512h-960c-18 0-32-14-32-32v-64c0-18 14-32 32-32h960c18 0 32 14 32 32v64c0 18-14 32-32 32z" />
<glyph unicode="&#xe0ac;" glyph-name="bt-panorama-172" d="M512 896c-176 0-328-102-402-250h152c58 74 148 122 250 122 176 0 320-144 320-320s-144-320-320-320c-130 0-242 80-292 192h164l-192 256-192-256h84c54-184 226-320 428-320 248 0 448 200 448 448s-200 448-448 448z" />
<glyph unicode="&#xe0ad;" glyph-name="bt-panorama-173" d="M704 644c36 0 64 28 64 64v128c0 34-28 64-64 64s-64-30-64-64v-128c0-36 28-64 64-64zM896 964h-64v-384c0-36-28-64-64-64h-512c-36 0-64 28-64 64v384h-128c-36 0-64-30-64-64v-896c0-36 28-64 64-64h896c36 0 64 28 64 64v832z" />
<glyph unicode="&#xe0ae;" glyph-name="bt-panorama-174" d="M980 598l-360 276c-60 46-108 26-108-42v-116c0 0-512-60-512-488 0 0 0-122 64-62 0 0 128 122 448 122v-88c0-70 50-90 108-44l360 276c58 46 58 120 0 166z" />
<glyph unicode="&#xe0af;" glyph-name="bt-panorama-175" d="M512 960c-282 0-512-230-512-512s230-512 512-512c282 0 512 230 512 512s-230 512-512 512zM512 64c-212 0-384 172-384 384s172 384 384 384c212 0 384-172 384-384s-172-384-384-384zM512 742c-36 0-64-28-64-64v-230l-110-108c-12-12-18-30-18-46s6-32 18-44c12-12 30-20 46-20s32 8 44 20l130 126c12 12 18 30 18 46v256c0 36-28 64-64 64z" />
<glyph unicode="&#xe0b0;" glyph-name="bt-panorama-176" d="M512 896c-248 0-448-200-448-448s200-448 448-448c248 0 448 200 448 448s-200 448-448 448zM832 448c0-66-20-126-54-176l-442 442c50 34 110 54 176 54 176 0 320-144 320-320zM192 448c0 66 20 126 54 176l442-442c-50-34-110-54-176-54-176 0-320 144-320 320z" />
<glyph unicode="&#xe0b1;" glyph-name="bt-panorama-177" d="M576 964h-128c-36 0-64-30-64-64h256c0 34-28 64-64 64zM896 836h-768c-36 0-64-30-64-64v-128h896v128c0 34-28 64-64 64zM768 132c0-36-28-64-64-64s-64 28-64 64v448h-64v-448c0-36-28-64-64-64s-64 28-64 64v448h-64v-448c0-36-28-64-64-64s-64 28-64 64v448h-128v-576c0-36 28-64 64-64h640c36 0 64 28 64 64v576h-128z" />
<glyph unicode="&#xe0b2;" glyph-name="bt-panorama-178" d="M0 960h1024v-64h-1024zM64 384h192v-384c0-36 28-64 64-64h384c36 0 64 28 64 64v384h192l-448 448z" />
<glyph unicode="&#xe0b3;" glyph-name="bt-panorama-179" d="M384 64v256h-128l256 256 256-256h-128v-256h128c142 0 256 114 256 256 0 122-84 222-198 248-26 150-156 264-314 264-176 0-320-144-320-320 0-2 0-2 0-4-108-14-192-108-192-220 0-124 100-224 224-224z" />
<glyph unicode="&#xe0b4;" glyph-name="bt-panorama-191" d="M640 64h-512v640h512v-128l128 128v64c0 36-28 64-64 64h-192c0 70-58 128-128 128s-128-58-128-128h-192c-36 0-64-28-64-64v-768c0-36 28-64 64-64h640c36 0 64 28 64 64v256l-128-128zM384 896c36 0 64-28 64-64s-28-64-64-64c-36 0-64 28-64 64s28 64 64 64zM972 624l-42 42c-12 12-32 12-44 0l-256-258-108 110c-12 10-32 10-44 0l-42-44c-12-12-12-32 0-44l172-172c2-4 6-6 10-8 6-2 12-2 18 0 2 0 4 0 4 0 2 2 4 2 4 4 4 0 6 2 8 4l320 322c12 12 12 32 0 44z" />
<glyph unicode="&#xe0b5;" glyph-name="bt-panorama-185" d="M1010 16l-200 200c28 40 44 90 44 144 0 144-116 258-256 258-142 0-256-114-256-258 0-142 114-258 256-258 54 0 104 18 144 46l202-198c8-10 20-14 32-14s24 4 34 14c18 18 18 48 0 66zM598 188c-94 0-172 78-172 172 0 96 78 174 172 174s170-78 170-174c0-94-76-172-170-172zM320 470c42 110 150 190 276 192-12 96-92 170-190 170-106 0-192-86-192-192 0-74 42-140 106-170zM736 94c-42-22-90-34-138-34-166 0-300 134-300 300 0 10 2 22 2 32-172-46-300-200-300-382 0-40 34-74 76-74h658c42 0 76 34 76 74 0 4 0 8 0 12z" />
<glyph unicode="&#xe0b6;" glyph-name="bt-panorama-186" d="M1024 448l-512 470-512-470h128v-384c0-24 20-42 42-42h172c22 0 42 18 42 42v298h256v-298c0-24 20-42 42-42h172c22 0 42 18 42 42v384z" />
<glyph unicode="&#xe0b7;" glyph-name="bt-panorama-187" d="M948 960h-914c-20 0-34-14-34-32v-960c0-18 14-32 34-32h350v298h214v-298h350c18 0 34 14 34 32v960c0 18-16 32-34 32zM342 618h-214v214h214zM598 618h-214v214h214zM854 618h-214v214h214zM854 362h-214v214h214zM598 362h-214v214h214zM342 362h-214v214h214z" />
<glyph unicode="&#xe0b8;" glyph-name="bt-panorama-188" d="M86-64l86 86 84-86 88 86 84-86 86 86 86-86 82 86 88-86 80 86 88-86v1024l-86-86-84 86-88-86-84 86-86-86-86 86-84-86-86 86-80-86-88 86zM170 746h256v-212h-256zM854 150h-684v84h684zM854 278h-684v84h684zM854 406h-684v84h684zM854 534h-384v84h384zM854 662h-384v84h384z" />
<glyph unicode="&#xe0b9;" glyph-name="shareicon" d="M780 372c52 0 98-20 134-56 38-38 56-82 56-136 0-52-18-98-56-134-36-38-82-56-134-56-54 0-98 18-136 56-36 36-56 82-56 134 0 6 0 12 2 20l-216 108c-36-34-80-52-130-52-52 0-98 20-134 56-38 38-56 84-56 136s18 98 56 136c36 36 82 56 134 56 50 0 94-18 130-52l216 108c-2 8-2 14-2 20 0 52 18 98 56 134 38 38 82 56 136 56 52 0 98-18 134-56 38-36 56-82 56-134 0-54-18-98-56-136-36-36-82-56-134-56-50 0-94 18-130 52l-216-108c0-8 2-16 2-20s-2-12-2-20l216-108c36 34 80 52 130 52z" />
<glyph unicode="&#xe0be;" glyph-name="bt-panorama-189" d="M1002 832c-12 0-20-10-20-22v-778c-42 22-44 74-44 74v812c0 22-18 42-42 42h-854c-22 0-42-20-42-42v-896c0-44 42-86 86-86h852c86 0 86 86 86 86v788c0 12-10 22-22 22zM128 832h426v-342h-426zM810 64h-682v86h682zM810 192h-682v86h682zM810 320h-682v86h682zM810 490h-170v86h170zM810 618h-170v86h170zM810 746h-170v86h170z" />
<glyph unicode="&#xe0bf;" glyph-name="bt-panorama-190" d="M470 874c-260 0-470-210-470-468 0-260 210-470 470-470 258 0 468 210 468 470h-468zM554 960v-470h470c0 260-210 470-470 470z" />
<glyph unicode="&#xe0c0;" glyph-name="icons-for-font-01" d="M386 516c0-6-2-12-4-16-4-6-8-10-12-14-6-4-12-6-20-6-16 0-30 10-34 24-2 4-4 8-4 14 0 0 0 2 0 2 2 6 4 12 6 18 6 10 18 16 32 16 20 0 36-16 36-36 0 0 0-2 0-2zM408 476c2 6 6 10 8 16 4 8 4 16 4 26 0 38-32 70-70 70-34 0-62-22-70-54 0-4-2-10-2-16 0 0 0 0 0-2 0-6 2-10 2-16 8-30 36-54 70-54 18 0 34 8 46 18 4 4 8 8 12 12zM402 376c-8 0-14 6-14 16 0 8 6 14 14 14s16-6 16-14c0-10-8-16-16-16zM450 380c2 4 2 8 2 10 0 4 0 8-2 10-2 12-8 22-16 28-6 6-14 10-22 10-2 2-6 2-10 2-26 0-48-22-48-50 0-26 22-48 48-48 24 0 44 16 48 38zM944 308c-2 0-6 0-10 0-18 38-56 66-100 66-4 0-8 0-10-2 2 16 2 32 2 46 0 44-8 86-24 124-2 4-2 6-4 8 36 2 64 30 64 66 0 34-30 64-64 64-2 0-2 0-2 0-14 26-44 44-76 44-2 0-6 0-8 0-6 16-16 30-28 44-24 24-56 36-90 36s-66-12-90-36c-10-10-16-20-22-30-34-4-68-12-100-26-38-16-72-38-100-68-30-28-54-64-70-102-10-24-18-50-20-78-6-6-8-14-12-24-4 2-10 2-14 2-38 0-72-22-88-54-2 0-4 0-4 0-40 0-74-32-72-74 2-36 34-66 72-66h164c12-20 26-38 44-56 28-28 62-52 100-68 40-16 80-24 122-26 0 0 0 0 0 0s0 0 0 0c2 0 2 0 4 0 0 0 0 0 0 0 4 0 6 2 8 6 4 2 6 6 6 12 0 10-8 16-18 16 0 0-2 0-2 0-2 0-2 0-4 0-90 4-170 48-220 116-4 6-8 10-12 16s-6 12-10 18c-22 40-34 86-34 136 0 12 0 24 2 36 2 10 4 22 6 32s4 20 8 30c36 98 124 170 230 186-8-4-16-10-22-16-16-18-24-38-22-62 4-42 40-74 80-74h256c22-38 34-84 34-132 0-2 0-6-2-10-6 12-14 24-24 32-16 16-34 28-54 38-20 8-44 12-66 12s-44-4-66-12c-20-10-38-22-54-38-14-14-26-30-34-48 0-2-2-4-2-4-2-6-4-10-4-14-4-10-6-18-8-28 0 0 0 0 0 0-14-4-26-14-36-24-10-12-18-26-24-40 0-6-2-12-2-18 0-4-2-8-2-12 0 0 0-2 0-4 4-54 48-96 102-96h426c42 0 78 32 78 74 4 46-32 82-78 82zM72 282v0c-20 0-38 18-36 40 2 18 16 32 34 32 12 2 24-4 32-14 0 2 0 4 0 4 0 36 28 64 64 64 8 0 14-2 22-4 2-38 10-76 24-110 2-4 4-8 6-12h-146zM504 584c-24 0-44 20-46 44-2 26 18 46 42 48 0 0 0 2 0 2 0 8 2 18 4 26 2 6 4 12 8 18 2 6 6 10 10 16 18 20 44 32 72 32 48 0 90-38 92-86 0-2 0-4 0-6 2 0 4 2 4 2 8 6 20 10 30 10 30 0 54-24 54-52 0-2 0-2 0-4 6 8 16 12 28 12 12-2 24-14 26-28 2-18-12-34-30-34zM990 228c-2-24-24-42-46-42h-426c-38 0-66 30-68 66 0 0 0 0 0 0 0 6 2 12 2 18 6 22 22 38 42 46 6 2 12 2 18 4 0 0 0 0 0 0s0 0 0 2c0 0 0 0 0 0 0 6 2 12 2 18 8 66 66 116 134 116s126-50 134-116c0-6 2-12 2-18 0 0 0 0 0 0 4 2 8 6 14 8 6 4 12 6 18 8 6 0 12 2 18 2 42 0 76-36 76-78 0-2 0-2 0-4 8 10 20 16 34 16 26 0 46-20 46-46z" />
<glyph unicode="&#xe0c1;" glyph-name="icons-for-font-02" d="M828 612c-6 0-14 0-22-2l-10-2-4 10c-44 110-148 182-268 182-102 0-198-56-250-144l-4-10-10 4c-16 2-32 4-48 4v0c-56 0-108-22-148-64-40-40-62-94-62-152 0-120 96-216 216-216h64l10 36h-74c-100 0-180 82-180 180s80 180 180 180c18 0 36-4 56-10 2-2 4-2 6-2 6 0 14 4 16 10 42 90 132 148 228 148 114 0 210-74 242-182 2-8 10-14 18-14 2 0 2 0 4 2 16 2 28 4 40 4 86 0 158-70 158-158 0-86-72-158-158-158h-92l-10-36h102c108 0 194 88 194 194 0 108-86 196-194 196zM656 346c-2 0-4 0-6 0-14 0-26-8-28-22l-14-52-18-64-6-22c-4-16 6-32 22-36 2 0 4 0 6 0 12 0 24 8 28 20l10 38 16 64 10 38c4 16-4 32-20 36zM554 414c-2 0-6 2-8 2-12 0-24-10-26-22l-34-122-16-64-20-78c-4-16 4-30 20-34 2-2 4-2 8-2 12 0 24 8 26 22l26 92 16 64 28 108c4 14-6 30-20 34zM416 346c-2 0-4 0-6 0-12 0-24-8-28-22l-14-52-16-64-6-22c-4-16 4-32 20-36 2 0 4 0 6 0 14 0 26 8 28 20l10 38 18 64 10 38c4 16-6 32-22 36z" />
<glyph unicode="&#xe0c2;" glyph-name="icons-for-font-03" d="M600 378c8 18 10 38 6 58-2 6-4 12-6 18l-54-72-72-54c8-4 16-6 26-8h12c6 0 14 0 20 2 10 2 20 6 30 12 18 10 30 26 38 44zM432 468c-14-22-20-46-14-72 2-6 4-12 6-18l54 72 72 54c-8 4-16 6-26 8h-12c-6 0-14 0-20-2-26-6-46-20-60-42zM384 894c6 8 12 14 22 16 8 2 16 0 24-6 10 8 14 14 12 22-2 12-14 16-32 16-4 0-8 0-12-2-10 0-20-4-26-12-6-6-8-12-8-18 4-8 10-12 20-16zM612 468v-2l120-4-108-50c0-14-4-30-10-44l46-48-64 22c-10-10-20-20-34-26l-4-120-50 108c-18 2-34 6-48 12l-196-148 148 196v2l-120 4 108 50c0 14 4 30 10 44l-46 48 64-22c10 10 20 20 34 26l4 120 50-108c18-2 34-6 48-12l196 148zM876 416c0 16-2 32-4 48l-80 12 70 42c-18 60-48 112-92 156-72 70-158 106-258 106-16 0-32-2-48-4l-12-80-42 70c-60-18-112-48-156-92-70-72-106-158-106-258 0-16 2-32 4-48l80-12-70-42c18-60 48-112 92-156 72-70 158-106 258-106 16 0 32 2 48 4l12 80 42-70c60 18 112 48 156 92 70 72 106 158 106 258zM850 754c94-94 140-206 140-338s-46-244-140-338c-94-94-206-140-338-140s-244 46-338 140c-94 94-140 206-140 338 0 108 32 204 96 290 66 84 150 142 250 170v2c-16 4-26 14-30 28-2 12 0 22 10 32 8 10 20 16 34 18 6 2 10 2 16 2 26 0 42-10 46-30 4-12-2-24-16-36 0 0 0-2 2-4 22 4 46 6 70 6 132 0 244-46 338-140z" />
<glyph unicode="&#xe0c3;" glyph-name="icons-for-font-04" d="M1018 596c0-14-2-38-4-74s-6-72-12-108c-8-34-20-74-38-118s-38-82-64-118c-26-36-62-68-108-100-44-30-96-52-152-66-30-8-62-12-94-14 0 0-4 0-8-2-26-2-52-2-78 0-166 14-290 94-376 242-40 70-62 138-68 202-4-20-6-36-8-48-4 76 2 136 18 184-12-20-20-38-26-56 10 60 24 108 42 142 2 8 10 22 24 44v6c-4 36 0 70 10 100s18 48 26 56c6 6 12 12 16 16 0-32 18-62 48-90 8-2 16-2 22-2 34 6 68 4 104-2 22 26 54 44 98 52l38 2c-40-22-62-54-70-96 14-32 34-46 58-46h44c22 0 34-2 34-6v-4c2-2 2-4 0-6v-4c0-14-6-24-14-30 0 0-2 0-2-2 0 0 0 0-2 0 0-2-6-6-16-12-16-10-30-20-38-26-18-10-26-18-26-22v-2h-2c4-8 6-18 8-30s2-18 2-22v-18c-16 8-32 14-46 16-18-8-30-16-32-26-2-4-2-10-4-16 0-24 18-48 54-68 14-10 30-16 44-16 16-2 28-2 36 2 8 2 20 6 32 12 12 4 22 8 26 10 40 10 72 0 98-28 8-8 10-16 6-24-6-6-12-8-22-6-4-2-6-2-8-2-2 2-4 0-8-2-6-2-8-2-10-4-2 0-6-2-10-6-6-2-8-4-12-6-2-2-6-4-12-10-6-4-12-6-16-8-16-12-38-20-68-26s-54-6-74 0c16-12 28-20 38-26 8-6 24-14 46-24 20-12 38-20 54-22 14-4 34-6 58-6 22 0 44 4 62 12 20 8 40 22 62 42 22 18 44 42 64 72 4 6 6 10 8 12 2 0-2-18-10-54-4-18-6-28-4-28 22 16 38 46 46 92 8 44 10 88 2 130 16-6 28-18 34-36l4-4c8 24 14 56 14 98 2 40-2 74-12 100 18-6 34-22 48-52-4 22-10 40-18 58s-16 34-26 46c-10 14-20 24-32 36s-24 20-34 28c-12 8-24 14-36 20s-22 10-32 14c-10 4-18 6-26 8s-14 4-18 4c-4 0-6 0-4 0 32 10 66 14 102 14-4 8-12 14-24 18-12 6-24 10-36 14-14 4-26 8-40 10-12 4-26 6-44 10h2c38 10 96 2 174-24 30-8 56-26 80-50s40-42 46-54c4-12 10-22 12-30v8c2 6 0 16-4 30-2 14-8 28-14 44 2 0 4 0 6-2s8-10 14-22c8-12 16-30 26-54 14-36 26-100 38-194l12 76c0-6 2-16 2-28z" />
<glyph unicode="&#xe0c4;" glyph-name="icons-for-font-05" d="M696 636h292c24-60 36-122 36-188 0-140-50-260-148-360s-218-150-358-152l210 362c30 46 46 96 46 150 0 74-26 136-78 188zM382 316c-38 38-56 82-56 132s18 94 56 130c36 38 80 56 130 56s94-18 132-56c36-36 54-80 54-130s-18-94-54-132c-38-36-82-54-132-54s-94 18-130 54zM258 514l-146 254c48 60 106 106 176 140s144 52 224 52c92 0 176-22 254-68s140-106 186-184h-418c-6 2-14 2-22 2-60 0-114-18-162-56-46-36-78-82-92-140zM582 196l-146-254c-124 18-228 76-310 172-84 94-126 206-126 334 0 90 22 174 66 252l208-364c22-44 54-80 96-108s90-42 142-42c24 0 48 4 70 10z" />
<glyph unicode="&#xe0c5;" glyph-name="icons-for-font-06" d="M730 850c90-36 162-94 214-176 32 86 30 148-4 182-38 40-108 36-210-6zM754 492c-2 50-24 94-60 128-38 36-82 54-134 54-50 0-94-18-132-54-38-34-58-78-60-128zM324 28c-94 58-160 138-198 240-62-122-70-206-24-252 40-40 114-36 222 12zM368 372v-4c0-32 6-64 22-96 18-32 42-56 74-76 32-18 66-28 104-28 40 0 74 10 106 28 30 20 56 44 74 76h248c-32-90-88-164-166-222-80-58-170-86-268-86-74 0-144 16-210 48-146-72-252-76-316-12-22 22-32 56-32 106 0 48 8 102 28 162 18 60 50 126 94 198s96 138 156 196c34 36 56 58 66 66-86-42-164-106-234-194 26 102 80 186 162 250 84 66 178 100 286 100 10 0 22-2 32-2 78 34 150 54 214 58s110-6 136-32c54-54 58-140 14-254 42-72 62-148 62-230 0-20-2-38-2-52h-650z" />
<glyph unicode="&#xe0c6;" glyph-name="icon-pdf" d="M460-4c-120 0-236 48-324 134-86 86-134 202-134 324s48 236 134 324c88 86 202 134 324 134s238-48 324-134c112-114 158-274 122-428l-52 12c32 136-8 278-108 378-158 158-414 158-572 0-76-76-118-178-118-286s42-210 118-286c86-86 202-128 322-118l4-52c-12-2-26-2-40-2zM338 638h138c46 0 82-16 108-50 24-30 34-68 34-116 0-36-6-70-20-100-24-52-64-78-122-78h-138zM466 334c16 0 28 2 38 6 18 6 32 16 44 34 10 14 16 32 20 54 2 12 2 24 2 36 0 42-8 76-24 100-16 22-44 34-80 34h-80v-264zM960 282h-298c-36 0-64-28-64-62v-172c0-34 28-64 64-64h298c36 0 64 30 64 64v172c0 34-28 62-64 62zM760 126c-6-6-16-8-30-8h-12v-48h-32v124h48c6 0 12-2 16-4s8-4 12-8c2-4 4-8 6-12s2-10 2-14c0-14-4-22-10-30zM864 108c0-6-2-14-4-18-2-6-6-12-12-14-4-4-12-6-22-6h-46v124h46c10 0 18-2 22-6 6-4 10-8 12-14s4-12 4-20c2-6 2-14 2-22s0-16-2-24zM952 166h-42v-20h38v-26h-38v-50h-32v124h74zM830 164c0 2-2 4-4 4-2 2-4 2-8 2h-6v-76h6c4 0 6 0 8 0 2 2 4 4 4 6 2 2 2 6 2 12 0 4 0 12 0 20s0 14 0 20c0 4 0 8-2 12zM732 156c2 0 4 0 6 0-2 10-6 14-14 14h-6v-30h2v16zM734 144c2 2 4 6 4 12 0 0 0 0 0 0-2 0-4 0-6 0h-12v-16h4c4 0 8 2 10 4z" />
<glyph unicode="&#xe0c7;" glyph-name="icons-for-font-08" d="M364 604l104-310 102 310h56l-132-362h-52l-134 362zM458-4c-120 0-236 48-322 134s-134 200-134 322c0 122 48 238 134 324s200 134 322 134c122 0 238-48 324-134 112-112 158-272 122-426l-52 12c32 136-8 278-108 376-158 158-414 158-570 0-78-76-120-178-120-286s42-208 120-284c84-86 200-128 320-118l4-52c-12-2-26-2-40-2zM960 282h-308c-36 0-64-28-64-64v-170c0-36 28-64 64-64h308c34 0 62 28 62 64v170c0 36-28 64-62 64zM870 132l-56-34-56-32v130l56-32z" />
<glyph unicode="&#xe0c9;" glyph-name="bt-panorama-96" d="M384 640c-18 0-34-8-46-18-10-12-18-28-18-46s8-34 18-46c12-10 28-18 46-18s34 8 46 18c10 12 18 28 18 46s-8 34-18 46c-12 10-28 18-46 18zM640 640c-18 0-34-8-46-18-10-12-18-28-18-46s8-34 18-46c12-10 28-18 46-18s34 8 46 18c10 12 18 28 18 46s-8 34-18 46c-12 10-28 18-46 18zM512 896c248 0 448-200 448-448s-200-448-448-448c-248 0-448 200-448 448s200 448 448 448zM512 960c-282 0-512-230-512-512s230-512 512-512c282 0 512 230 512 512s-230 512-512 512zM512 160c-38 0-76 8-112 22-34 16-66 36-92 62s-46 58-62 92c-6 16 2 36 18 42s34 0 42-18c10-26 28-50 48-70s44-38 70-48c56-24 120-24 176 0 26 10 50 28 70 48s38 44 48 70c8 18 26 24 42 18s24-26 18-42c-16-34-36-66-62-92s-58-46-92-62c-36-14-74-22-112-22z" />
<glyph unicode="&#xe0d2;" glyph-name="icon-csv" d="M460-4c-120 0-236 48-324 134-86 86-134 202-134 324s48 236 134 324c88 86 202 134 324 134s238-48 324-134c112-114 158-274 122-428l-52 12c32 136-8 278-108 378-158 158-414 158-572 0-76-76-118-178-118-286s42-210 118-286c86-86 202-128 322-118l4-52c-12-2-26-2-40-2zM338 638h138c46 0 82-16 108-50 24-30 34-68 34-116 0-36-6-70-20-100-24-52-64-78-122-78h-138zM466 334c16 0 28 2 38 6 18 6 32 16 44 34 10 14 16 32 20 54 2 12 2 24 2 36 0 42-8 76-24 100-16 22-44 34-80 34h-80v-264zM960 282h-298c-36 0-64-28-64-62v-172c0-34 28-64 64-64h298c36 0 64 30 64 64v172c0 34-28 62-64 62zM768 110c0-8 0-14-4-20-2-6-4-10-8-14-4-2-8-4-14-6-4 0-10-2-14-2-10 0-16 2-22 4s-10 6-14 10c-2 6-4 12-6 20s-2 18-2 30c0 12 0 22 2 30s4 14 8 20c2 4 8 8 14 10 4 2 12 4 20 4s14-2 18-4c6 0 10-4 12-6 4-4 6-8 8-14 0-4 2-10 2-16v-6h-22c0-2 0-2 0-4s0-4 0-6c-2 0-2-2-4-2s-4-2-6-2c-2 0-4 0-6 0h-10v20h12c2 0 4 0 4 0v0c0 6 0 12-2 14 0 2-4 4-6 4s-4 0-6-2c-2-2-2-4-4-6 0-4 0-8 0-14 0-4 0-12 0-20s0-16 0-20c0-6 0-10 0-14 2-2 2-6 4-6 2-2 4-2 6-2s4 0 4 2c2 0 2 2 4 4 0 2 0 6 2 10 0 4 0 8 0 14h30zM850 78c-8-6-18-10-32-10-8 0-14 2-18 2-6 2-10 4-14 6-2 2-6 6-8 10 0 4-2 10-2 16v4h32v-2c0-6 0-8 2-12 2-2 4-2 8-2 2 0 6 0 8 4 0 2 2 4 2 8s-2 6-4 10c-2 2-6 4-10 6-2 0-6 2-12 4-4 2-8 4-12 8-4 2-6 6-8 10-4 4-4 10-4 18 0 12 4 22 10 28s16 10 30 10c14 0 24-4 30-10s10-14 10-28h-30v2c0 4-2 8-2 10-2 2-4 4-8 4-2 0-6-2-6-4-2-2-4-4-4-6 0-4 2-8 4-10 4-2 6-4 10-6s8-4 12-6c6-2 10-4 14-6 4-4 6-8 8-12 4-4 4-10 4-18 0-14-2-22-10-28zM930 70h-42l-26 124h34l14-94 12 94h34zM736 156c0 0-2 0-4 0h-12v-20h10c2 0 4 0 6 0s4 2 6 2c2 0 2 2 4 2 0 2 0 4 0 6s0 2 0 4h-10z" />
<glyph unicode="&#xe900;" glyph-name="attorney" horiz-adv-x="731" d="M702.171 53.029c-146.286-36.571-292.571-73.143-442.514-102.4-54.857-10.971-106.057-14.629-160.914-14.629-14.629 0-29.257 3.657-43.886 3.657-18.286 3.657-18.286 14.629-18.286 14.629v3.657c14.629 146.286 54.857 288.914 113.371 424.229 47.543 113.371 106.057 215.771 186.514 310.857 47.543 54.857 95.086 106.057 157.257 142.629 3.657 3.657 3.657 3.657 3.657 7.314-21.943-10.971-43.886-21.943-65.829-36.571-113.371-73.143-201.143-175.543-270.629-292.571-54.857-91.429-91.429-197.486-120.686-303.543-7.314-14.629-10.971-7.314-14.629 0-21.943 62.171-29.257 124.343-21.943 186.514 18.286 223.086 131.657 380.343 321.829 482.743 40.229 21.943 80.457 40.229 124.343 51.2 69.486 21.943 153.6 25.6 197.486 29.257 10.971 0 18.286-10.971 10.971-18.286-21.943-36.571-40.229-106.057-43.886-106.057-7.314-25.6-14.629-54.857-18.286-80.457 0-3.657 0-7.314-3.657-10.971-10.971-51.2-146.286-98.743-146.286-98.743l128 7.314c-7.314-32.914-18.286-62.171-29.257-87.771 0-3.657-3.657-7.314-3.657-7.314-43.886-109.714-91.429-168.229-98.743-171.886-43.886-58.514-95.086-106.057-153.6-146.286-43.886-29.257-91.429-58.514-135.314-87.771-3.657-3.657-7.314-3.657-7.314-7.314s-3.657-3.657-3.657-7.314l-84.114-168.229 98.743 10.971c193.829 7.314 387.657 47.543 577.829 80.457-14.629 0-21.943-3.657-32.914-7.314z" />
<glyph unicode="&#xe901;" glyph-name="doc" horiz-adv-x="768" d="M512 960c-3.657 0-10.971 0-14.629-3.657-14.629-7.314-21.943-18.286-21.943-32.914v-182.857c0-43.886 29.257-73.143 73.143-73.143h182.857c14.629 0 29.257 7.314 32.914 21.943 7.314 14.629 3.657 29.257-7.314 40.229l-219.429 219.429c-7.314 7.314-14.629 10.971-25.6 10.971zM512 923.429l219.429-219.429h-182.857c-25.6 0-36.571 10.971-36.571 36.571v182.857zM512 960h-475.429c-21.943 0-36.571-14.629-36.571-36.571v-950.857c0-21.943 14.629-36.571 36.571-36.571h694.857c21.943 0 36.571 14.629 36.571 36.571v731.429c0 10.971-3.657 18.286-10.971 25.6l-219.429 219.429c-7.314 7.314-14.629 10.971-25.6 10.971zM512 923.429l219.429-219.429v-731.429h-694.857v950.857h475.429z" />
<glyph unicode="&#xe902;" glyph-name="fa-docs" horiz-adv-x="768" d="M512 960c-3.657 0-10.971 0-14.629-3.657-14.629-7.314-21.943-18.286-21.943-32.914v-182.857c0-43.886 29.257-73.143 73.143-73.143h182.857c14.629 0 29.257 7.314 32.914 21.943 7.314 14.629 3.657 29.257-7.314 40.229l-219.429 219.429c-7.314 7.314-14.629 10.971-25.6 10.971zM512 923.429l219.429-219.429h-182.857c-25.6 0-36.571 10.971-36.571 36.571v182.857zM512 960h-475.429c-21.943 0-36.571-14.629-36.571-36.571v-950.857c0-21.943 14.629-36.571 36.571-36.571h694.857c21.943 0 36.571 14.629 36.571 36.571v731.429c0 10.971-3.657 18.286-10.971 25.6l-219.429 219.429c-7.314 7.314-14.629 10.971-25.6 10.971zM512 923.429l219.429-219.429v-731.429h-694.857v950.857h475.429zM274.286 338.286h-73.143c-10.971 0-18.286-7.314-18.286-18.286v-146.286c0-10.971 7.314-18.286 18.286-18.286h73.143c10.971 0 18.286 7.314 18.286 18.286v146.286c0 10.971-7.314 18.286-18.286 18.286zM420.571 448h-73.143c-10.971 0-18.286-7.314-18.286-18.286v-256c0-10.971 7.314-18.286 18.286-18.286h73.143c10.971 0 18.286 7.314 18.286 18.286v256c0 10.971-7.314 18.286-18.286 18.286zM566.857 557.714h-73.143c-10.971 0-18.286-7.314-18.286-18.286v-365.714c0-10.971 7.314-18.286 18.286-18.286h73.143c10.971 0 18.286 7.314 18.286 18.286v365.714c0 10.971-7.314 18.286-18.286 18.286zM585.143 118.857h-402.286v-36.571h402.286v36.571z" />
<glyph unicode="&#xe903;" glyph-name="fa" horiz-adv-x="901" d="M204.8 427.52h-163.84c-24.576 0-40.96-16.384-40.96-40.96v-286.72c0-24.576 16.384-40.96 40.96-40.96h163.84c24.576 0 40.96 16.384 40.96 40.96v286.72c0 24.576-16.384 40.96-40.96 40.96zM532.48 714.24h-163.84c-24.576 0-40.96-16.384-40.96-40.96v-573.44c0-24.576 16.384-40.96 40.96-40.96h163.84c24.576 0 40.96 16.384 40.96 40.96v573.44c0 24.576-16.384 40.96-40.96 40.96zM860.16 960h-163.84c-24.576 0-40.96-16.384-40.96-40.96v-819.2c0-24.576 16.384-40.96 40.96-40.96h163.84c24.576 0 40.96 16.384 40.96 40.96v819.2c0 24.576-16.384 40.96-40.96 40.96zM901.12-23.040h-901.12v-40.96h901.12v40.96z" />
<glyph unicode="&#xe904;" glyph-name="get-started" horiz-adv-x="918" d="M254.234 296.166c38.841 42.372 70.621 74.152 98.869 98.869-31.779 31.779-56.497 67.090-74.152 105.931-31.779-60.028-56.497-123.586-67.090-180.083 14.124-7.062 28.248-14.124 42.372-24.717v0zM413.131 359.724c-7.062 7.062-67.090-14.124-155.366-137.71-45.903-63.559-88.276-130.648-116.524-169.49 35.31 31.779 98.869 84.745 155.366 137.71 105.931 95.338 123.586 162.428 116.524 169.49v0zM158.897 349.131c14.124 60.028 35.31 130.648 60.028 183.614-74.152 17.655-148.303-35.31-183.614-109.462s-42.372-148.303-28.248-240.11c10.593 74.152 24.717 116.524 56.497 151.834 28.248 31.779 70.621 24.717 95.338 14.124v0zM522.593 260.855c-42.372 14.124-84.745 35.31-123.586 63.559-17.655-31.779-45.903-67.090-84.745-112.993 10.593-14.124 21.186-24.717 28.248-38.841 60.028 21.186 120.055 49.434 180.083 88.276v0zM391.945 133.738c14.124-21.186 28.248-63.559 0-95.338-31.779-35.31-70.621-56.497-144.772-77.683 95.338-3.531 165.959 14.124 236.579 60.028s112.993 127.117 84.745 197.738c-49.434-31.779-120.055-63.559-176.552-84.745v0zM889.821 960c-158.897-7.062-367.228-120.055-476.69-243.641-49.434-56.497-95.338-120.055-130.648-180.083 24.717-56.497 60.028-105.931 105.931-148.303 49.434-45.903 109.462-74.152 173.021-88.276 60.028 42.372 116.524 95.338 169.49 155.366 102.4 112.993 173.021 349.572 158.897 504.938v0zM713.269 603.366c-38.841-42.372-102.4-45.903-144.772-10.593-42.372 38.841-45.903 102.4-10.593 144.772s102.4 45.903 144.772 7.062c42.372-35.31 45.903-98.869 10.593-141.241v0z" />
<glyph unicode="&#xe905;" glyph-name="invest" horiz-adv-x="914" d="M365.714 842.971c0 58.514 117.029 102.4 259.657 102.4s259.657-47.543 259.657-102.4c0-58.514-117.029-102.4-259.657-102.4s-259.657 43.886-259.657 102.4v0zM625.371 217.6c-18.286 0-36.571 0-51.2 3.657v-102.4c18.286 0 32.914-3.657 51.2-3.657 142.629 0 259.657 47.543 259.657 102.4v102.4c3.657-54.857-113.371-102.4-259.657-102.4v0zM625.371 532.114c-18.286 0-36.571 0-51.2 3.657 0 0 0 0 0-3.657v-102.4c18.286 0 32.914-3.657 51.2-3.657 142.629 0 259.657 47.543 259.657 102.4v102.4c3.657-54.857-113.371-98.743-259.657-98.743v0zM625.371 685.714c-142.629 0-259.657 47.543-259.657 102.4v-102.4c0-3.657 0-7.314 0-10.971 84.114-14.629 153.6-47.543 186.514-91.429 21.943-3.657 47.543-3.657 73.143-3.657 142.629 0 259.657 47.543 259.657 102.4v102.4c3.657-51.2-113.371-98.743-259.657-98.743v0zM625.371 374.857c-18.286 0-36.571 0-51.2 3.657v-102.4c18.286 0 32.914-3.657 51.2-3.657 142.629 0 259.657 47.543 259.657 102.4v102.4c3.657-54.857-113.371-102.4-259.657-102.4v0zM522.971 532.114c0-58.514-117.029-102.4-259.657-102.4s-259.657 47.543-259.657 102.4c0 58.514 117.029 102.4 259.657 102.4s259.657-47.543 259.657-102.4v0zM263.314 374.857c-142.629 0-259.657 47.543-259.657 102.4v-102.4c0-58.514 117.029-102.4 259.657-102.4s259.657 47.543 259.657 102.4v102.4c0-54.857-117.029-102.4-259.657-102.4v0zM263.314 217.6c-142.629 0-259.657 47.543-259.657 102.4v-102.4c0-58.514 117.029-102.4 259.657-102.4s259.657 47.543 259.657 102.4v102.4c0-54.857-117.029-102.4-259.657-102.4v0zM263.314 64c-142.629 0-259.657 47.543-259.657 102.4v-102.4c0-58.514 117.029-102.4 259.657-102.4s259.657 47.543 259.657 102.4v102.4c0-58.514-117.029-102.4-259.657-102.4v0z" />
<glyph unicode="&#xe906;" glyph-name="bell" d="M982.4 158.4c0-19.2-7.2-36.8-21.6-51.2s-31.2-21.6-51.2-21.6h-252.8c0-40-14.4-74.4-42.4-102.4s-62.4-42.4-102.4-42.4c-40 0-74.4 14.4-102.4 42.4s-42.4 62.4-42.4 102.4h-253.6c-20 0-36.8 7.2-51.2 21.6s-21.6 31.2-21.6 51.2c19.2 16 36 32.8 51.2 49.6 15.2 17.6 31.2 40 48 67.2 16.8 28 30.4 57.6 42.4 89.6 11.2 32 20.8 71.2 28 116.8s11.2 94.4 11.2 147.2c0 57.6 22.4 110.4 66.4 160s101.6 79.2 173.6 89.6c-3.2 7.2-4.8 14.4-4.8 22.4 0 15.2 5.6 28 16 38.4s23.2 16 38.4 16c15.2 0 28-5.6 38.4-16s16-23.2 16-38.4c0-7.2-1.6-15.2-4.8-22.4 72-10.4 129.6-40.8 173.6-89.6s66.4-102.4 66.4-160c0-52 4-101.6 11.2-147.2s16.8-84.8 28-116.8c11.2-32 25.6-61.6 42.4-89.6s32.8-50.4 48-67.2c16-16.8 32.8-33.6 52-49.6zM520.8-4c0 6.4-3.2 8.8-8.8 8.8-22.4 0-41.6 8-57.6 24s-24 35.2-24 57.6c0 6.4-3.2 8.8-8.8 8.8-6.4 0-8.8-3.2-8.8-8.8 0-27.2 9.6-51.2 28.8-70.4s43.2-28.8 70.4-28.8c6.4-0.8 8.8 2.4 8.8 8.8z" />
<glyph unicode="&#xe907;" glyph-name="bookmark" d="M863.2 956.8c10.4 0 20-2.4 29.6-6.4 14.4-5.6 26.4-15.2 35.2-27.2 8.8-12.8 12.8-26.4 12.8-41.6v-864c0-15.2-4-28.8-12.8-41.6s-20.8-21.6-35.2-27.2c-8.8-3.2-18.4-5.6-29.6-5.6-21.6 0-40 7.2-56 21.6l-295.2 284-296-284c-16-14.4-34.4-22.4-56-22.4-10.4 0-20 2.4-29.6 6.4-14.4 5.6-26.4 15.2-35.2 27.2-8.8 12.8-12.8 26.4-12.8 41.6v864c0 15.2 4 28.8 12.8 41.6s20.8 21.6 35.2 27.2c9.6 4 19.2 6.4 29.6 6.4h703.2z" />
<glyph unicode="&#xe908;" glyph-name="globe-thin" d="M512-64c-282.508 0-512 229.492-512 512s229.492 512 512 512 512-229.492 512-512-229.492-512-512-512zM512 872.851c-234.576 0-424.851-190.275-424.851-424.851s190.275-424.851 424.851-424.851 424.851 191.001 424.851 424.851c0 234.576-191.001 424.851-424.851 424.851zM512-64c-155.416 0-277.424 225.135-277.424 512s121.282 512 277.424 512c155.416 0 277.424-225.135 277.424-512s-122.009-512-277.424-512zM512 872.851c-44.301 0-90.78-41.396-126.366-113.294-41.396-82.791-63.909-193.18-63.909-311.557s22.513-229.492 63.909-311.557c35.586-71.898 82.065-113.294 126.366-113.294s90.78 41.396 126.366 113.294c41.396 82.791 63.909 193.18 63.909 311.557s-22.513 229.492-63.909 311.557c-35.586 71.898-82.065 113.294-126.366 113.294zM512-64c-10.167 0-42.848 3.631-44.301 52.289 0 6.536 0 15.977-0.726 27.597 0 23.966-0.726 58.099-0.726 100.948-0.726 88.601-0.726 206.252-0.726 331.166s0 242.565 0.726 331.166c0 42.848 0.726 76.982 0.726 100.948 0 12.346 0 21.787 0.726 27.597 1.452 48.658 34.133 52.289 44.301 52.289s42.848-3.631 44.301-52.289c0-6.536 0-15.977 0.726-27.597 0-23.966 0.726-58.099 0.726-100.948 0.726-88.601 0.726-206.252 0.726-331.166s0-242.565-0.726-331.166c0-42.848-0.726-76.982-0.726-100.948 0-12.346 0-21.787-0.726-27.597-1.452-48.658-34.133-52.289-44.301-52.289zM512 287.501c-128.545 0-249.827 12.346-342.060 35.586-114.020 28.323-169.94 69.719-169.94 124.913 0 23.966 19.609 43.574 43.574 43.574 22.513 0 41.396-17.43 43.574-39.943 20.335-28.323 175.75-76.982 424.851-76.982s404.516 48.658 424.851 76.982c1.452 22.513 20.335 39.943 43.574 39.943 23.966 0 43.574-19.609 43.574-43.574 0-55.194-55.921-96.59-169.94-124.913-92.233-23.24-213.515-35.586-342.060-35.586zM512 551.852c-103.126 0-200.443 5.81-273.793 15.977-72.624 10.167-151.058 25.418-151.058 80.613 0 23.966 21.061 43.574 47.206 43.574 17.43 0 31.955-8.715 40.67-21.787 30.502-12.346 147.427-31.228 337.702-31.228s307.2 18.882 337.702 31.228c7.989 13.072 23.24 21.787 40.67 21.787 25.418 0 47.206-19.609 47.206-43.574 0-54.468-76.982-70.445-151.058-80.613s-172.119-15.977-275.245-15.977z" />
</font>
</defs>
</svg>
