<?xml version="1.0" standalone="no"?>
<!DOCTYPE svg PUBLIC "-//W3C//DTD SVG 1.1//EN" "http://www.w3.org/Graphics/SVG/1.1/DTD/svg11.dtd" >
<!--
2015-8-4: Created with FontForge (http://fontforge.org)
-->
<svg xmlns="http://www.w3.org/2000/svg" xmlns:xlink="http://www.w3.org/1999/xlink" version="1.1">
<metadata>
Created by FontForge 20150618 at Tue Aug  4 12:01:47 2015
 By Chris Agiasotis
Copyright (c) 2015, Chris Agiasotis
</metadata>
<defs>
<font id="icons" horiz-adv-x="512" >
  <font-face 
    font-family="icons"
    font-weight="400"
    font-stretch="normal"
    units-per-em="512"
    panose-1="2 0 5 3 0 0 0 0 0 0"
    ascent="448"
    descent="-64"
    bbox="-9.42871 -66.2705 667.826 453.657"
    underline-thickness="25.6"
    underline-position="-51.2"
    unicode-range="U+0020-F13D"
  />
    <missing-glyph />
    <glyph glyph-name="space" unicode=" " horiz-adv-x="200" 
 />
    <glyph glyph-name="uniF126" unicode="&#xf126;" 
d="M242.328 -37.5986c-64.1182 0 -125.407 25.459 -171.61 70.7188c-45.2588 46.2021 -70.7178 107.491 -70.7178 172.552c0 65.0615 25.459 125.407 70.7178 171.61c46.2031 45.2588 107.492 70.7178 171.61 70.7178c65.0605 0 125.406 -25.459 171.609 -70.7178
c59.4033 -59.4033 83.9189 -144.266 65.0605 -226.299c-1.88574 -7.54297 -9.42871 -12.2578 -16.9727 -10.3721c-7.54297 1.88574 -12.2578 9.42871 -10.3721 16.9727c16.9727 72.6035 -4.71387 147.094 -57.5166 199.896c-83.9189 83.9189 -219.698 83.9189 -302.675 0
c-40.5449 -41.4883 -63.1748 -95.2334 -63.1748 -151.809c0 -56.5742 22.6299 -111.263 63.1748 -151.809c45.2598 -45.2588 107.492 -67.8887 170.667 -62.2314c7.54297 0.942383 15.0869 -4.71484 15.0869 -13.2012
c0.942383 -7.54297 -4.71484 -15.0859 -13.2012 -15.0859c-7.54297 0 -14.1436 -0.943359 -21.6865 -0.943359zM400.736 359.366zM447.882 3.88965c0 -17.915 -13.2002 -30.1729 -33.002 -33.002v0v-15.0869c0 -5.65723 -5.65723 -10.3721 -12.2578 -9.42871
c-5.65723 0 -10.3721 4.71484 -10.3721 10.3721v15.0869v0.942383c-16.9717 4.71484 -27.3438 16.0293 -27.3438 31.1162c0 6.60059 6.60059 11.3145 14.1436 9.42871c5.65723 -1.88574 8.48633 -5.65723 8.48633 -10.3721c0 -11.3145 14.1436 -12.2578 19.8008 -12.2578
s19.8008 1.88574 19.8008 13.2012c0 6.60059 -0.942383 8.48633 -19.8008 16.0293l-9.42871 3.77148c-18.8584 7.54297 -33.002 14.1436 -33.002 33.9453c0 15.0859 10.3721 27.3438 27.3438 31.1152v0.943359v12.2578c0 5.65723 5.6582 10.3721 12.2578 9.42871
c5.6582 0 10.3721 -4.71387 10.3721 -10.3721v-11.3145v0c20.7441 -1.88574 33.9453 -14.1436 33.9453 -32.0586c0 -5.6582 -6.60059 -10.3721 -13.2012 -9.42969c-6.59961 0.943359 -10.3721 5.65723 -10.3721 10.3721
c-0.942383 11.3154 -14.1436 12.2578 -19.8008 12.2578s-19.8008 -1.88574 -19.8008 -13.2002c0 -6.60059 1.88574 -8.48633 19.8008 -16.0303l9.42871 -3.77148c18.8584 -7.54297 33.002 -14.1436 33.002 -33.9443zM190.468 304.678h109.378v-21.6865h-82.9766v-67.8896
h76.376v-21.6875h-76.376v-92.4053h-26.4014v203.669z" />
    <glyph glyph-name="uniF107" unicode="&#xf107;" 
d="M403.2 195.2c0 -41.5234 -14.6885 -76.9668 -44.0645 -106.343c-29.376 -29.3691 -64.832 -44.0576 -106.336 -44.0576c-41.5234 0 -76.9658 14.6885 -106.342 44.0576c-29.3701 29.376 -44.0576 64.8193 -44.0576 106.343c0 41.5098 14.6875 76.96 44.0576 106.336
c29.376 29.376 64.8184 44.0635 106.342 44.0635c41.5039 0 76.96 -14.6875 106.336 -44.0635s44.0645 -64.8262 44.0645 -106.336zM321.088 202.112l-68.2881 68.2881c-10.3867 10.3809 -27.2188 10.3809 -37.5996 0v0c-10.3877 -10.3877 -10.3877 -27.2197 0 -37.6006
l37.5996 -37.5996l-37.5996 -37.6006c-10.3877 -10.3867 -10.3877 -27.2188 0 -37.5996v0c10.3809 -10.3867 27.2129 -10.3867 37.5996 0l68.2881 68.2881c3.81445 3.81445 3.81445 10.0029 0 13.8242z" />
    <glyph glyph-name="uniF119" unicode="&#xf119;" 
d="M422.848 91.7568c0 -33.1777 -26.918 -60.0957 -60.0762 -60.0957h-200.346c-33.1582 0 -60.0771 26.918 -60.0771 60.0957v200.313c0 33.1709 26.9189 60.0898 60.0771 60.0898h200.346c33.1582 0 60.0762 -26.9189 60.0762 -60.0898v-200.313zM300.384 305.427
h-55.3086c-34.4316 0 -70.9375 -21.0811 -70.9375 -59.0527c0 -26.291 20.6523 -45.0752 46.5146 -45.0752c2.91895 0 6.04883 0.211914 8.97363 0.621094c-1.67676 -3.74414 -2.70801 -7.30273 -2.70801 -11.2578c0 -7.93555 3.55859 -13.5674 8.33301 -19.6152
c-17.9131 -1.25488 -38.1758 -3.5459 -53.5996 -13.1465c-12.3203 -7.72461 -21.7158 -20.2432 -21.7158 -35.0586c0 -31.085 35.252 -41.3057 60.5059 -41.3057c32.1475 0 73.6709 16.2686 73.6709 54.4512c0 36.9404 -40.915 43.6221 -40.915 60.9277
c0 16.8965 31.3018 21.082 31.3018 55.501c0 18.374 -7.9043 27.5459 -19.8018 39.6543h17.3057zM234.003 93.626c-21.4717 0 -49.248 9.40137 -49.248 35.2705c0 27.334 31.9365 34.2207 53.6318 34.2207c2.09961 0 4.16699 0 6.47754 -0.422852
c12.7168 -9.1709 30.4512 -20.0322 30.4512 -37.9648c0 -22.9502 -21.4785 -31.1035 -41.3125 -31.1035zM233.792 209.434c-23.7891 0 -35.04 31.3027 -35.04 51.123c0 15.6484 8.14746 30.6758 25.8818 30.6758c23.7891 0 35.2578 -33.1719 35.2578 -52.7939
c0 -15.8467 -8.97363 -29.0049 -26.0996 -29.0049zM369.434 198.592v13.3506h-26.707v26.707h-13.3574v-26.707h-26.707v-13.3506h26.707v-33.3887h13.3574v33.3887h26.707z" />
    <glyph glyph-name="uniF105" unicode="&#xf105;" 
d="M122.471 159.764c-1.75391 2.64941 -1.01758 6.20801 1.6377 7.94824l247.872 162.516l-35.9736 3.98047c-3.16211 0.351562 -5.44043 3.1875 -5.09473 6.34277c0.358398 3.14844 3.26367 5.41406 6.36133 5.06836l51.8398 -5.74121
c0.0966797 -0.0126953 0.166992 -0.0703125 0.255859 -0.0830078c0.40332 -0.0576172 0.774414 -0.217773 1.15918 -0.371094c0.319336 -0.121094 0.646484 -0.210938 0.94043 -0.383789c0.294922 -0.179688 0.524414 -0.441406 0.787109 -0.671875
c0.307617 -0.268555 0.614258 -0.525391 0.851562 -0.857422c0.0507812 -0.0703125 0.133789 -0.109375 0.185547 -0.179688c0.140625 -0.223633 0.166016 -0.473633 0.28125 -0.704102c0.179688 -0.371094 0.358398 -0.722656 0.454102 -1.13281
c0.0966797 -0.383789 0.0966797 -0.761719 0.102539 -1.15137c0.0126953 -0.275391 0.109375 -0.525391 0.0771484 -0.800781l-5.75977 -51.6543c-0.326172 -2.93066 -2.8291 -5.10059 -5.72168 -5.10059c-0.210938 0 -0.428711 0.00683594 -0.640625 0.0322266
c-3.16113 0.351562 -5.43945 3.1875 -5.09375 6.3418l4.40918 39.501l-250.957 -164.537c-0.972656 -0.640625 -2.07324 -0.947266 -3.16113 -0.947266c-1.875 0 -3.71191 0.908203 -4.8125 2.58594zM428.8 18.5342c0 -3.16797 -2.5791 -5.74023 -5.75977 -5.74023h-23.04
h-46.0801h-34.5596h-46.0801h-34.5605h-46.0801h-34.5596h-46.0801h-23.04c-3.18066 0 -5.75977 2.57227 -5.75977 5.74023c0 3.1748 2.5791 5.74121 5.75977 5.74121h17.2803v40.1729c0 3.16797 2.5791 5.73438 5.75977 5.73438h46.0801
c3.18066 0 5.75977 -2.56641 5.75977 -5.73438v-40.1729h23.04v97.5615c0 3.16797 2.5791 5.73438 5.75977 5.73438h46.0801c3.18066 0 5.76074 -2.56641 5.76074 -5.73438v-97.5615h23.0391v154.95c0 3.16797 2.58008 5.73438 5.76074 5.73438h46.0801
c3.18066 0 5.75977 -2.56641 5.75977 -5.73438v-154.95h23.04v212.339c0 3.16797 2.5791 5.73438 5.75977 5.73438h46.0801c3.18066 0 5.75977 -2.56641 5.75977 -5.73438v-212.339h17.2803c3.18066 0 5.75977 -2.56641 5.75977 -5.74121zM152.32 58.707h-34.5605v-34.4316
h34.5605v34.4316zM232.96 116.096h-34.5596v-91.8203h34.5596v91.8203zM313.6 173.484h-34.5596v-149.209h34.5596v149.209zM394.24 230.874h-34.5605v-206.599h34.5605v206.599z" />
    <glyph glyph-name="uniF13D" unicode="&#xf13d;" 
d="M247.467 277.333c93.8662 0 170.667 -76.7998 170.667 -170.666c0 -93.8672 -76.8008 -170.667 -170.667 -170.667c-93.8672 0 -170.667 76.7998 -170.667 170.667c0 93.8662 76.7998 170.666 170.667 170.666zM247.467 -46.9336c84.4795 0 153.6 69.1201 153.6 153.601
c0 84.4795 -69.1201 153.6 -153.6 153.6c-84.4805 0 -153.601 -69.1201 -153.601 -153.6c0 -84.4805 69.1201 -153.601 153.601 -153.601zM341.333 140.8c3.41406 0 6.82715 -2.55957 7.68066 -5.12012c0.852539 -3.41309 0 -6.82617 -2.56055 -9.38672l-46.9336 -39.2529
l23.8936 -71.6797c1.70703 -3.41406 0 -6.82715 -2.55957 -9.38672c-1.70703 -0.853516 -3.41309 -1.70703 -5.12012 -1.70703h-4.2666l-64 40.1064l-64 -40.1064c-2.56055 -1.70703 -6.82715 -1.70703 -9.38672 0.853516
c-2.56055 2.55957 -3.41309 5.97363 -2.56055 9.38672l23.8936 71.6797l-46.9326 39.2539c-2.56055 2.55957 -3.41406 5.97266 -2.56055 9.38672c0.853516 3.41309 4.2666 5.97266 7.67969 5.97266h54.6133l31.5742 63.1465c2.55957 5.97363 12.7998 5.97363 15.3594 0
l31.5732 -63.1465h54.6133zM285.014 96.4268l32.4268 27.3066h-35.8408c-3.41309 0 -5.97266 2.55957 -7.67969 5.12012l-26.4531 52.9062l-26.4531 -52.9062c-1.70703 -3.41309 -4.2666 -5.12012 -7.68066 -5.12012h-35.8398l33.2803 -27.3066
c2.55957 -2.56055 3.41309 -5.97363 2.55957 -9.38672l-17.9199 -54.6133l47.7871 29.8662c0.853516 0.853516 2.55957 1.70703 4.2666 1.70703c1.70605 0 3.41309 -0.853516 5.12012 -1.70703l47.7861 -29.8662l-17.9199 54.6133
c-0.853516 3.41309 0 6.82617 2.56055 9.38672zM493.227 443.733c1.70703 -2.56055 2.56055 -5.12012 0.853516 -7.67969l-85.333 -179.2c-1.70703 -3.41309 -4.2666 -5.12012 -7.68066 -5.12012c-0.853516 0 -2.55957 0 -2.55957 0.853516
c-4.2666 1.70605 -5.97363 6.82617 -4.2666 11.0928l79.3594 167.254h-40.96l-66.5596 -148.48c0 -0.853516 -0.853516 -1.70605 -1.70703 -2.55957c0 -0.853516 -0.853516 -0.853516 -0.853516 -0.853516c-0.852539 0 -0.852539 -0.853516 -1.70605 -0.853516h-0.853516
c-0.853516 -0.853516 -1.70703 -0.853516 -2.55957 -0.853516v0c-0.853516 0 -2.56055 0 -4.2666 0.853516c-4.26758 1.70703 -5.97363 6.82715 -4.26758 11.0938l63.1475 141.653h-32.4268l-57.1738 -122.88c-1.70605 -4.2666 -6.82617 -5.97363 -11.0928 -4.2666
c-4.2666 1.70605 -5.97363 6.82617 -4.2666 11.0928l59.7334 128c1.70605 3.41309 4.2666 5.12012 7.67969 5.12012h51.2002h59.7334c2.55957 0 5.97266 -1.70703 6.82617 -4.2666zM93.8662 251.733c-3.41309 0 -5.97266 1.70703 -7.67969 5.12012l-85.333 179.2
c-1.70703 2.55957 -0.853516 5.11914 0.853516 7.67969c0.852539 2.55957 4.2666 4.2666 6.82617 4.2666h59.7334h51.2002c3.41309 0 5.97363 -1.70703 6.82617 -5.12012l59.7334 -128c1.70703 -4.2666 0 -9.38672 -4.2666 -11.0928
c-4.2666 -1.70703 -9.38672 0 -11.0928 4.2666l-57.1738 122.88h-32.4268l63.1465 -141.653c1.70703 -4.2666 0 -9.38672 -4.2666 -11.0938c-0.852539 -0.853516 -2.55957 -0.853516 -3.41309 -0.853516v0c-0.853516 0 -1.70605 0.853516 -2.55957 0.853516h-0.853516
c-0.853516 0 -0.853516 0 -1.70703 0.853516c0 0.853516 -0.853516 0.853516 -0.853516 0.853516c-0.852539 0.853516 -0.852539 1.70605 -1.70605 2.55957l-65.707 148.48h-40.96l79.3604 -167.254c1.70605 -4.2666 0 -9.38672 -4.2666 -11.0928
c-0.853516 -0.853516 -2.56055 -0.853516 -3.41406 -0.853516z" />
    <glyph glyph-name="uniF11C" unicode="&#xf11c;" 
d="M440.602 263.309l-191.712 -191.705c-10.0732 -10.0801 -26.4131 -10.0801 -36.4863 0c-1.10059 1.09375 -2.0293 2.29688 -2.88672 3.52637c-1.50391 0.972656 -2.94336 2.09277 -4.26172 3.41113l-88.3145 88.3135c-9.99609 9.99707 -9.99609 26.208 0 36.2051
c9.99707 9.99609 26.208 9.99609 36.2051 0l77.1133 -77.1143l173.85 173.856c10.0801 10.0732 26.4131 10.0732 36.4932 0c10.0732 -10.0801 10.0732 -26.4131 0 -36.4932z" />
    <glyph glyph-name="uniF103" unicode="&#xf103;" 
d="M344.749 280.749v11.0908h11.0908v-11.0908h-11.0908zM311.469 280.749v11.0908h11.0908v-11.0908h-11.0908zM369.414 225.28l-57.708 -64.4229v64.4229h-22.4258v11.0908h33.5225v-46.502l41.6514 46.502h46.8545v110.932h-199.68v-49.9141h-11.0977v61.0117h221.869
v-133.12h-52.9863zM278.188 291.84h11.0918v-11.0908h-11.0918v11.0908zM252.436 235.303c3.36621 -13.4531 -1.35059 -25.6514 -4.41602 -32.8135c4.4541 -2.87305 7.14844 -8.5625 7.14844 -15.8975c0 -8.04492 -3.20605 -16.3008 -8.7998 -19.6094
c-0.8125 -21.1074 -7.96191 -29.9844 -12.5566 -33.5361v-20.915c16.377 -6.73242 34.4766 -15.4629 49.1201 -23.7061c28.5371 -16.0762 28.5371 -21.2861 28.5371 -24.3965v-33.2803c0 -3.06543 -2.4834 -5.54883 -5.54883 -5.54883h-210.771
c-3.06543 0 -5.54883 2.4834 -5.54883 5.54883v33.2803c0 3.11035 0 8.32031 28.5381 24.3965c14.6367 8.24316 32.7422 16.9736 49.1133 23.7061v20.71c-5.13281 3.4502 -13.5361 12.2627 -14.5986 33.248c-6.37402 2.54102 -10.5977 9.55566 -10.5977 18.5156
c0 4.74902 1.26074 9.26074 3.55176 12.6914c1.4082 2.11133 3.15527 3.77539 5.1582 4.9209c-0.0195312 0.0449219 -0.0380859 0.0898438 -0.0507812 0.12793c-4.10938 9.2041 -10.3174 23.1113 -4.81348 31.5977c1.88184 2.90527 6.04883 6.39941 14.5479 5.74023
c7.16113 14.957 28.1279 20.4102 45.1328 20.4102c18.7129 0 42.208 -6.59863 46.8545 -25.1904zM169.484 232.608c-0.716797 -2.88086 -3.57715 -4.69141 -6.48926 -4.08398c-4.00586 0.813477 -7.23145 0.633789 -7.78906 -0.216797
c-2.2207 -3.43066 3.68652 -16.6855 5.63281 -21.0371c1.91992 -4.30078 2.7959 -6.26562 2.7959 -8.27539c0 -3.06543 -2.48242 -5.54883 -5.54883 -5.54883c-3.62207 0 -4.94043 -5.0498 -4.94043 -8.44141s1.31836 -8.44141 4.94043 -8.44141
c3.06641 0 5.54883 -2.4834 5.54883 -5.54297c0 -24.8379 10.6504 -29.1387 10.7588 -29.1709c2.34277 -0.704102 3.95508 -2.86719 3.95508 -5.31836v-27.7314c0 -2.26562 -1.38184 -4.30664 -3.48828 -5.15137c-36.0576 -14.4199 -69.8623 -34.1377 -74.1689 -40.1025
v-26.8486h199.68v26.8486c-4.30664 5.96484 -38.1055 25.6826 -74.1631 40.1025c-2.10547 0.844727 -3.48828 2.88574 -3.48828 5.15137v27.7314c0 2.36133 1.49121 4.46094 3.71875 5.24121c-0.0449219 -0.00585938 8.91504 4.52539 8.91504 29.248
c0 3.05957 2.4834 5.54297 5.54297 5.54297c1.31836 0.601562 4.12109 7.0332 2.89258 13.1064c-0.768555 3.77637 -2.33008 3.77637 -3.00195 3.77637c-3.05957 0 -5.54199 2.4834 -5.54199 5.54883c0 1.8877 0.761719 3.64844 2.02832 6.5791
c2.64355 6.125 7.07227 16.3652 4.40332 27.0342c-2.87988 11.5391 -20.7295 16.7871 -36.0957 16.7871c-15.3604 0 -33.21 -5.24805 -36.0967 -16.7871z" />
    <glyph glyph-name="uniF10D" unicode="&#xf10d;" horiz-adv-x="511" 
d="M224 345.6c88.2246 0 160 -71.7754 160 -160c0 -88.2236 -71.7754 -160 -160 -160c-88.2236 0 -160 71.7764 -160 160c0 88.2246 71.7764 160 160 160zM245.363 55.4883c-0.121094 0.0253906 -0.243164 0.0449219 -0.364258 0.0634766
c0.121094 -0.0185547 0.243164 -0.0380859 0.364258 -0.0634766zM243.002 56.1152c-0.115234 0.0449219 -0.223633 0.0898438 -0.338867 0.134766c0.115234 -0.0449219 0.223633 -0.0898438 0.338867 -0.134766zM240.787 57.1709
c-0.0634766 0.0390625 -0.12793 0.0839844 -0.191406 0.12793c0.0634766 -0.0439453 0.12793 -0.0888672 0.191406 -0.12793zM238.906 58.541c-0.0390625 0.0322266 -0.0703125 0.0507812 -0.109375 0.0830078
c0.0390625 -0.0322266 0.0703125 -0.0507812 0.109375 -0.0830078zM307.303 185.6c0 45.9336 -37.3691 83.3096 -83.3027 83.3096c-45.9326 0 -83.3018 -37.376 -83.3018 -83.3096c0 -45.9326 37.3691 -83.3086 83.3018 -83.3086c45.9336 0 83.3027 37.376 83.3027 83.3086z
M237.345 60.166c-0.0703125 0.0898438 -0.147461 0.172852 -0.211914 0.262695c0.0644531 -0.0898438 0.141602 -0.172852 0.211914 -0.262695zM236.007 62.1631c-0.0576172 0.115234 -0.115234 0.230469 -0.172852 0.338867
c0.0576172 -0.108398 0.115234 -0.223633 0.172852 -0.338867zM235.027 64.4736c-0.0253906 0.0957031 -0.0507812 0.198242 -0.0761719 0.293945c0.0253906 -0.0957031 0.0507812 -0.198242 0.0761719 -0.293945zM74.5801 185.6c0 -82.3936 67.0264 -149.42 149.42 -149.42
c3.61621 0 7.18164 0.171875 10.7334 0.428711c-11.5137 4.61426 -19.9678 15.2695 -21.2861 28.332l-0.0263672 0.243164c-1.01758 10.0996 2.44531 19.6162 8.85742 26.5732c-50.9688 0.927734 -92.1592 42.6494 -92.1592 93.8428
c0 51.7695 42.1113 93.8818 93.8809 93.8818h0.0390625v13.9971v24.6592v16.8828h-0.0390625c-82.3936 0 -149.42 -67.0273 -149.42 -149.421z" />
    <glyph glyph-name="uniF139" unicode="&#xf139;" 
d="M656.695 180.869c6.67871 0 11.1309 -4.45215 11.1309 -11.1299c0 -61.2178 -50.0869 -111.305 -111.305 -111.305c-61.2168 0 -111.304 50.0869 -111.304 111.305c0 6.67773 4.45215 11.1299 11.1299 11.1299h3.33887l80.1396 200.349h-162.505
c-4.45215 -22.2617 -21.1475 -38.957 -43.4082 -43.4092v-379.548h100.174c6.67871 0 11.1309 -4.45215 11.1309 -11.1299c0 -6.67871 -4.45215 -11.1309 -11.1309 -11.1309h-200.348c-6.67871 0 -11.1309 4.45215 -11.1309 11.1309
c0 6.67773 4.45215 11.1299 11.1309 11.1299h77.9131v379.548c-22.2607 4.45215 -38.957 21.1475 -43.4092 43.4092h-140.243l80.1387 -200.349h3.33984c6.67773 0 11.1299 -4.45215 11.1299 -11.1299c0 -61.2178 -50.0869 -111.305 -111.304 -111.305
c-61.2178 0 -111.305 50.0869 -111.305 111.305c0 6.67773 4.45215 11.1299 11.1309 11.1299h3.33887l80.1387 200.349h-27.8262c-6.67773 0 -11.1299 4.45215 -11.1299 11.1299c0 6.67871 4.45215 11.1309 11.1299 11.1309h201.461
c5.56543 25.5996 27.8262 44.5215 54.5391 44.5215c26.7139 0 48.9746 -18.9219 54.5391 -44.5215h223.723c6.67773 0 11.1299 -4.45215 11.1299 -11.1309c0 -6.67773 -4.45215 -11.1299 -11.1299 -11.1299h-27.8262l80.1387 -200.349h3.33887zM111.305 80.6953
c45.6348 0 82.3652 34.5049 89.043 77.9131h-176.974c5.56543 -43.4082 42.2959 -77.9131 87.9307 -77.9131zM38.9561 180.869h144.696l-72.3477 181.427zM322.782 358.956c18.9219 0 33.3916 14.4697 33.3916 33.3916s-14.4697 33.3916 -33.3916 33.3916
c-18.9209 0 -33.3906 -14.4697 -33.3906 -33.3916s14.4697 -33.3916 33.3906 -33.3916zM556.521 362.296l-72.3477 -181.427h144.695zM556.521 80.6953c45.6348 0 82.3652 34.5049 89.0439 77.9131h-176.975c5.56543 -43.4082 42.2959 -77.9131 87.9307 -77.9131z" />
    <glyph glyph-name="uniF137" unicode="&#xf137;" 
d="M512 399.36c0.853516 -30.7207 1.70703 -112.641 -40.96 -154.454c-16.2129 -16.2129 -36.6934 -25.5996 -61.4404 -26.4531c-23.04 -34.1328 -50.3467 -50.3467 -74.2393 -64.8535c-29.8672 -18.7725 -49.4941 -30.7197 -49.4941 -69.1191
c0 -61.4404 24.7471 -88.7471 81.0674 -88.7471c5.12012 0 8.5332 -3.41309 8.5332 -8.5332v-42.667c0 -5.12012 -3.41309 -8.5332 -8.5332 -8.5332h-221.867c-5.12012 0 -8.5332 3.41309 -8.5332 8.5332v42.667c0 5.12012 3.41309 8.5332 8.5332 8.5332
c66.5605 0 79.3604 31.5732 80.2139 88.7471c0 38.3994 -19.627 50.3467 -49.4932 68.2666c-23.8936 14.5059 -51.2002 30.7197 -74.2402 64.8525c-25.6006 0.853516 -46.9336 10.2402 -63.1465 26.4541c-40.1074 40.96 -38.4004 116.053 -38.4004 152.746v8.5332
c0 5.12012 4.2666 8.5332 8.5332 8.5332h45.2266v25.6006c0 5.12012 3.41309 8.5332 8.5332 8.5332h387.414c5.12012 0 8.5332 -3.41309 8.5332 -8.5332v-25.6006h45.2266c5.12012 0 8.5332 -3.41309 8.5332 -8.5332v-5.97266zM51.2002 256
c10.2402 -11.0938 23.8936 -17.9199 39.2529 -20.4805c-17.9199 34.9873 -32.4268 85.334 -35.8398 161.28h-37.5469v0c0 -34.1328 -0.853516 -104.96 34.1338 -140.8zM326.827 168.106c47.7861 28.1602 112.64 67.4131 114.346 262.827h-370.346
c1.70605 -196.267 66.5596 -234.667 113.493 -263.681c29.8662 -17.9199 58.0264 -34.1328 58.0264 -82.7725c-0.853516 -72.5342 -26.4531 -103.254 -88.7471 -105.813v-25.6006h204.801v25.6006c-59.7334 3.41309 -89.6006 38.3994 -89.6006 105.813
c0 48.6396 28.1602 65.7061 58.0273 83.626zM420.693 236.373c15.3604 2.56055 28.1602 8.5332 38.4004 19.627c36.6934 36.6934 35.8398 110.08 35.8398 140.8h-37.5469c-4.2666 -75.0928 -17.9199 -125.439 -36.6934 -160.427z" />
    <glyph glyph-name="uniF117" unicode="&#xf117;" 
d="M371.2 83.2002c-7.07227 0 -12.7998 5.72754 -12.7998 12.7998v179.2c0 7.07227 5.72754 12.7998 12.7998 12.7998s12.7998 -5.72754 12.7998 -12.7998v-179.2c0 -7.07227 -5.72754 -12.7998 -12.7998 -12.7998zM262.4 83.2002
c-7.07227 0 -12.8008 5.72754 -12.8008 12.7998v179.2c0 7.07227 5.72852 12.7998 12.8008 12.7998c7.07129 0 12.7998 -5.72754 12.7998 -12.7998v-179.2c0 -7.07227 -5.72852 -12.7998 -12.7998 -12.7998zM147.2 83.2002c-7.07227 0 -12.7998 5.72754 -12.7998 12.7998
v179.2c0 7.07227 5.72754 12.7998 12.7998 12.7998s12.7998 -5.72754 12.7998 -12.7998v-179.2c0 -7.07227 -5.72754 -12.7998 -12.7998 -12.7998z" />
    <glyph glyph-name="uniF114" unicode="&#xf114;" 
d="M328.96 32h-133.12c-19.7627 0 -35.8398 16.416 -35.8398 36.5889v240.422c0 20.1797 16.0771 36.5889 35.8398 36.5889h133.12c19.7637 0 35.8398 -16.4092 35.8398 -36.5889v-240.422c0 -20.1729 -16.0762 -36.5889 -35.8398 -36.5889zM354.56 309.011
c0 14.4131 -11.4873 26.1377 -25.5996 26.1377h-133.12c-14.1123 0 -25.5996 -11.7246 -25.5996 -26.1377v-240.422c0 -14.4131 11.4873 -26.1377 25.5996 -26.1377h133.12c14.1123 0 25.5996 11.7246 25.5996 26.1377v240.422zM328.96 94.7197h-133.12
c-8.4668 0 -15.3594 7.03418 -15.3594 15.6807v177.708c0 8.64648 6.89258 15.6807 15.3594 15.6807h133.12c8.4668 0 15.3604 -7.03418 15.3604 -15.6807v-177.708c0 -8.64648 -6.89355 -15.6807 -15.3604 -15.6807zM334.08 288.108
c0 2.88086 -2.29785 5.22266 -5.12012 5.22266h-133.12c-2.82227 0 -5.12012 -2.3418 -5.12012 -5.22266v-177.708c0 -2.88086 2.29785 -5.22266 5.12012 -5.22266h133.12c2.82227 0 5.12012 2.3418 5.12012 5.22266v177.708zM293.12 314.24h-61.4404
c-2.82812 0 -5.12012 2.3418 -5.12012 5.22852s2.29199 5.22266 5.12012 5.22266h61.4404c2.8291 0 5.12012 -2.33594 5.12012 -5.22266s-2.29102 -5.22852 -5.12012 -5.22852zM221.44 63.3604h-10.2402v10.4512h10.2402v-10.4512zM236.8 84.2686h51.2002
c2.8291 0 5.12012 -2.3418 5.12012 -5.22852v-20.9023c0 -2.89258 -2.29102 -5.22852 -5.12012 -5.22852h-51.2002c-2.82812 0 -5.12012 2.33594 -5.12012 5.22852v20.9023c0 2.88672 2.29199 5.22852 5.12012 5.22852zM241.92 63.3604h40.96v10.4512h-40.96v-10.4512z
M313.6 63.3604h-10.2393v10.4512h10.2393v-10.4512z" />
    <glyph glyph-name="uniF11A" unicode="&#xf11a;" 
d="M422.86 78.957c0 -33.1777 -26.918 -60.0967 -60.1084 -60.0967h-200.288c-33.1836 0 -60.1084 26.9189 -60.1084 60.0967v200.313c0 33.1709 26.9248 60.0898 60.1084 60.0898h200.288c33.1904 0 60.1084 -26.9189 60.1084 -60.0898v-200.313zM176.218 285.536
c-16.4863 0 -27.3213 -10.8613 -27.3213 -25.0498c0 -13.7666 10.4375 -25.0371 26.7129 -25.0371h0.179688c16.915 0 27.3467 11.2705 27.3467 25.0371c-0.210938 14.1885 -10.4316 25.0498 -26.918 25.0498zM200 71.0273v144.8h-48.1855v-144.8h48.1855zM373.396 71.0273
v83.0459c0 44.4482 -23.7822 65.1016 -55.4814 65.1016c-25.8887 0 -37.3574 -14.4072 -43.623 -24.4102h0.422852v21.0625h-48.2119s0.633789 -13.5488 0 -144.8h48.2119v80.9658c0 4.16699 0.217773 8.54492 1.45898 11.6807
c3.5332 8.5498 11.4688 17.5234 24.8252 17.5234c17.3125 0 24.2178 -13.1465 24.2178 -32.7686v-77.4014h48.1797z" />
    <glyph glyph-name="uniF127" unicode="&#xf127;" 
d="M242.328 -37.5986c-64.1182 0 -125.407 25.459 -171.61 70.7188c-45.2588 46.2021 -70.7178 107.491 -70.7178 172.552c0 65.0615 25.459 125.407 70.7178 171.61c46.2031 45.2588 107.492 70.7178 171.61 70.7178c65.0605 0 125.406 -25.459 171.609 -70.7178
c59.4033 -59.4033 83.9189 -144.266 65.0605 -226.299c-1.88574 -7.54297 -9.42871 -12.2578 -16.9727 -10.3721c-7.54297 1.88574 -12.2578 9.42871 -10.3721 16.9727c16.9727 72.6035 -4.71387 147.094 -57.5166 199.896c-83.9189 83.9189 -219.698 83.9189 -302.675 0
c-40.5449 -40.5449 -63.1748 -95.2334 -63.1748 -151.809c0 -56.5742 22.6299 -111.263 63.1748 -151.809c45.2598 -45.2588 106.549 -67.8887 170.667 -62.2314c7.54297 0.942383 15.0869 -4.71484 15.0869 -13.2012
c0.942383 -7.54297 -4.71484 -15.0859 -13.2012 -15.0859c-7.54297 0 -14.1436 -0.943359 -21.6865 -0.943359zM400.736 359.366zM480.884 33.1201h-19.8008v-53.7461c0 -2.8291 -2.8291 -5.65723 -5.65723 -5.65723h-23.5732c-2.82812 0 -5.65723 2.82812 -5.65723 5.65723
v41.4883h-35.8311v-41.4883c0 -2.8291 -2.82812 -5.65723 -5.65723 -5.65723h-23.5723c-2.8291 0 -5.6582 2.82812 -5.6582 5.65723v53.7461h-17.915l71.6611 66.0029zM192.354 303.734v-84.8613h98.0625v84.8613h26.4014v-203.668h-26.4014v96.1768h-98.0625v-95.2344
h-26.4014v202.726h26.4014z" />
    <glyph glyph-name="uniF10B" unicode="&#xf10b;" 
d="M256 358.4c95.2832 0 172.8 -77.5176 172.8 -172.801s-77.5166 -172.8 -172.8 -172.8s-172.8 77.5166 -172.8 172.8s77.5166 172.801 172.8 172.801zM256 24.3203c88.9346 0 161.28 72.3457 161.28 161.279c0 88.9346 -72.3457 161.28 -161.28 161.28
s-161.28 -72.3457 -161.28 -161.28c0 -88.9336 72.3457 -161.279 161.28 -161.279zM339.82 109.927c2.32324 -2.16992 2.45215 -5.81836 0.282227 -8.1416c-1.13965 -1.21582 -2.67578 -1.83008 -4.21094 -1.83008c-1.41504 0 -2.82324 0.511719 -3.92969 1.54297
l-85.6514 79.8906c-1.16504 1.08789 -1.83008 2.61133 -1.83008 4.21094v79.8848c0 3.1875 2.5791 5.76074 5.75977 5.76074s5.75977 -2.57324 5.75977 -5.76074v-77.3818z" />
    <glyph glyph-name="uniF136" unicode="&#xf136;" 
d="M64.749 157.827c-2.39746 0 -4.7959 1.19824 -4.7959 3.59668c-2.39844 3.59766 -1.19922 9.59277 2.39844 11.9902l381.302 250.604l-55.1572 5.99512c-5.99512 0 -8.39258 4.79688 -8.39258 9.59277c0 5.99512 4.7959 8.39355 9.5918 8.39355l79.1387 -8.39355v0
h1.19922c0 -1.19922 1.19824 -1.19922 1.19824 -1.19922l1.19922 -1.19922l1.19922 -1.19824v0v-1.19922c1.19922 0 1.19922 0 1.19922 -1.19922v-2.39844v-1.19922l-8.39355 -79.1377c0 -4.7959 -3.59668 -8.39355 -8.39355 -8.39355h-1.19922
c-5.99512 0 -8.39355 4.7959 -8.39355 9.59277l7.19434 61.1523l-386.098 -254.202c-1.19922 -1.19824 -3.59766 -1.19824 -4.79688 -1.19824zM519.194 -47.2129c4.7959 0 9.59277 -3.59766 10.792 -8.39355c0 -4.7959 -3.59766 -8.39355 -8.39355 -8.39355h-35.9717
h-70.7451h-52.7588h-70.7451h-52.7588h-70.7441h-52.7588h-70.7451h-35.9717c-4.7959 0 -8.39355 3.59766 -8.39355 8.39355s3.59766 8.39355 8.39355 8.39355h26.3789v62.3506c0 4.79688 3.59766 8.39355 8.39355 8.39355h70.7451
c4.7959 0 8.39355 -3.59668 8.39355 -8.39355v-62.3506h35.9717v149.883c0 4.7959 3.59766 8.39355 8.39355 8.39355h70.7441c4.79688 0 8.39355 -3.59766 8.39355 -8.39355v-149.883h35.9727v238.613c0 4.7959 3.59668 8.39355 8.39258 8.39355h70.7451
c4.7959 0 8.39355 -3.59766 8.39355 -8.39355v-238.613h35.9717v327.344c0 4.79688 3.59766 8.39355 8.39355 8.39355h70.7451c4.7959 0 8.39355 -3.59668 8.39355 -8.39355v-327.344h26.3789zM50.3604 -47.2129h52.7588v52.7588h-52.7588v-52.7588zM175.063 -47.2129
h52.7588v141.489h-52.7588v-141.489zM298.566 -47.2129h52.7588v230.22h-52.7588v-230.22zM422.07 -47.2129h52.7588v318.95h-52.7588v-318.95z" />
    <glyph glyph-name="uniF116" unicode="&#xf116;" 
d="M418.464 25.5996c-2.64355 0 -5.28613 1.01172 -7.30273 3.02734l-116.204 116.205c-19.6934 -16.4355 -45.0244 -26.3301 -72.6211 -26.3301c-62.6045 0 -113.542 50.9385 -113.542 113.549c0 62.6113 50.9375 113.549 113.542 113.549
c62.6113 0 113.549 -50.9375 113.549 -113.549c0 -27.5967 -9.89453 -52.9209 -26.3232 -72.6201l116.198 -116.205c4.03223 -4.03223 4.03223 -10.5664 0 -14.5986c-2.01562 -2.01562 -4.65918 -3.02734 -7.2959 -3.02734zM222.336 324.953
c-51.2256 0 -92.8955 -41.6768 -92.8955 -92.9023s41.6699 -92.9023 92.8955 -92.9023s92.9023 41.6768 92.9023 92.9023s-41.6768 92.9023 -92.9023 92.9023z" />
    <glyph glyph-name="uniF106" unicode="&#xf106;" 
d="M442.028 125.856v-36.1924c-2.41211 -33.7285 -29.6895 -61.0879 -63.4688 -64.0645l-246.547 -0.0253906c-20.5566 3.09766 -37.1387 18.7266 -42.2275 38.9502l-0.185547 1.51074l0.192383 206.272c4.94043 19.6221 20.915 35.4814 40.6973 40.3896l1.52344 0.179688
h32.3203l210.035 52.0381l16.665 -55.0205c28.4609 -9.06934 48.9092 -33.5684 50.9766 -62.291l0.0126953 -35.1367c14.9883 -2.32324 25.1777 -16.7871 25.1777 -36.998v-18.7324c0 -17.9844 -9.37598 -29.1777 -25.1719 -30.8799zM365.76 349.914l-149.446 -37.0371
h160.672zM429.44 247.161c-1.92676 26.6689 -23.9424 49.2744 -52.333 53.2871l-244.288 -0.0644531c-14.7588 -3.93555 -26.6621 -15.7441 -30.6309 -30.3867v-203.168c4.07031 -15.0654 16.3652 -26.6055 30.7969 -28.8389l245.012 0.0771484
c27.1426 2.41309 49.5039 24.7998 51.4619 52.0381l-0.0185547 35.3984h-55.7061c-19.3789 0 -32.4033 12.5566 -32.4033 31.2324v18.7324c0 20.3135 14.835 37.4785 32.4033 37.4785h55.7061v34.2139zM454.611 175.469c0 12.4355 -5.19043 24.9854 -16.7871 24.9854
h-64.0898c-10.5537 0 -19.8145 -11.6729 -19.8145 -24.9854v-18.7324c0 -16.9092 13.8564 -18.7393 19.8145 -18.7393h64.0898c7.20605 0 16.7871 1.93848 16.7871 18.7393v18.7324zM385.389 156.736c-6.94434 0 -12.5889 5.59961 -12.5889 12.4922
c0 6.89355 5.64453 12.4863 12.5889 12.4863c6.9375 0 12.583 -5.59277 12.583 -12.4863c0 -6.89258 -5.64551 -12.4922 -12.583 -12.4922zM363.77 269.158c0 3.4502 2.81641 6.24707 6.29785 6.24707h15.8652c3.48145 0 6.29785 -2.79688 6.29785 -6.24707
c0 -3.45605 -2.81641 -6.24609 -6.29785 -6.24609h-15.8652c-3.48145 0 -6.29785 2.79004 -6.29785 6.24609zM338.323 262.912h-15.8721c-3.47559 0 -6.29102 2.79004 -6.29102 6.24609c0 3.4502 2.81543 6.24707 6.29102 6.24707h15.8721
c3.47559 0 6.29102 -2.79688 6.29102 -6.24707c0 -3.45605 -2.81543 -6.24609 -6.29102 -6.24609zM290.707 63.0469h-15.8652c-3.48145 0 -6.29102 2.7959 -6.29102 6.24609c0 3.45605 2.80957 6.24609 6.29102 6.24609h15.8652
c3.48145 0 6.29785 -2.79004 6.29785 -6.24609c0 -3.4502 -2.81641 -6.24609 -6.29785 -6.24609zM290.707 262.912h-15.8652c-3.48145 0 -6.29102 2.79004 -6.29102 6.24609c0 3.4502 2.80957 6.24707 6.29102 6.24707h15.8652c3.48145 0 6.29785 -2.79688 6.29785 -6.24707
c0 -3.45605 -2.81641 -6.24609 -6.29785 -6.24609zM243.104 63.0469h-15.8711c-3.48242 0 -6.29785 2.7959 -6.29785 6.24609c0 3.45605 2.81543 6.24609 6.29785 6.24609h15.8711c3.48242 0 6.29199 -2.79004 6.29199 -6.24609
c0 -3.4502 -2.80957 -6.24609 -6.29199 -6.24609zM243.104 262.912h-15.8711c-3.48242 0 -6.29785 2.79004 -6.29785 6.24609c0 3.4502 2.81543 6.24707 6.29785 6.24707h15.8711c3.48242 0 6.29199 -2.79688 6.29199 -6.24707
c0 -3.45605 -2.80957 -6.24609 -6.29199 -6.24609zM195.494 63.0469h-15.8721c-3.47461 0 -6.29102 2.7959 -6.29102 6.24609c0 3.45605 2.81641 6.24609 6.29102 6.24609h15.8721c3.47559 0 6.29102 -2.79004 6.29102 -6.24609
c0 -3.4502 -2.81543 -6.24609 -6.29102 -6.24609zM195.494 262.912h-15.8721c-3.47461 0 -6.29102 2.79004 -6.29102 6.24609c0 3.4502 2.81641 6.24707 6.29102 6.24707h15.8721c3.47559 0 6.29102 -2.79688 6.29102 -6.24707
c0 -3.45605 -2.81543 -6.24609 -6.29102 -6.24609zM147.878 63.0469h-15.8652c-3.48145 0 -6.29102 2.7959 -6.29102 6.24609c0 3.45605 2.80957 6.24609 6.29102 6.24609h15.8652c3.48242 0 6.29785 -2.79004 6.29785 -6.24609
c0 -3.4502 -2.81543 -6.24609 -6.29785 -6.24609zM147.878 262.912h-15.8652c-3.48145 0 -6.29102 2.79004 -6.29102 6.24609c0 3.4502 2.80957 6.24707 6.29102 6.24707h15.8652c3.48242 0 6.29785 -2.79688 6.29785 -6.24707
c0 -3.45605 -2.81543 -6.24609 -6.29785 -6.24609zM322.451 75.5391h15.8721c3.47559 0 6.29102 -2.79004 6.29102 -6.24609c0 -3.4502 -2.81543 -6.24609 -6.29102 -6.24609h-15.8721c-3.47559 0 -6.29102 2.7959 -6.29102 6.24609
c0 3.45605 2.81543 6.24609 6.29102 6.24609zM370.067 75.5391h15.8652c3.48145 0 6.29785 -2.79004 6.29785 -6.24609c0 -3.4502 -2.81641 -6.24609 -6.29785 -6.24609h-15.8652c-3.48145 0 -6.29785 2.7959 -6.29785 6.24609c0 3.45605 2.81641 6.24609 6.29785 6.24609z
" />
    <glyph glyph-name="uniF13C" unicode="&#xf13c;" 
d="M503.467 209.066h-221.867c-5.11914 0 -8.5332 3.41406 -8.5332 8.5332v221.867c0 5.12012 3.41406 8.5332 8.5332 8.5332c127.147 0 230.4 -103.253 230.4 -230.4c0 -5.11914 -3.41309 -8.5332 -8.5332 -8.5332zM290.134 226.134h204.8
c-4.2666 110.933 -93.8672 200.533 -204.8 204.8v-204.8zM230.4 -64c-127.147 0 -230.4 103.253 -230.4 230.4c0 127.146 103.253 230.399 230.4 230.399c5.11914 0 8.5332 -3.41309 8.5332 -8.5332v-213.333h213.333c5.12012 0 8.5332 -3.41406 8.5332 -8.5332
c0 -127.147 -103.253 -230.4 -230.399 -230.4zM221.866 379.733c-113.493 -4.2666 -204.8 -98.1338 -204.8 -213.333c0 -117.761 95.5732 -213.334 213.334 -213.334c115.199 0 209.066 91.3066 213.333 204.8h-213.333c-5.12012 0 -8.53418 3.41406 -8.53418 8.53418
v213.333z" />
    <glyph glyph-name="uniF10E" unicode="&#xf10e;" 
d="M262.374 345.6c88.1543 0 159.994 -71.833 159.994 -159.986c0 -88.1543 -71.8398 -159.994 -159.994 -159.994c-88.1533 0 -159.987 71.8398 -159.987 159.994c0 88.1533 71.834 159.986 159.987 159.986zM262.374 268.762
c-46.0479 0 -83.417 -37.3633 -83.417 -83.4111c0 -46.0547 37.3691 -83.418 83.417 -83.418c46.0547 0 83.418 37.3633 83.418 83.418c0 46.0479 -37.3633 83.4111 -83.418 83.4111zM262.374 35.8848c82.3682 0 149.466 67.0977 149.466 149.99
c0 26.0479 -6.5791 50.5215 -18.4189 71.8398c0 -1.05566 0 -2.10547 -0.262695 -3.16113c-1.58105 -9.47168 -7.36621 -17.8945 -15.5264 -22.8926l-0.262695 -0.262695c-5.52246 -3.42383 -11.8398 -5.26074 -18.1562 -5.26074
c-4.73633 0 -9.47168 1.0498 -13.6836 2.89258c6.8418 -12.8955 10.791 -27.6289 10.791 -43.417c0 -51.8408 -42.1055 -93.9463 -93.9463 -93.9463c-51.8398 0 -93.9385 42.1055 -93.9385 93.9463c0 49.9961 39.4688 91.0459 88.9404 93.6768v55.5264
c-79.9932 -2.63672 -144.467 -68.6855 -144.467 -149.466c0 -82.3682 67.1035 -149.466 149.465 -149.466z" />
    <glyph glyph-name="uniF108" unicode="&#xf108;" 
d="M377.6 6.40039h-102.399c-7.57129 0 -17.376 3.94238 -21.4785 11.4814l-59.3027 115.885c-3.60254 6.59863 -3.42969 14.9629 0.525391 21.6768c3.92969 6.6748 11.2314 10.8291 19.0586 10.8291l16.0127 0.306641v0c6.69434 0 13.9648 -3.62891 18.2148 -9.01758
c0.160156 -0.217773 0.320312 -0.435547 0.454102 -0.671875l7.31543 -12.1855v124.096c0 16.0254 13.0176 25.6006 25.5996 25.6006h12.8008c12.582 0 25.5996 -9.5752 25.5996 -25.6006v-78.6943l88.6465 -31.7373c8.38379 -2.58594 13.7539 -10.9316 13.7539 -21.6895
c0 -0.467773 -0.0517578 -0.941406 -0.154297 -1.39551l-25.5996 -114.215c-0.0830078 -0.344727 -0.185547 -0.69043 -0.326172 -1.02344c-3.60352 -8.7998 -10.2471 -13.6445 -18.7207 -13.6445zM230.138 153.779l-16.0127 -0.307617
c-3.37988 0 -6.54102 -1.77246 -8.15332 -4.52441c-1.68359 -2.85449 -1.77344 -6.38086 -0.230469 -9.20312l59.3018 -115.892c1.26074 -2.32324 6.24023 -4.65234 10.1572 -4.65234h102.399c2.17676 0 4.65918 0.633789 6.68164 5.23535l25.3057 112.902
c-0.140625 3.70508 -1.50391 7.81445 -4.99219 8.88965l-93.1514 33.3496c-2.54688 0.90918 -4.24316 3.32227 -4.24316 6.02246v83.2002c0 9.3252 -7.85254 12.7998 -12.7998 12.7998h-12.8008c-4.94727 0 -12.7998 -3.47461 -12.7998 -12.7998v-147.2
c0 -2.87988 -1.91992 -5.40137 -4.69141 -6.16895c-2.7832 -0.774414 -5.71484 0.40918 -7.19336 2.87988l-18.9629 31.5967c-1.88184 2.19531 -5.24219 3.87207 -7.81445 3.87207zM141.082 345.6c0 -3.53223 -2.86719 -6.39941 -6.40039 -6.39941h-32.2812
c-3.5332 0 -6.40039 2.86719 -6.40039 6.39941c0 3.5332 2.86719 6.40039 6.40039 6.40039h32.2812c3.5332 0 6.40039 -2.86719 6.40039 -6.40039zM141.082 281.6c0 -3.53223 -2.86719 -6.39941 -6.40039 -6.39941h-32.2812c-3.5332 0 -6.40039 2.86719 -6.40039 6.39941
c0 3.5332 2.86719 6.40039 6.40039 6.40039h32.2812c3.5332 0 6.40039 -2.86719 6.40039 -6.40039zM140.8 217.6c0 -3.53223 -2.86719 -6.39941 -6.39941 -6.39941h-32c-3.5332 0 -6.40039 2.86719 -6.40039 6.39941c0 3.5332 2.86719 6.40039 6.40039 6.40039h32
c3.53223 0 6.39941 -2.86719 6.39941 -6.40039zM217.6 345.6c0 -3.53223 -2.86719 -6.39941 -6.39941 -6.39941h-32c-3.5332 0 -6.40039 2.86719 -6.40039 6.39941c0 3.5332 2.86719 6.40039 6.40039 6.40039h32c3.53223 0 6.39941 -2.86719 6.39941 -6.40039zM217.6 281.6
c0 -3.53223 -2.86719 -6.39941 -6.39941 -6.39941h-32c-3.5332 0 -6.40039 2.86719 -6.40039 6.39941c0 3.5332 2.86719 6.40039 6.40039 6.40039h32c3.53223 0 6.39941 -2.86719 6.39941 -6.40039zM217.6 217.6c0 -3.53223 -2.86719 -6.39941 -6.39941 -6.39941h-32
c-3.5332 0 -6.40039 2.86719 -6.40039 6.39941c0 3.5332 2.86719 6.40039 6.40039 6.40039h32c3.53223 0 6.39941 -2.86719 6.39941 -6.40039zM300.8 345.6c0 -3.53223 -2.86719 -6.39941 -6.39941 -6.39941h-32c-3.5332 0 -6.40039 2.86719 -6.40039 6.39941
c0 3.5332 2.86719 6.40039 6.40039 6.40039h32c3.53223 0 6.39941 -2.86719 6.39941 -6.40039z" />
    <glyph glyph-name="uniF104" unicode="&#xf104;" 
d="M439.047 238.56l-42.1191 -108.94c-5.91309 -15.2637 -22.2207 -27.2188 -37.1387 -27.2188h-180.531c-7.76367 0 -14.1123 3.18066 -17.8887 8.94727c-4.00586 6.12402 -4.44141 14.457 -1.18945 22.8604l42.1113 108.935
c3.71875 9.59375 12.416 32.0576 36.083 32.0576h178.982c11.5781 0 17.498 -5.33105 20.4229 -9.80469c4.58203 -7.00195 5.05566 -17.0371 1.26758 -26.8359zM427.897 258.477c-1.90039 2.90625 -5.45312 4.37793 -10.541 4.37793h-178.982
c-12.9404 0 -19.3535 -9.71484 -25.0049 -24.2949l-42.1113 -108.934c-1.75391 -4.54395 -1.75977 -8.67871 0 -11.3604c1.90039 -2.91211 5.40137 -3.52637 8 -3.52637h180.531c10.041 0 21.9775 8.91504 26.0605 19.4688l42.1182 108.94
c2.28516 5.90137 2.25977 11.7764 -0.0703125 15.3281zM296.524 165.446c-0.915039 -0.537109 -1.92578 -0.793945 -2.9248 -0.793945c-1.56738 0 -3.12305 0.633789 -4.27441 1.85645l-58.6816 62.2529c-2.29785 2.44434 -2.25293 6.34863 0.108398 8.72949
c2.35547 2.38086 6.1377 2.3291 8.43555 -0.108398l55.4814 -58.8545l102.81 59.9229c2.86035 1.6709 6.50879 0.621094 8.12109 -2.34863c1.61914 -2.96973 0.601562 -6.7334 -2.26562 -8.40332zM249.113 173.99c1.97754 -2.72656 1.44629 -6.59863 -1.19043 -8.63965
l-47.7305 -37.0303c-1.0752 -0.832031 -2.33008 -1.23535 -3.57129 -1.23535c-1.81836 0 -3.61035 0.850586 -4.78125 2.4707c-1.97754 2.72559 -1.43945 6.5918 1.19043 8.63965l47.7314 37.0303c2.64941 2.04785 6.38086 1.48438 8.35156 -1.23535zM344.762 173.709
l23.8652 -37.0303c1.82422 -2.83594 1.08789 -6.66895 -1.65723 -8.55664c-1.01758 -0.704102 -2.16309 -1.03711 -3.30273 -1.03711c-1.92578 0 -3.82031 0.96582 -4.97266 2.75195l-23.8594 37.0234c-1.83008 2.83594 -1.08789 6.66895 1.65137 8.55762
c2.74609 1.90039 6.44531 1.12598 8.27539 -1.70898zM166.784 262.854h-77.5557c-3.2959 0 -5.9707 2.76465 -5.9707 6.17578c0 3.40527 2.6748 6.16992 5.9707 6.16992h77.5557c3.2959 0 5.96484 -2.76465 5.96484 -6.16992
c0 -3.41113 -2.66895 -6.17578 -5.96484 -6.17578zM89.2285 201.146h45.1328c3.2959 0 5.96484 -2.76465 5.96484 -6.17578c0 -3.40527 -2.66895 -6.16992 -5.96484 -6.16992h-45.1328c-3.2959 0 -5.9707 2.76465 -5.9707 6.16992c0 3.41113 2.6748 6.17578 5.9707 6.17578z
M89.2285 127.085h29.8242c3.2959 0 5.97168 -2.76465 5.97168 -6.16992c0 -3.41113 -2.67578 -6.17578 -5.97168 -6.17578h-29.8242c-3.2959 0 -5.9707 2.76465 -5.9707 6.17578c0 3.40527 2.6748 6.16992 5.9707 6.16992z" />
    <glyph glyph-name="uniF11F" unicode="&#xf11f;" 
d="M236.18 51.29c-4.71094 0 -9.41504 1.83594 -13.0117 5.49707c-7.19336 7.32129 -7.19336 19.1934 0 26.5156l97.4268 99.2705l-97.4268 99.2695c-7.19336 7.32812 -7.19336 19.1943 0 26.5225c7.1875 7.32129 18.835 7.32129 26.0293 0l110.438 -112.531
c7.19434 -7.32812 7.19434 -19.1943 0 -26.5225l-110.438 -112.524c-3.59766 -3.66113 -8.30762 -5.49707 -13.0176 -5.49707z" />
    <glyph glyph-name="uniF111" unicode="&#xf111;" 
d="M262.374 345.6c88.1543 0 159.994 -71.833 159.994 -159.986c0 -88.1543 -71.8398 -159.994 -159.994 -159.994c-88.1533 0 -159.987 71.8398 -159.987 159.994c0 88.1533 71.834 159.986 159.987 159.986zM345.792 185.613c0 46.0479 -37.3633 83.417 -83.418 83.417
c-46.0479 0 -83.417 -37.3691 -83.417 -83.417c0 -46.0547 37.3691 -83.418 83.417 -83.418c46.0547 0 83.418 37.3633 83.418 83.418zM262.374 36.4092c66.0488 0 122.1 42.8936 142.1 102.887c-6.05469 -5.26074 -13.9453 -8.41602 -22.6309 -8.41602
c-3.1543 0 -6.05371 0.262695 -8.94629 1.0498h-0.262695c-10.5283 2.62988 -18.6816 10.2656 -22.6309 20c-13.6826 -35.002 -47.6289 -60 -87.3662 -60c-51.834 0 -93.9395 42.1055 -93.9395 93.9453c0 49.9971 39.4688 91.3086 88.9414 93.6768v55.5264
c-80.2559 -2.36816 -144.729 -68.416 -144.729 -149.203c0 -82.3682 67.1035 -149.466 149.465 -149.466z" />
    <glyph glyph-name="uniF13B" unicode="&#xf13b;" 
d="M503.467 448c5.12012 0 8.5332 -3.41309 8.5332 -8.5332v-324.267c0 -5.12012 -3.41309 -8.5332 -8.5332 -8.5332h-238.934v-56.3203l99.8398 -99.8398c3.41406 -3.41309 3.41406 -8.5332 0 -11.9473c-1.70605 -1.70605 -4.2666 -2.55957 -5.97266 -2.55957
c-1.70703 0 -4.2666 0.853516 -5.97363 2.55957l-96.4268 96.4268l-96.4268 -96.4268c-3.41309 -3.41309 -8.5332 -3.41309 -11.9463 0c-3.41406 3.41406 -3.41406 8.53418 0 11.9473l99.8398 99.8398v56.3203h-238.934c-5.12012 0 -8.5332 3.41309 -8.5332 8.5332v324.267
c0 5.12012 3.41309 8.5332 8.5332 8.5332h494.934zM494.934 123.733v307.2h-477.867v-307.2h477.867zM59.7334 157.866c-5.12012 0 -8.5332 3.41406 -8.5332 8.53418v221.866c0 5.12012 3.41309 8.5332 8.5332 8.5332h392.533c5.12012 0 8.5332 -3.41309 8.5332 -8.5332
v-221.866c0 -5.12012 -3.41309 -8.53418 -8.5332 -8.53418h-392.533zM68.2666 260.267v-85.333h375.467v204.8h-375.467v-102.4h64.8535l46.0801 47.7871c1.70605 2.55957 5.12012 3.41309 7.67969 2.55957c2.56055 -0.852539 5.12012 -2.55957 5.97363 -5.12012
l32.4268 -80.2129l50.3467 50.3467c3.41309 3.41309 8.5332 3.41309 11.9463 0l35.8398 -35.8398l70.8271 86.1865c2.55957 3.41309 8.5332 3.41309 11.9463 0.853516c3.41309 -2.56055 3.41309 -8.5332 0.853516 -11.9473l-76.7998 -93.8662
c-1.70703 -2.56055 -3.41309 -3.41309 -5.97363 -3.41309c-2.55957 0 -5.12012 0.852539 -6.82617 2.55957l-36.6934 36.6934l-53.7607 -53.7598c-1.70605 -1.70703 -3.41309 -2.56055 -5.97266 -2.56055h-1.70703c-2.55957 0.853516 -5.12012 2.56055 -5.97363 5.12012
l-32.4268 80.2139l-38.3994 -40.1064c-1.70703 -1.70703 -3.41309 -2.56055 -5.97363 -2.56055h-68.2666z" />
    <glyph glyph-name="uniF10A" unicode="&#xf10a;" horiz-adv-x="511" 
d="M371.2 44.7998h-108.8c-27.6035 0 -43.373 3.85254 -63.3408 8.72949c-13.8496 3.38574 -29.543 7.21973 -52.7686 10.5352c-3.14844 0.447266 -5.49121 3.14844 -5.49121 6.33594v134.399c0 3.5332 2.86719 6.40039 6.40039 6.40039
c35.5967 0 102.4 70.1113 102.4 132.346c0 15.5068 11.084 27.6543 25.2412 27.6543c5.91406 0 25.958 -2.70703 35.7373 -37.5234c6.71387 -23.9102 -6.6875 -65.8301 -13.2988 -84.0771h118.72c17.0498 0 32 -14.9502 32 -32
c0 -13.4912 -7.10352 -31.6348 -22.6562 -36.9082c6.08008 -5.6709 9.85645 -12.9668 9.85645 -20.6914c0 -14.5918 -10.957 -27.6543 -24.8125 -31.1104c3.6543 -5.20312 5.6123 -11.9873 5.6123 -20.0898c0 -12.8643 -9.08105 -22.1826 -23.3281 -24.832
c2.66895 -3.82031 4.12793 -8.40918 4.12793 -13.5674c0 -16.9863 -8.61426 -25.6006 -25.5996 -25.6006zM153.601 75.9229c20.8633 -3.20605 35.4814 -6.77734 48.499 -9.95801c19.123 -4.67188 34.2334 -8.36523 60.3008 -8.36523h108.8
c9.81152 0 12.7998 2.98926 12.7998 12.8008c0 11.8779 -14.6943 12.7998 -19.2002 12.7998c-3.53223 0 -6.39941 2.86719 -6.39941 6.39941c0 3.5332 2.86719 6.40039 6.39941 6.40039h19.2002c4.50586 0 19.2002 0.921875 19.2002 12.7998
c0 4.74902 0 19.2002 -19.2002 19.2002c-3.53223 0 -6.39941 2.86719 -6.39941 6.40039c0 3.53223 2.86719 6.39941 6.39941 6.39941h19.2002c9.86914 0 19.2002 9.33105 19.2002 19.2002s-12.8965 19.2002 -26.541 19.2002c-3.5332 0 -6.40039 2.86719 -6.40039 6.39941
c0 3.5332 2.86719 6.40039 6.40039 6.40039h20.1406c13.0947 0 19.2002 15.2764 19.2002 25.5996c0 9.86914 -9.33105 19.2002 -19.2002 19.2002h-128c-2.13086 0 -4.12109 1.0625 -5.31152 2.8291c-1.19043 1.77246 -1.4209 4.0127 -0.614258 5.99023
c6.5791 16.1279 22.3096 62.7773 16.1855 84.5957c-5.83691 20.7803 -15.9238 28.1855 -23.418 28.1855c-7.09082 0 -12.4414 -6.3877 -12.4414 -14.8545c0 -30.874 -14.9639 -66.4834 -41.0625 -97.6895c-22.0928 -26.4199 -47.3926 -43.8086 -67.7373 -46.9443v-122.989z
M147.2 32h-76.7998c-3.5332 0 -6.40039 2.86719 -6.40039 6.40039v192.173c0 1.69531 0.678711 3.32715 1.875 4.52441c1.20312 1.20312 2.96973 1.93262 4.53809 1.875l76.7998 -0.172852c3.5332 -0.00585938 6.3877 -2.86719 6.3877 -6.39941v-192
c0 -3.5332 -2.86719 -6.40039 -6.40039 -6.40039zM76.7998 44.7998h64v179.213l-64 0.140625v-179.354zM118.816 77.2412v0c4.46094 0 8.07031 -3.60938 8.07031 -8.06348s-3.60938 -8.07031 -8.07031 -8.07031c-4.45508 0 -8.07031 3.61621 -8.07031 8.07031
s3.61523 8.06348 8.07031 8.06348z" />
    <glyph glyph-name="uniF11E" unicode="&#xf11e;" 
d="M140.89 244.02c0 4.70996 1.83008 9.4209 5.49121 13.0107c7.32129 7.19336 19.1807 7.19336 26.502 0l99.1943 -97.4209l99.1865 97.4209c7.32227 7.19336 19.1807 7.19336 26.5029 0c7.32129 -7.1875 7.32129 -18.835 0 -26.0225l-112.441 -110.444
c-7.32227 -7.19434 -19.1816 -7.19434 -26.5029 0l-112.441 110.444c-3.66113 3.59082 -5.49121 8.30078 -5.49121 13.0117z" />
    <glyph glyph-name="uniF138" unicode="&#xf138;" 
d="M490.43 48.3906c22.7061 -34.0576 21.5703 -101.038 20.4346 -105.579c0 -4.54102 -3.40527 -9.08203 -9.08203 -9.08203h-195.264h-51.0859h-56.7627h-189.588c-2.27051 0 -4.54102 1.13477 -6.81152 3.40625c-1.13477 2.27051 -2.27051 4.54102 -2.27051 6.81152
c0 3.40527 1.13574 69.25 23.8408 103.308c14.7578 22.7051 57.8975 38.5986 102.173 55.6279c10.2168 4.54102 19.2988 7.94629 28.3809 11.3525c9.08203 11.3525 19.2998 20.4346 30.6523 26.1104c0 1.13574 1.13477 1.13574 2.27051 1.13574v36.3281
c-7.94727 7.94629 -23.8408 28.3809 -26.1113 62.4385c-4.54102 4.54102 -7.94629 11.3525 -10.2168 20.4346c-3.40625 14.7588 -1.13574 32.9229 10.2168 43.1396c0 1.13574 -1.13477 3.40625 -1.13477 4.54102c-6.81152 23.8408 -20.4346 68.1152 -2.27051 93.0908
c6.81152 9.08203 17.0283 14.7588 29.5166 15.8936c12.4873 22.7051 52.2217 32.9229 90.8203 31.7881c39.7334 0 89.6846 -13.624 96.4961 -48.8164c5.67676 -30.6523 -9.08203 -68.1152 -17.0283 -88.5498c-1.13574 -2.27051 -1.13574 -4.54102 -2.27051 -6.81152
c11.3525 -10.2178 12.4873 -28.3818 9.08203 -42.0049c-2.27051 -10.2168 -6.81152 -17.0283 -11.3525 -21.5693c-2.27051 -34.0576 -19.2998 -54.4922 -27.2461 -62.4395v-37.4629h3.40527c11.3525 -5.67676 22.7051 -15.8936 31.7871 -27.2461
c9.08203 -3.40625 18.1641 -6.81152 27.2461 -10.2178c45.4102 -17.0283 87.415 -32.9219 102.173 -55.627zM355.335 84.7188c-1.13574 4.54102 -21.5703 30.6514 -30.6523 35.1924v-5.67578c0 -2.27051 0 -4.54102 -2.27051 -6.81152
c-10.2168 -9.08203 -22.7051 -14.7588 -35.1924 -17.0293l81.7383 -47.6807zM255.433 40.4434c13.623 0 24.9756 11.3525 24.9756 23.8408v9.08203l-23.8408 14.7578l-24.9756 -14.7578v-7.94727c0 -13.623 11.3525 -24.9756 23.8408 -24.9756zM180.506 245.925
c0 -37.4639 21.5693 -55.6279 22.7051 -55.6279c2.27051 -2.27051 3.40527 -4.54102 3.40527 -7.94629v-49.9512v-12.4883c13.623 -11.3525 35.1934 -11.3525 48.8164 -11.3525c14.7578 0 36.3281 0 51.0859 11.3525v12.4883v51.0859
c0 3.40625 1.13574 5.67676 4.54102 7.94727c1.13574 0 23.8408 18.1641 23.8408 55.627c0 4.54102 2.27051 7.94727 6.81152 9.08203c2.27051 2.27051 5.67578 13.623 4.54102 23.8408c-1.13574 5.67578 -3.40625 10.2168 -6.81152 11.3525
c-3.40625 2.27051 -5.67676 5.67578 -5.67676 9.08203c0 3.40527 1.13574 6.81152 5.67676 17.0283c6.81152 18.1641 20.4346 53.3574 15.8936 77.1973c-3.40625 19.2998 -35.1934 32.9229 -79.4678 35.1934c-37.4639 1.13477 -70.3857 -10.2178 -73.792 -23.8408
c-1.13477 -4.54102 -4.54102 -7.94629 -9.08203 -7.94629c-10.2168 0 -15.8936 -2.27051 -20.4346 -7.94727c-12.4873 -17.0283 0 -57.8975 5.67676 -76.0615c2.27051 -9.08203 3.40527 -12.4883 3.40527 -14.7588c0 -4.54102 -2.27051 -7.94629 -5.67578 -9.08203
c-3.40625 -1.13477 -5.67676 -5.67578 -6.81152 -11.3525c-1.13574 -10.2168 2.27051 -20.4346 4.54102 -23.8398c3.40527 -1.13574 6.81152 -4.54102 6.81152 -9.08203zM187.317 119.911c-12.4883 -7.94629 -23.8408 -22.7051 -29.5166 -34.0576l-13.623 -40.8691
l79.4678 46.5459c-11.3525 2.27051 -23.8408 6.81152 -34.0576 17.0283c-1.13574 1.13574 -2.27051 3.40625 -2.27051 5.67676v5.67578zM40.8691 37.0381c-15.8936 -21.5703 -19.2988 -63.5742 -21.5693 -82.874h172.559c5.67578 18.1641 19.2988 54.4922 39.7334 73.792
c-11.3525 6.81152 -18.1641 19.2988 -19.2988 32.9219l-79.4678 -47.6807c-1.13574 -1.13477 -3.40625 -1.13477 -4.54102 -1.13477c-2.27051 0 -3.40625 1.13477 -5.67676 2.27051c-3.40527 2.27051 -4.54102 6.81152 -3.40527 10.2168l21.5693 63.5742
c-2.27051 0 -4.54102 -1.13477 -6.81152 -2.27051c-39.7334 -15.8936 -80.6025 -31.7871 -93.0908 -48.8154zM255.433 -44.7002h38.5986c-7.94727 29.5166 -23.8408 65.8447 -38.5986 65.8447c-14.7588 0 -32.9229 -36.3281 -43.1396 -65.8447h43.1396zM314.466 -44.7002
v1.13477h177.1c0 19.2998 -3.40625 61.3037 -18.1641 82.874c-12.4883 17.0283 -53.3574 32.9219 -93.0908 47.6807c-1.13574 1.13477 -3.40625 1.13477 -5.67676 2.27051l20.4346 -62.4395c1.13574 -3.40527 0 -7.94629 -3.40527 -10.2168
c-1.13574 -1.13574 -3.40625 -2.27051 -5.67676 -2.27051c-1.13477 0 -3.40527 0 -4.54102 1.13477l-81.7383 47.6807c-1.13477 -13.623 -7.94629 -26.1104 -19.2988 -34.0576c18.1641 -19.2988 29.5166 -55.627 34.0576 -73.791z" />
    <glyph glyph-name="uniF122" unicode="&#xf122;" 
d="M231.013 296.191h29.2305l69.7754 -191.41h-28.2871l-19.8018 57.5176h-75.4326l-20.7441 -57.5176h-26.4014zM274.387 183.985l-29.2305 84.8613l-30.1729 -84.8613h59.4033zM242.328 -37.5986c-64.1182 0 -125.407 25.459 -171.61 70.7188
c-45.2588 46.2021 -70.7178 106.549 -70.7178 171.609s25.459 125.407 70.7178 171.609c46.2031 46.2021 106.549 70.7178 171.61 70.7178c65.0605 0 125.406 -25.458 171.609 -70.7178c59.4033 -59.4033 83.9189 -144.266 65.0605 -226.299
c-1.88574 -7.54297 -9.42871 -12.2578 -16.9727 -10.3711c-7.54297 1.88574 -12.2578 9.42871 -10.3721 16.9717c16.9727 72.6045 -4.71387 147.094 -57.5166 199.897c-83.9189 83.9189 -219.698 83.9189 -302.675 0c-40.5449 -40.5459 -63.1748 -94.291 -63.1748 -151.809
s22.6299 -111.264 63.1748 -151.809c45.2598 -45.2598 106.549 -67.8896 170.667 -62.2324c7.54297 0.943359 15.0869 -4.71387 15.0869 -13.2002c0.942383 -7.54395 -4.71484 -15.0869 -13.2012 -15.0869h-21.6865zM400.736 358.424zM329.075 16.1475
c3.77148 0.942383 7.54395 2.82812 11.3154 3.77148v6.60059c-2.8291 1.88574 -6.60059 6.60059 -7.54395 15.0859c-2.82812 1.88672 -3.77148 6.60059 -3.77148 11.3154c0 1.88574 0 3.77148 0.943359 6.60059c0 0.942383 0.942383 0.942383 0.942383 1.88574
c-1.88574 3.77148 -4.71387 9.42871 -2.82812 15.0859c2.82812 8.48633 14.1436 11.3154 22.6299 11.3154c7.54297 0 16.9717 -1.88574 21.6865 -8.48633c3.77148 0 6.60059 -1.88574 7.54297 -2.8291c2.8291 -3.77148 0.943359 -10.3721 -0.942383 -14.1436
l1.88574 -1.88574c0.943359 -1.88574 0.943359 -4.71387 0.943359 -6.60059c0 -4.71387 -0.943359 -8.48535 -3.77246 -11.3145c-0.942383 -9.42871 -4.71387 -13.2012 -7.54297 -15.0869v-8.48633c0.943359 0 -11.3145 -8.48535 -11.3145 -12.2578v-42.4307h-49.9746
c-1.88574 0 -3.77148 1.88574 -3.77148 3.77148v34.8877c0 4.71484 7.54297 7.54395 23.5723 13.2012zM382.821 16.1475c0 0 0.943359 0 0 0c8.48633 4.71484 18.8584 9.42871 26.4014 12.2578v2.82812v6.60059v1.88574c-1.88574 0.943359 -2.82812 2.8291 -4.71484 5.6582
v0c-0.942383 1.88574 -1.88574 4.71387 -2.82812 8.48535v0.943359v2.8291l-0.943359 0.942383v0c-0.942383 0.943359 -1.88574 2.8291 -2.82812 4.71484v0c0 0.942383 -0.943359 1.88574 -0.943359 2.82812v0v2.8291v1.88574c0 1.88574 0.943359 3.77148 1.88574 4.71484
c0.943359 0.942383 0.943359 1.88574 1.88574 1.88574c0 0.942383 -0.942383 1.88574 -0.942383 2.8291c0 0.942383 -0.943359 2.82812 -0.943359 3.77148v0.942383c0 0.943359 0 1.88574 -0.942383 2.8291v0.942383v2.8291v0.943359c0 0.942383 0 1.88574 0.942383 2.82812
c0 0.943359 0.943359 1.88574 0.943359 2.8291v0c1.88574 2.82812 3.77148 5.65723 7.54297 7.54297v0c0.943359 0.943359 1.88574 0.943359 2.8291 0.943359h0.942383c0.943359 0 1.88574 0.942383 2.8291 0.942383h1.88574s1.88574 0 2.8291 0.943359h0.942383h4.71484
h3.77148c3.77148 0 7.54297 -0.943359 10.3721 -1.88574v0c0.942383 0 0.942383 -0.943359 1.88574 -0.943359c0.943359 -0.942383 2.8291 -0.942383 3.77148 -1.88574v0c0.943359 -0.942383 0.943359 -0.942383 1.88574 -1.88574l0.943359 -0.943359
c0 -0.942383 0.942383 -0.942383 0.942383 -1.88574c0.943359 -0.942383 0.943359 -0.942383 0.943359 -1.88574h1.88574h1.88574v0c0.943359 0 0.943359 -0.942383 1.88574 -0.942383v0l0.943359 -0.943359v0l0.942383 -0.942383
c0 -0.943359 0.943359 -0.943359 0.943359 -1.88574v-0.943359v-1.88574v-0.943359v-1.88574v-0.942383v-1.88574v0c0 -0.943359 0 -0.943359 -0.943359 -1.88574v0c-0.942383 -1.88574 -1.88574 -4.71484 -2.82812 -6.60059
c0.942383 -0.943359 1.88574 -0.943359 1.88574 -1.88574v0s0 -0.943359 0.942383 -0.943359v0v-0.942383v-0.943359v-0.942383v-2.8291v-2.8291v0c0 -0.942383 0 -1.88574 -0.942383 -2.82812v0c-0.943359 -1.88574 -1.88574 -3.77148 -2.8291 -4.71484v0
l-0.943359 -0.942383v-2.8291v-0.943359c-0.942383 -3.77148 -1.88574 -6.59961 -2.82812 -8.48535v0c-1.88574 -2.8291 -2.8291 -4.71484 -4.71484 -5.6582v-1.88574v-6.60059v-2.82812c13.2012 -5.65723 38.6592 -16.9727 41.4883 -24.5156v0v-1.88574v-34.8877
c0 -1.88574 -1.88574 -3.77148 -3.77148 -3.77148h-84.8623h-31.1162h1.88574v3.77148v34.8877c0 5.65723 6.60059 10.3721 15.0869 16.0293z" />
    <glyph glyph-name="uniF13A" unicode="&#xf13a;" 
d="M503.467 448c5.12012 0 8.5332 -3.41309 8.5332 -8.5332v-494.934c0 -5.12012 -3.41309 -8.5332 -8.5332 -8.5332h-494.934c-5.12012 0 -8.5332 3.41309 -8.5332 8.5332v494.934c0 5.12012 3.41309 8.5332 8.5332 8.5332h494.934zM366.934 345.6h51.2002
c5.11914 0 8.5332 3.41406 8.5332 8.53418v17.0664c0 5.12012 -3.41406 8.5332 -8.5332 8.5332h-51.2002c-5.12012 0 -8.5332 -3.41309 -8.5332 -8.5332v-17.0664c0 -5.12012 3.41309 -8.53418 8.5332 -8.53418zM366.934 396.8h17.0664v34.1338h-119.467v-34.1338h17.0664
c14.5068 0 25.6006 -11.0928 25.6006 -25.5996v-17.0664c0 -14.5068 -11.0938 -25.6006 -25.6006 -25.6006h-17.0664v-187.733h17.0664c14.5068 0 25.6006 -11.0928 25.6006 -25.5996v-17.0664c0 -14.5068 -11.0938 -25.6006 -25.6006 -25.6006h-17.0664v-17.0664h17.0664
c14.5068 0 25.6006 -11.0938 25.6006 -25.6006v-17.0664c0 -14.5068 -11.0938 -25.5996 -25.6006 -25.5996h-17.0664v-34.1338h119.467v204.8h-17.0664c-14.5068 0 -25.6006 11.0938 -25.6006 25.6006v17.0664c0 14.5068 11.0938 25.6006 25.6006 25.6006h17.0664v17.0664
h-17.0664c-14.5068 0 -25.6006 11.0928 -25.6006 25.5996v17.0664c0 14.5068 11.0938 25.6006 25.6006 25.6006h17.0664v17.0664h-17.0664c-14.5068 0 -25.6006 11.0938 -25.6006 25.6006v17.0664c0 14.5068 11.0938 25.5996 25.6006 25.5996zM366.934 260.267h51.2002
c5.11914 0 8.5332 3.41309 8.5332 8.5332v17.0664c0 5.12012 -3.41406 8.53418 -8.5332 8.53418h-51.2002c-5.12012 0 -8.5332 -3.41406 -8.5332 -8.53418v-17.0664c0 -5.12012 3.41309 -8.5332 8.5332 -8.5332zM366.934 174.934h51.2002
c5.11914 0 8.5332 3.41309 8.5332 8.5332v17.0664c0 5.12012 -3.41406 8.5332 -8.5332 8.5332h-51.2002c-5.12012 0 -8.5332 -3.41309 -8.5332 -8.5332v-17.0664c0 -5.12012 3.41309 -8.5332 8.5332 -8.5332zM145.066 38.4004h-51.2002
c-5.11914 0 -8.5332 -3.41406 -8.5332 -8.53418v-17.0664c0 -5.12012 3.41406 -8.5332 8.5332 -8.5332h51.2002c5.12012 0 8.5332 3.41309 8.5332 8.5332v17.0664c0 5.12012 -3.41309 8.53418 -8.5332 8.53418zM145.066 -12.7998h-17.0664v-34.1338h119.467v34.1338
h-17.0664c-14.5068 0 -25.6006 11.0928 -25.6006 25.5996v17.0664c0 14.5068 11.0938 25.6006 25.6006 25.6006h17.0664v17.0664h-17.0664c-14.5068 0 -25.6006 11.0938 -25.6006 25.6006v17.0664c0 14.5068 11.0938 25.5996 25.6006 25.5996h17.0664v187.733h-17.0664
c-14.5068 0 -25.6006 11.0938 -25.6006 25.6006v17.0664c0 14.5068 11.0938 25.5996 25.6006 25.5996h17.0664v34.1338h-119.467v-34.1338h17.0664c14.5068 0 25.6006 -11.0928 25.6006 -25.5996v-17.0664c0 -14.5068 -11.0938 -25.6006 -25.6006 -25.6006h-17.0664
v-17.0664h17.0664c14.5068 0 25.6006 -11.0938 25.6006 -25.6006v-17.0664c0 -14.5068 -11.0938 -25.5996 -25.6006 -25.5996h-17.0664v-187.733h17.0664c14.5068 0 25.6006 -11.0938 25.6006 -25.6006v-17.0664c0 -14.5068 -11.0938 -25.5996 -25.6006 -25.5996z
M145.066 294.4h-51.2002c-5.11914 0 -8.5332 -3.41406 -8.5332 -8.53418v-17.0664c0 -5.12012 3.41406 -8.5332 8.5332 -8.5332h51.2002c5.12012 0 8.5332 3.41309 8.5332 8.5332v17.0664c0 5.12012 -3.41309 8.53418 -8.5332 8.53418zM145.066 379.733h-51.2002
c-5.11914 0 -8.5332 -3.41309 -8.5332 -8.5332v-17.0664c0 -5.12012 3.41406 -8.53418 8.5332 -8.53418h51.2002c5.12012 0 8.5332 3.41406 8.5332 8.53418v17.0664c0 5.12012 -3.41309 8.5332 -8.5332 8.5332zM230.4 345.6h51.1992
c5.12012 0 8.53418 3.41406 8.53418 8.53418v17.0664c0 5.12012 -3.41406 8.5332 -8.53418 8.5332h-51.1992c-5.12012 0 -8.53418 -3.41309 -8.53418 -8.5332v-17.0664c0 -5.12012 3.41406 -8.53418 8.53418 -8.53418zM230.4 89.5996h51.1992
c5.12012 0 8.53418 3.41406 8.53418 8.53418v17.0664c0 5.12012 -3.41406 8.5332 -8.53418 8.5332h-51.1992c-5.12012 0 -8.53418 -3.41309 -8.53418 -8.5332v-17.0664c0 -5.12012 3.41406 -8.53418 8.53418 -8.53418zM230.4 4.2666h51.1992
c5.12012 0 8.53418 3.41309 8.53418 8.5332v17.0664c0 5.12012 -3.41406 8.53418 -8.53418 8.53418h-51.1992c-5.12012 0 -8.53418 -3.41406 -8.53418 -8.53418v-17.0664c0 -5.12012 3.41406 -8.5332 8.53418 -8.5332zM17.0664 430.934v-477.867h93.8672v34.1338h-17.0674
c-14.5059 0 -25.5996 11.0928 -25.5996 25.5996v17.0664c0 14.5068 11.0938 25.6006 25.5996 25.6006h17.0674v187.733h-17.0674c-14.5059 0 -25.5996 11.0928 -25.5996 25.5996v17.0664c0 14.5068 11.0938 25.6006 25.5996 25.6006h17.0674v17.0664h-17.0674
c-14.5059 0 -25.5996 11.0938 -25.5996 25.6006v17.0664c0 14.5068 11.0938 25.5996 25.5996 25.5996h17.0674v34.1338h-93.8672zM494.934 -46.9336v477.867h-93.8672v-34.1338h17.0674c14.5059 0 25.5996 -11.0928 25.5996 -25.5996v-17.0664
c0 -14.5068 -11.0938 -25.6006 -25.5996 -25.6006h-17.0674v-17.0664h17.0674c14.5059 0 25.5996 -11.0938 25.5996 -25.6006v-17.0664c0 -14.5068 -11.0938 -25.5996 -25.5996 -25.5996h-17.0674v-17.0664h17.0674c14.5059 0 25.5996 -11.0938 25.5996 -25.6006v-17.0664
c0 -14.5068 -11.0938 -25.6006 -25.5996 -25.6006h-17.0674v-204.8h93.8672z" />
    <glyph glyph-name="uniF112" unicode="&#xf112;" horiz-adv-x="511" 
d="M339.2 198.4h-166.399c-3.54004 0 -6.40039 2.86719 -6.40039 6.39941c0 3.5332 2.86035 6.40039 6.40039 6.40039h166.399c3.53906 0 6.40039 -2.86719 6.40039 -6.40039c0 -3.53223 -2.86133 -6.39941 -6.40039 -6.39941zM128 204.8
c0 -3.53223 -2.86035 -6.39941 -6.39941 -6.39941h-25.6006c-3.53906 0 -6.39941 2.86719 -6.39941 6.39941c0 3.5332 2.86035 6.40039 6.39941 6.40039h25.6006c3.53906 0 6.39941 -2.86719 6.39941 -6.40039zM345.601 153.6
c0 -3.53223 -2.86133 -6.39941 -6.40039 -6.39941h-166.399c-3.54004 0 -6.40039 2.86719 -6.40039 6.39941c0 3.5332 2.86035 6.40039 6.40039 6.40039h166.399c3.53906 0 6.40039 -2.86719 6.40039 -6.40039zM128 153.6c0 -3.53223 -2.86035 -6.39941 -6.39941 -6.39941
h-25.6006c-3.53906 0 -6.39941 2.86719 -6.39941 6.39941c0 3.5332 2.86035 6.40039 6.39941 6.40039h25.6006c3.53906 0 6.39941 -2.86719 6.39941 -6.40039zM345.601 102.4c0 -3.5332 -2.86133 -6.40039 -6.40039 -6.40039h-166.399
c-3.54004 0 -6.40039 2.86719 -6.40039 6.40039c0 3.53223 2.86035 6.39941 6.40039 6.39941h166.399c3.53906 0 6.40039 -2.86719 6.40039 -6.39941zM128 102.4c0 -3.5332 -2.86035 -6.40039 -6.39941 -6.40039h-25.6006c-3.53906 0 -6.39941 2.86719 -6.39941 6.40039
c0 3.53223 2.86035 6.39941 6.39941 6.39941h25.6006c3.53906 0 6.39941 -2.86719 6.39941 -6.39941zM416 70.4004c0 -21.1777 -17.2217 -38.4004 -38.3994 -38.4004h-307.2c-21.1777 0 -38.4004 17.2227 -38.4004 38.4004v217.6c0 21.1777 17.2227 38.4004 38.4004 38.4004
h307.2c21.1777 0 38.3994 -17.2227 38.3994 -38.4004v-217.6zM377.601 313.6h-307.2c-14.1182 0 -25.5996 -11.4814 -25.5996 -25.5996v-217.6c0 -14.1191 11.4814 -25.6006 25.5996 -25.6006h307.2c14.1182 0 25.5996 11.4814 25.5996 25.6006v217.6
c0 14.1182 -11.4814 25.5996 -25.5996 25.5996zM403.2 262.4c0 0 -0.0634766 -12.8008 0 -12.8008h-358.399c0.115234 0 0.115234 12.8008 0 12.8008h358.399zM96 288c0 -7.05957 -5.74707 -12.7998 -12.7998 -12.7998s-12.7998 5.74023 -12.7998 12.7998
s5.74707 12.7998 12.7998 12.7998s12.7998 -5.74023 12.7998 -12.7998zM89.6006 288l-6.39355 -0.00683594c-0.00683594 0 -0.00683594 0.0136719 -0.00683594 0.0136719zM134.4 288c0 -7.05957 -5.74707 -12.7998 -12.7998 -12.7998s-12.7998 5.74023 -12.7998 12.7998
s5.74707 12.7998 12.7998 12.7998s12.7998 -5.74023 12.7998 -12.7998zM128 288l-6.39355 -0.00683594c-0.00585938 0 -0.00585938 0.0136719 -0.00585938 0.0136719zM172.801 288c0 -7.05957 -5.74805 -12.7998 -12.8008 -12.7998s-12.7998 5.74023 -12.7998 12.7998
s5.74707 12.7998 12.7998 12.7998s12.8008 -5.74023 12.8008 -12.7998zM166.4 288l-6.39355 -0.00683594c-0.00683594 0 -0.00683594 0.0136719 -0.00683594 0.0136719z" />
    <glyph glyph-name="uniF115" unicode="&#xf115;" 
d="M250.944 38.3301v39.3662h38.1309v-39.3662h-38.1309zM185.594 229.293v0c0 27.2578 7.89062 49.1777 23.667 65.7725c15.7822 16.5889 37.4463 24.8896 64.9922 24.8896c25.4785 0 45.8818 -7.09766 61.2031 -21.293s22.9883 -32.332 22.9883 -54.4121
c0 -13.376 -2.77734 -24.2305 -8.33203 -32.5576c-5.56152 -8.32617 -16.9473 -20.5625 -34.1699 -36.7168c-12.5244 -11.7305 -20.6719 -21.6699 -24.4541 -29.8047c-3.78223 -8.14062 -5.6709 -20.1602 -5.6709 -36.0576h-34.1113c0 18.042 2.17578 32.583 6.51465 43.623
c4.3457 11.04 14.0098 23.6924 28.9922 37.9521l15.6416 14.9502c4.69141 4.28809 8.49316 8.76758 11.4111 13.4395c5.30566 8.19824 7.96191 16.7168 7.96191 25.5488c0 12.3652 -3.81445 23.0918 -11.4502 32.1729c-7.62891 9.08789 -20.249 13.626 -37.8555 13.626
c-21.7861 0 -36.8447 -7.82129 -45.1973 -23.4688c-4.69141 -8.7041 -7.36621 -21.2607 -8.01855 -37.6641h-34.1123z" />
    <glyph glyph-name="uniF120" unicode="&#xf120;" 
d="M432.519 165.369l-101.888 -101.888c-7.49512 -7.50098 -19.6553 -7.50098 -27.1494 0c-7.50098 7.49414 -7.50098 19.6543 0 27.1494l75.7637 75.7695h-257.646c-10.6045 0 -19.1992 8.59473 -19.1992 19.1992c0 10.6055 8.59473 19.2002 19.1992 19.2002h257.646
l-75.7637 75.7695c-7.50098 7.49512 -7.50098 19.6543 0 27.1494c7.49414 7.5 19.6543 7.5 27.1494 0l101.888 -101.889c5.4082 -5.40137 6.6875 -13.1514 4.29395 -19.9033c2.68164 -6.88672 1.26758 -15.002 -4.29395 -20.5576z" />
    <glyph glyph-name="uniF118" unicode="&#xf118;" 
d="M429.248 279.271v-200.313c0 -33.1777 -26.918 -60.0967 -60.1084 -60.0967h-39.2129v124.16h41.5225l6.27246 48.3975h-47.7949v30.8926c0 13.9775 3.74316 23.3594 24.0059 23.3594l25.459 0.211914v43.2002c-4.37695 0.620117 -19.6221 1.86816 -37.1455 1.86816
c-36.9277 0 -62.3867 -22.5273 -62.3867 -63.8525v-35.6797h-41.7412v-48.3975h41.7412v-124.16h-111.002c-33.1904 0 -60.1084 26.9189 -60.1084 60.0967v200.313c0 33.1709 26.918 60.0898 60.1084 60.0898h200.282c33.1904 0 60.1084 -26.9189 60.1084 -60.0898z" />
    <glyph glyph-name="uniF125" unicode="&#xf125;" 
d="M244.214 -39.4844c-64.1182 0 -126.351 25.459 -172.553 71.6611c-46.2021 45.2598 -71.6611 106.549 -71.6611 171.609s25.459 126.351 71.6611 172.553s107.492 71.6611 172.553 71.6611s126.35 -25.459 172.553 -71.6611
c60.3457 -60.3467 83.9189 -145.208 65.0605 -227.241c-1.88574 -7.54297 -9.42969 -12.2578 -16.9727 -10.3721s-12.2578 9.42871 -10.3721 16.9727c16.9727 72.6035 -4.71484 148.036 -57.5176 200.84c-83.9189 83.9189 -220.641 83.9189 -304.56 0
c-41.4883 -40.5459 -64.1182 -95.2344 -64.1182 -152.752s22.6299 -111.263 63.1748 -151.809c45.2598 -45.2598 107.492 -67.8887 171.61 -62.2314c7.54297 0.942383 15.0859 -4.71484 15.0859 -13.2012c0.943359 -7.54297 -4.71484 -15.0859 -13.2002 -15.0859
c-6.60059 -0.943359 -14.1436 -0.943359 -20.7441 -0.943359zM402.622 358.424zM346.048 52.9209c0.943359 28.2871 19.8008 49.9746 49.0312 49.9746c37.7168 0 49.9746 -23.5732 49.9746 -38.6602c0 -19.8008 -8.48633 -27.3438 -16.9727 -33.9443
s-17.915 -11.3154 -19.8008 -23.5732v-7.54297h-27.3447v9.42969c0.943359 17.915 9.42871 25.458 17.915 31.1152c7.54395 6.60059 15.0869 11.3154 15.0869 21.6875c0 12.2578 -6.60059 17.915 -16.9727 17.915c-14.1436 0 -20.7441 -12.2578 -20.7441 -26.4014h-30.1729z
M378.106 -28.1689c0 8.85254 7.17676 16.0293 16.0303 16.0293c8.85254 0 16.0293 -7.17676 16.0293 -16.0293c0 -8.85352 -7.17676 -16.0303 -16.0293 -16.0303c-8.85352 0 -16.0303 7.17676 -16.0303 16.0303zM188.582 304.678h110.32v-22.6299h-83.9189v-67.8896h77.3184
v-21.6865h-77.3184v-93.3486h-26.4014v205.555z" />
    <glyph glyph-name="uniF11B" unicode="&#xf11b;" 
d="M416.448 72.5566c0 -33.1777 -26.9189 -60.0957 -60.1094 -60.0957h-200.281c-33.1904 0 -60.1084 26.918 -60.1084 60.0957v200.313c0 33.1719 26.918 60.0898 60.1084 60.0898h200.281c33.1904 0 60.1094 -26.918 60.1094 -60.0898v-200.313zM337.785 225.293
c9.18457 5.42676 16.0576 14.1885 19.4053 24.4092c-8.54395 -5.00488 -17.9453 -8.76172 -27.9551 -10.6299c-7.93652 8.5498 -19.4053 13.7666 -31.9424 13.7666c-24.1797 0 -43.8018 -19.623 -43.8018 -43.8213c0 -3.32812 0.210938 -6.89258 1.03027 -10.0098
c-36.499 1.875 -68.8379 19.2002 -90.5537 45.9072c-3.74414 -6.4834 -6.05371 -14.1953 -6.05371 -22.1309c0 -15.2256 7.08398 -28.5762 18.9756 -36.5059c-7.2959 0.198242 -14.1699 2.29785 -20.832 5.41406v-0.40918c0 -21.2803 16.0576 -39.0146 36.0771 -42.9824
c-3.74414 -1.0498 -6.66309 -1.67676 -10.6504 -1.67676c-2.70703 0 -5.41406 0.428711 -8.12109 0.837891c5.62598 -17.3242 21.6895 -30.041 40.8896 -30.4639c-15.0342 -11.6865 -33.7988 -18.7832 -54.458 -18.7832c-3.55176 0 -7.08496 0.210938 -10.4316 0.639648
c19.4111 -12.3203 42.3428 -19.6221 67.2002 -19.6221c80.5186 0 124.78 66.7705 124.78 124.78c0 1.875 0 3.75684 -0.210938 5.63184c8.54395 6.04785 16.0576 13.7734 21.9004 22.752c-7.94238 -3.55762 -16.2744 -5.85547 -25.248 -7.10352z" />
    <glyph glyph-name="uniF110" unicode="&#xf110;" 
d="M262.381 345.613c88.3076 0 160.006 -71.6992 160.006 -160.007s-71.6982 -160.007 -160.006 -160.007s-160.007 71.6992 -160.007 160.007s71.6992 160.007 160.007 160.007zM257.9 334.81c-33.2158 -0.793945 -63.5322 -12.6523 -87.7822 -31.8975
c4.48047 2.37402 9.49121 3.42383 14.7646 3.42383c10.8037 0 20.5576 -5.00488 27.1494 -13.4395l0.261719 -0.262695c5.27441 -7.12305 7.64844 -15.8213 6.85449 -23.9941c11.5967 6.06738 24.7812 9.75391 38.752 10.5479v55.6221zM262.381 101.779
c46.1309 0 83.5645 37.1709 83.5645 83.3027c0 8.69727 -1.58008 17.1328 -3.95508 25.043c0 0.261719 -0.262695 0.524414 -0.262695 0.787109c-0.268555 1.31836 -0.792969 2.63672 -1.31836 3.95508c-0.53125 0.793945 -0.792969 1.58105 -1.05566 2.37402
c0 0.262695 -0.262695 0.787109 -0.524414 1.31836c-8.7041 19.7705 -24.5186 35.3223 -44.2881 43.7568c-10.0166 4.48047 -21.0879 6.85449 -32.6846 6.85449c-45.8691 0 -83.04 -37.1709 -83.3027 -82.7705c0 -4.21777 0.524414 -8.43555 1.05566 -12.3906
c5.53613 -40.8574 40.5957 -72.2305 82.7715 -72.2305z" />
    <glyph glyph-name="uniF121" unicode="&#xf121;" 
d="M314.221 51.29c-4.70996 0 -9.4209 1.83594 -13.0176 5.49707l-110.438 112.524c-7.19336 7.32812 -7.19336 19.1943 0 26.5225l110.438 112.531c7.19336 7.32129 18.8418 7.32129 26.0293 0c7.19336 -7.32812 7.19336 -19.1943 0 -26.5225l-97.4277 -99.2695
l97.4277 -99.2705c7.19336 -7.32227 7.19336 -19.1943 0 -26.5156c-3.59766 -3.66113 -8.30078 -5.49707 -13.0117 -5.49707z" />
    <glyph glyph-name="uniF129" unicode="&#xf129;" 
d="M242.328 -39.4844c-125.407 0 -232.899 96.1768 -244.214 223.47c-11.3154 133.894 87.6904 253.643 222.526 265.9c83.9189 7.54297 165.952 -29.2305 216.869 -95.2334c4.71484 -6.60059 3.77246 -16.0303 -3.77148 -20.7441v0
c-6.60059 -3.77148 -14.1436 -2.8291 -18.8584 2.82812c-56.5742 73.5469 -155.58 105.606 -247.984 71.6611c-82.9766 -30.1729 -138.608 -109.377 -140.494 -197.067c-2.8291 -131.064 108.435 -232.899 235.728 -221.584c58.46 5.65723 112.206 33.9443 148.979 79.2041
c4.71484 5.65723 13.2012 6.60059 18.8584 2.8291v0c6.60059 -4.71484 7.54297 -14.1436 2.8291 -20.7441c-41.4883 -51.8604 -101.835 -83.9189 -168.781 -89.5762c-6.60059 -0.943359 -14.1436 -0.943359 -21.6865 -0.943359zM493.142 213.216
c3.77148 -3.77246 4.71484 -8.48633 4.71484 -11.3154c0.942383 -3.77148 0 -8.48633 -3.77148 -12.2578l-60.3467 -60.3457c-2.82812 -2.8291 -6.60059 -3.77246 -10.3721 -3.77246s-7.54297 0.943359 -10.3721 3.77246c-5.65723 4.71387 -5.65723 14.1436 0 19.8008
l37.7168 37.7168h-310.218c-7.54297 0 -14.1436 6.59961 -14.1436 14.1436c0 7.54297 6.60059 14.1436 14.1436 14.1436h311.16l-38.6592 38.6592c-5.65723 4.71484 -5.65723 14.1436 0 19.8008c4.71484 5.65723 14.1436 5.65723 19.8018 0zM95.2334 350.88z" />
    <glyph glyph-name="uniF128" unicode="&#xf128;" 
d="M317.761 190.586c-1.88574 28.2871 -3.77148 63.1748 -3.77148 87.6904h-0.943359c-7.54297 -23.5732 -15.0859 -49.0312 -25.458 -77.3184l-35.8311 -99.0059h-19.8008l-33.002 97.1201c-9.42969 28.2871 -17.915 54.6885 -23.5732 79.2041h-0.942383
c-0.943359 -25.459 -1.88574 -59.4033 -3.77148 -89.5762l-5.6582 -86.748h-25.458l14.1436 203.669h34.8877l34.8877 -98.0635c8.48633 -25.458 15.0869 -48.0879 20.7441 -68.832h0.942383c5.6582 20.7441 12.2578 43.374 21.6875 68.832l34.8877 96.1768h33.9443
l12.2578 -203.668h-26.4014zM242.328 -37.5986c-64.1182 0 -125.407 25.459 -171.61 70.7188c-45.2588 46.2021 -70.7178 107.491 -70.7178 172.552c0 65.0615 25.459 125.407 70.7178 171.61c46.2031 45.2588 107.492 70.7178 171.61 70.7178
c65.0605 0 125.406 -25.459 171.609 -70.7178c59.4033 -59.4033 83.9189 -144.266 65.0605 -226.299c-1.88574 -7.54297 -9.42871 -12.2578 -16.9727 -10.3721c-7.54297 1.88574 -12.2578 9.42871 -10.3721 16.9727c16.9727 72.6035 -4.71387 147.094 -57.5166 199.896
c-83.9189 83.9189 -219.698 83.9189 -302.675 0c-40.5449 -41.4883 -63.1748 -95.2334 -63.1748 -151.809c0 -56.5742 22.6299 -111.263 63.1748 -151.809c45.2598 -45.2588 107.492 -67.8887 170.667 -62.2314c7.54297 0.942383 15.0869 -4.71484 15.0869 -13.2012
c0.942383 -7.54297 -4.71484 -15.0859 -13.2012 -15.0859c-7.54297 0 -14.1436 -0.943359 -21.6865 -0.943359zM400.736 359.366zM429.024 51.9775h28.2871c5.65723 0 9.42871 -4.71387 9.42871 -9.42871v-9.42871h-132.007v9.42871
c0 5.65723 4.71387 9.42871 9.42871 9.42871h28.2871v18.8584h56.5752v-18.8584zM419.595 51.9775v9.42969h-37.7158v-9.42969h37.7158zM416.767 54.8066zM438.453 4.83203l1.88574 17.916l27.3447 0.942383v-56.5742c0 -5.65723 -4.71484 -10.3721 -10.3721 -10.3721
h-112.207c-5.65723 0 -10.3711 4.71484 -10.3711 10.3721v55.6318l28.2871 0.942383v-18.8584h9.42871v18.8584h56.5752v-18.8584h9.42871zM439.396 10.4902z" />
    <glyph glyph-name="uniF123" unicode="&#xf123;" 
d="M245.156 453.657c125.407 0 232.899 -96.1768 244.214 -223.47c12.2578 -134.836 -87.6904 -253.643 -222.526 -265.9c-83.9189 -7.54297 -165.01 28.2871 -215.927 95.2344c-5.65723 6.59961 -3.77148 16.0293 2.8291 20.7441v0
c6.60059 3.77148 14.1436 2.82812 18.8584 -2.8291c56.5742 -73.5469 155.58 -105.605 247.984 -71.6611c82.9766 30.1729 139.551 109.378 141.437 197.068c2.8291 131.064 -109.377 232.898 -235.727 221.584c-58.4609 -5.6582 -112.207 -33.9453 -148.98 -79.2051
c-4.71387 -5.65723 -13.2002 -6.60059 -18.8584 -2.82812v0c-7.54297 4.71387 -8.48535 14.1436 -3.77148 20.7432c41.4883 50.918 101.835 83.9189 168.781 89.5771c7.54297 0.942383 15.0869 0.942383 21.6865 0.942383zM-5.65723 200.958
c-2.8291 3.77148 -3.77148 8.48535 -3.77148 12.2578c0 4.71387 0.942383 9.42871 3.77148 12.2578l60.3457 60.3457c2.8291 2.8291 6.60059 3.77148 10.3721 3.77148s7.54395 -0.942383 10.3721 -3.77148c5.65723 -4.71484 5.65723 -14.1436 0 -19.8008l-37.7158 -37.7168
h75.4326c7.54297 0 14.1436 -6.60059 14.1436 -14.1436s-6.60059 -14.1436 -14.1436 -14.1436h-76.376l38.6592 -38.6592c5.65723 -5.65723 5.65723 -15.0869 -0.942383 -20.7441c-4.71484 -5.65723 -14.1436 -5.65723 -19.8018 0zM392.25 62.3496zM304.56 172.67
l23.5732 71.6611c2.82812 11.3154 8.48633 14.1445 16.9717 14.1445h43.374c-3.77148 -0.943359 -5.65723 -10.3721 -5.65723 -10.3721l-20.7441 -71.6611c-2.82812 -9.42969 -9.42871 -14.1436 -17.915 -14.1436h-45.2598
c1.88574 0.942383 5.65723 10.3711 5.65723 10.3711zM235.728 172.67l-23.5732 71.6611c-2.82812 11.3154 -8.48535 14.1445 -16.9717 14.1445h-43.374c3.77148 -0.943359 5.65723 -10.3721 5.65723 -10.3721l20.7441 -71.6611
c2.8291 -9.42969 9.42871 -14.1436 17.915 -14.1436h45.2598c-1.88574 0.942383 -5.65723 10.3711 -5.65723 10.3711zM245.156 162.299v95.2334h50.917v-95.2334h-50.917z" />
    <glyph glyph-name="uniF135" unicode="&#xf135;" 
d="M379.114 -64h-329.607c-27.3594 0 -49.5068 20.8447 -49.5068 46.9004c0 113.344 96.4072 205.843 214.962 205.843s214.962 -92.499 214.962 -205.843c-1.30273 -26.0557 -23.4502 -46.9004 -50.8096 -46.9004zM214.962 167.898
c-105.526 0 -191.512 -83.3789 -191.512 -184.998c0 -14.3301 11.7256 -26.0557 27.3594 -26.0557h330.91c14.3311 0 27.3594 11.7256 27.3594 26.0557c-2.60547 101.619 -88.5908 184.998 -194.117 184.998zM214.962 222.616c-62.5342 0 -113.344 50.8086 -113.344 112.04
c0 62.5342 50.8096 112.041 113.344 112.041s113.344 -50.8096 113.344 -112.041c-1.30273 -61.2314 -52.1123 -112.04 -113.344 -112.04zM214.962 425.853c-49.5068 0 -89.8936 -40.3867 -89.8936 -91.1963c0 -49.5059 40.3867 -91.1953 89.8936 -91.1953
c49.5059 0 89.8926 40.3867 89.8926 91.1953c0 50.8096 -40.3867 91.1963 -89.8926 91.1963z" />
    <glyph glyph-name="uniF109" unicode="&#xf109;" 
d="M399.206 251.386l-4.51172 4.40332l-3.82031 -3.73828c19.7432 -25.6826 31.4814 -57.5869 31.4814 -92.1338c0 -84.6406 -70.3301 -153.517 -156.8 -153.517c-86.4521 0 -156.781 68.876 -156.781 153.517c0 79.6289 62.2275 145.261 141.556 152.787l0.587891 11.5391
h-11.4492c-9.68359 0 -17.4336 7.61621 -17.4336 16.9854c0 9.51074 7.75 17.1016 17.4336 17.1016h52.1602c9.70898 0 17.459 -7.59082 17.459 -17.1016c0 -9.36914 -7.75 -16.9854 -17.459 -16.9854h-10.3428v-11.5645
c38.0742 -3.73145 72.0771 -20.9414 97.2158 -46.5537l2.96387 2.62988l-4.99219 4.88379c-4.21777 4.12793 -4.21094 10.7578 -0.0380859 14.8418c4.23047 4.14062 10.9883 4.14062 15.2061 0.0126953l22.7324 -22.2598c4.23047 -4.14746 4.23047 -10.7578 0 -14.8994
c-4.17285 -4.08301 -10.9375 -4.0957 -15.168 0.0517578zM265.556 299.955c-78.8418 0 -142.989 -62.8154 -142.989 -140.038c0 -77.2031 64.1475 -140.007 142.989 -140.007c78.8408 0 143.008 62.8037 143.008 140.007c0 77.2227 -64.167 140.038 -143.008 140.038z
M262.003 111.334c-11.2002 0 -20.3584 8.86426 -20.3584 19.9297c0 7.40527 4.08301 13.7285 10.125 17.21v81.9844l10.9756 15.1992l9.60059 -15.1992v-81.9844c6.15039 -3.48145 10.125 -9.80469 10.125 -17.21c0 -11.0654 -9.15918 -19.9297 -20.4678 -19.9297z" />
    <glyph glyph-name="uniF10F" unicode="&#xf10f;" 
d="M256 345.6c88.333 0 160 -71.8721 160 -160.134c0 -88.2559 -71.667 -159.866 -160 -159.866c-61.0879 0 -114.246 34.3496 -141.223 84.8193c-0.792969 1.3252 -1.58691 2.64355 -2.38086 3.96777c-1.32422 2.64355 -2.38086 5.28027 -3.17383 7.92383
c-8.46094 19.5586 -13.2227 40.96 -13.2227 63.4238c0 88.2559 71.667 159.865 160 159.865zM142.278 166.176c9.52344 0 18.5156 -4.22363 25.127 -11.0977c-3.4375 9.51074 -5.28711 19.8213 -5.28711 30.6562c0 50.4707 39.9297 91.6924 89.9141 93.8047v15.8525v24.5762
v15.0654c-80.6592 -2.38086 -145.453 -68.4414 -145.453 -149.299c0 -13.2158 1.84961 -26.1631 5.02441 -38.3164c3.43652 6.86719 9.25391 12.416 16.1338 15.5898h0.262695c4.49316 2.1123 9.25488 3.16797 14.2783 3.16797zM336.659 164.857
c1.85645 6.86719 2.64941 13.7412 2.64941 20.877c0 45.9775 -37.293 82.9697 -83.3086 82.9697s-83.3086 -37.2549 -83.3086 -83.2383c0 -36.9922 24.5947 -68.7041 58.1826 -79.2705c1.06152 -0.268555 2.11816 -0.268555 3.17383 -0.53125
c7.14258 -1.84961 14.2852 -2.90527 21.9521 -2.90527c36.4932 0 67.4365 23.5195 78.5469 56.2812c0.793945 1.84961 1.58789 3.69922 2.1123 5.81738z" />
    <glyph glyph-name="uniF12B" unicode="&#xf12b;" 
d="M303.407 283.022c13.2744 -12.3262 20.8594 -27.4961 21.8076 -43.6152h-25.5996c-2.84473 12.3262 -8.53418 21.8076 -17.0674 29.3926s-19.9111 10.4297 -35.0811 10.4297c-18.0146 0 -33.1855 -6.63672 -44.5635 -19.9111
c-11.377 -13.2734 -17.0664 -33.1846 -17.0664 -60.6816c0 -22.7549 4.74121 -40.7705 15.1709 -54.0439c10.4297 -14.2227 25.5996 -20.8594 45.5107 -20.8594c18.9629 0 33.1855 7.58496 42.667 21.8076c4.74023 7.58496 9.48145 18.0146 11.377 30.3408h25.6006
c-1.89648 -19.9111 -9.48145 -36.9785 -21.8076 -50.252c-15.1699 -16.1191 -35.0811 -24.6523 -60.6816 -24.6523c-21.8076 0 -39.8223 6.6377 -54.9922 19.9111c-19.9111 18.0146 -29.3926 45.5117 -29.3926 82.4893c0 28.4443 7.58496 51.2002 21.8076 69.2148
c16.1182 19.9111 37.9258 29.3926 65.4219 29.3926c24.6514 0 43.6152 -6.63672 56.8887 -18.9629v0zM416.237 371.2v0c56.8887 -56.8887 81.54 -135.585 67.3184 -213.334c-0.948242 -7.58496 -9.48145 -13.2734 -17.0664 -11.377
c-6.6377 1.89551 -11.3779 8.5332 -10.4297 16.1182c14.2217 81.541 -18.9629 164.029 -90.0742 213.333c-25.6006 18.0146 -56.8887 30.3408 -88.1777 35.082c-77.748 12.3262 -152.652 -17.0674 -202.904 -77.748c-24.6514 -30.3408 -40.7695 -67.3193 -45.5107 -106.193
c-8.5332 -68.2666 14.2227 -133.688 61.6299 -181.096c41.7188 -41.7188 99.5557 -64.4746 158.341 -62.5781c7.58496 0 13.2734 -5.68848 14.2217 -13.2734c0 -7.58594 -5.68848 -15.1709 -14.2217 -15.1709c-66.3711 -1.89648 -130.845 23.7041 -178.252 71.1113
c-45.5117 46.459 -71.1113 107.141 -71.1113 172.562c0 79.6445 37.9258 153.601 106.192 201.008c27.4961 19.9111 59.7334 33.1855 92.9189 38.874c81.54 14.2227 160.237 -10.4297 217.126 -67.3184zM444.682 93.3926v0
c2.84473 -3.79297 4.74023 -7.58496 4.74023 -11.3779l1.89648 -128.948c0 -4.74023 -1.89648 -8.5332 -4.74023 -11.3779c-2.84473 -2.84375 -6.6377 -4.74023 -11.3779 -4.74023l-64.4746 -0.948242c-4.74023 0 -8.5332 1.89648 -11.377 4.74121
c-2.84473 2.84375 -4.74121 6.63672 -4.74121 11.377l-1.89648 128.948c0 4.74121 1.89648 8.5332 4.74121 11.3779c2.84375 2.84473 6.63672 4.74121 11.3779 4.74121l64.4736 0.948242c4.74121 0 8.5332 -1.89648 11.3779 -4.74121zM391.585 81.0664v0
c-1.89648 0 -1.89648 -0.948242 -1.89648 -1.89648c0 -0.947266 0.948242 -1.89551 1.89648 -1.89551h19.9111c0.948242 0 1.89648 0.948242 1.89648 1.89551c0 0.948242 -0.948242 1.89648 -1.89648 1.89648h-19.9111zM410.548 -54.5186v0
c1.89648 1.89648 2.84473 3.79297 2.84473 7.58496c0 1.89648 0 4.74121 -2.84473 6.6377c-2.84375 1.89551 -4.74023 2.84375 -7.58496 2.84375c-1.89648 0 -4.74023 -0.948242 -6.63672 -2.84375c-1.89648 -2.84473 -2.84473 -4.74121 -2.84473 -7.58594
c0 -1.89551 0.948242 -4.74023 2.84473 -6.63672c2.84375 -1.89648 5.68848 -2.84473 7.58496 -2.84473s4.74023 0.948242 6.63672 2.84473zM438.045 -29.8662v0c0.947266 0.947266 0.947266 1.89551 0.947266 2.84375l-0.947266 88.1777
c0 0.948242 0 1.89648 -0.948242 2.84473s-1.89648 0.948242 -2.84473 0.948242l-64.4746 -0.948242c-0.947266 0 -1.89551 0 -2.84375 -0.948242s-0.948242 -1.89648 -0.948242 -2.84473l0.948242 -88.1777c0 -0.948242 0 -1.89551 0.948242 -2.84375
s1.89551 -0.948242 2.84375 -0.948242h64.4746c0.948242 0 1.89648 0.948242 2.84473 1.89648z" />
  </font>
</defs>
</svg>
