<?xml version="1.0" encoding="UTF-8" standalone="no"?>
<svg width="209px" height="26px" viewBox="0 0 209 26" version="1.1" xmlns="http://www.w3.org/2000/svg" xmlns:xlink="http://www.w3.org/1999/xlink">
    <!-- Generator: Sketch Beta 3.7 (28138) - http://www.bohemiancoding.com/sketch -->
    <title>Combined Shape</title>
    <desc>Created with Sketch Beta.</desc>
    <defs></defs>
    <g id="Page-1" stroke="none" stroke-width="1" fill="none" fill-rule="evenodd">
        <path d="M97.7210983,11.6947791 C97.7210983,8.49263722 95.4065295,6.35787595 90.7773917,6.35787595 C86.3797108,6.35787595 83.5559368,8.58545293 83.3707712,12.0196341 L86.287128,12.0196341 C86.5648763,9.51361 88.9720279,8.95671576 90.7311003,8.95671576 C93.6474571,8.95671576 94.9436157,9.97768853 94.9436157,11.3699241 C94.9436157,12.7157519 93.6011657,13.5046854 89.3886503,13.6903168 C84.9446781,13.9223561 82.3986523,15.5466309 82.3986523,19.0736278 C82.3986523,22.7862561 85.546466,24.3641231 89.1109021,24.3641231 C91.795802,24.3641231 93.7863312,23.4823739 94.9899071,21.9973226 C95.0361984,22.7862561 95.1750726,23.4823739 95.4065295,23.9464525 L98.1840121,23.9464525 C97.9062638,23.2967425 97.674807,21.9973226 97.674807,21.1619812 L97.674807,11.6947791 L97.7210983,11.6947791 L97.7210983,11.6947791 L97.7210983,11.6947791 Z M94.9436157,17.3565372 C94.8973243,20.4658634 92.1198416,21.7188755 89.2034848,21.7188755 C87.0277901,21.7188755 85.2224264,20.929942 85.2224264,19.02722 C85.2224264,17.5885765 86.0556712,16.2891566 89.8052727,16.0571173 C91.8420934,15.9178938 93.878914,15.6858545 94.9899071,14.7112896 L94.9899071,17.3565372 L94.9436157,17.3565372 Z M161.464325,11.6947791 C161.464325,8.49263722 159.149756,6.35787595 154.520619,6.35787595 C150.122938,6.35787595 147.299164,8.58545293 147.113998,12.0196341 L150.030355,12.0196341 C150.308103,9.51361 152.715255,8.95671576 154.474327,8.95671576 C157.390684,8.95671576 158.686843,9.97768853 158.686843,11.3699241 C158.686843,12.7157519 157.344393,13.5046854 153.131877,13.6903168 C148.687905,13.9223561 146.141879,15.5466309 146.141879,19.0736278 C146.141879,22.7862561 149.289693,24.3641231 152.854129,24.3641231 C155.539029,24.3641231 157.529558,23.4823739 158.733134,21.9973226 C158.779425,22.7862561 158.9183,23.4823739 159.149756,23.9464525 L161.927239,23.9464525 C161.649491,23.2967425 161.418034,21.9973226 161.418034,21.1619812 L161.418034,11.6947791 L161.464325,11.6947791 Z M158.686843,17.3565372 C158.640551,20.4658634 155.863069,21.7188755 152.946712,21.7188755 C150.771017,21.7188755 148.965653,20.929942 148.965653,19.02722 C148.965653,17.5885765 149.798898,16.2891566 153.5485,16.0571173 C155.58532,15.9178938 157.622141,15.6858545 158.733134,14.7112896 L158.733134,17.3565372 L158.686843,17.3565372 Z M206.737293,21.1619812 L206.737293,11.6947791 C206.737293,8.49263722 204.422724,6.35787595 199.793586,6.35787595 C195.395905,6.35787595 192.572131,8.58545293 192.386966,12.0196341 L195.303322,12.0196341 C195.581071,9.51361 197.988222,8.95671576 199.747295,8.95671576 C202.663652,8.95671576 203.95981,9.97768853 203.95981,11.3699241 C203.95981,12.7157519 202.61736,13.5046854 198.404845,13.6903168 C193.960872,13.9223561 191.414847,15.5466309 191.414847,19.0736278 C191.414847,22.7862561 194.56266,24.3641231 198.127096,24.3641231 C200.811996,24.3641231 202.802526,23.4823739 204.006101,21.9973226 C204.052393,22.7862561 204.191267,23.4823739 204.422724,23.9464525 L207.200207,23.9464525 C206.96875,23.2967425 206.737293,21.9973226 206.737293,21.1619812 Z M203.95981,17.3565372 C203.913519,20.4658634 201.136036,21.7188755 198.219679,21.7188755 C196.043984,21.7188755 194.238621,20.929942 194.238621,19.02722 C194.238621,17.5885765 195.071866,16.2891566 198.821467,16.0571173 C200.858288,15.9178938 202.895108,15.6858545 204.006101,14.7112896 L204.006101,17.3565372 L203.95981,17.3565372 Z M74.2513698,0.788933515 L64.5301805,0.788933515 L64.5301805,10.6738063 L66.3355442,12.1588576 L64.5301805,13.6439089 L64.5301805,23.9928603 L67.3539546,23.9928603 L67.3539546,14.8041053 L74.2513698,14.8041053 C79.0193817,14.8041053 81.6579903,11.8804105 81.6579903,7.79651942 C81.6579903,3.7126283 79.0193817,0.788933515 74.2513698,0.788933515 Z M74.2513698,12.1124498 L67.3539546,12.1124498 L67.3539546,3.48058903 L74.2513698,3.48058903 C76.9362697,3.48058903 78.8805076,4.73360108 78.8805076,7.79651942 C78.8805076,10.8594377 76.9362697,12.1124498 74.2513698,12.1124498 Z M126.375461,6.26506025 C121.422284,6.26506025 117.580099,10.441767 117.580099,15.5466309 C117.580099,20.605087 121.422284,24.6889781 126.375461,24.6889781 C131.37493,24.6889781 135.170823,20.605087 135.170823,15.5466309 C135.170823,10.3953592 131.328638,6.26506025 126.375461,6.26506025 Z M126.375461,21.9973226 C123.135065,21.9973226 120.496456,19.1200357 120.496456,15.5466309 C120.496456,11.8804105 123.135065,8.95671576 126.375461,8.95671576 C129.615857,8.95671576 132.300757,11.9268184 132.300757,15.5466309 C132.254466,19.0736278 129.615857,21.9973226 126.375461,21.9973226 Z M108.87732,6.35787595 C106.794208,6.35787595 105.035136,7.23962517 103.877851,8.67826864 L103.877851,6.82195449 L101.14666,6.82195449 L101.14666,23.9928603 L103.970434,23.9928603 L103.970434,13.4582775 C103.970434,10.9058456 105.868381,8.95671576 108.460698,8.95671576 C111.191889,8.95671576 112.673213,10.9058456 112.673213,13.5510932 L112.673213,23.9928603 L115.450696,23.9928603 L115.450696,13.5975011 C115.496987,9.32797859 113.089836,6.35787595 108.87732,6.35787595 Z M139.938835,8.72467649 L139.938835,6.77554664 L137.207643,6.77554664 L137.207643,23.9464525 L140.031417,23.9464525 L140.031417,14.0151718 C140.031417,10.5809906 142.577443,9.00312361 145.540091,9.18875503 L145.540091,6.40428381 C143.595854,6.12583669 141.234993,6.86836234 139.938835,8.72467649 Z M182.850942,6.35787595 C180.397499,6.35787595 178.545844,7.51807229 177.481142,9.28157073 C176.41644,7.42525659 174.611077,6.35787595 172.203925,6.35787595 C170.305978,6.35787595 168.732072,7.23962517 167.66737,8.67826864 L167.66737,6.82195449 L164.936179,6.82195449 L164.936179,23.9928603 L167.759953,23.9928603 L167.759953,13.4582775 C167.759953,10.9058456 169.472734,8.95671576 171.833594,8.95671576 C174.37962,8.95671576 175.675778,10.5809906 175.675778,13.2726461 L175.675778,23.9928603 L178.453261,23.9928603 L178.453261,13.4582775 C178.453261,10.9058456 180.166042,8.95671576 182.480611,8.95671576 C185.119219,8.95671576 186.369087,10.5809906 186.369087,13.2726461 L186.369087,23.9928603 L189.192861,23.9928603 L189.192861,13.319054 C189.239152,9.04953146 186.832,6.35787595 182.850942,6.35787595 Z M8.1009911,12.994199 C7.59178594,12.994199 7.17516354,12.5765283 7.17516354,12.0660419 C7.17516354,11.5555555 7.59178594,11.1378848 8.1009911,11.1378848 L21.0625768,11.1378848 C20.8774113,9.65283356 20.229332,8.26059795 19.118339,7.10040161 L12.0357582,1.77635684e-15 L0,12.0660419 L12.0357582,24.1320839 L17.405558,18.7487728 C17.4518494,18.702365 17.4518494,18.702365 17.4981408,18.6559571 L19.118339,17.0316823 C19.1646304,16.9852744 19.1646304,16.9852744 19.2109217,16.9388666 C20.3219148,15.8250781 20.9699941,14.3864346 21.1551596,12.9477911 L8.1009911,12.9477911 L8.1009911,12.994199 Z M58.6974669,0.788933515 L42.0788623,0.788933515 L42.0788623,5.15127175 L48.1430328,5.15127175 L48.1430328,23.8536367 L52.7721706,23.8536367 L52.7721706,5.15127175 L58.8826324,5.15127175 L58.8826324,0.788933515 L58.6974669,0.788933515 Z M39.0236314,11.5555555 C40.3660814,10.4881749 41.1530348,8.9103079 41.1530348,7.10040161 C41.1530348,5.10486391 40.5512469,3.57340474 39.3939624,2.45961625 C38.1903866,1.34582776 36.4313142,0.788933515 34.1630367,0.788933515 L23.5623112,0.788933515 L23.5623112,9.97768853 L26.2009198,12.0660419 L23.5623112,14.1543953 L23.5623112,23.8536367 L34.7648246,23.8536367 C39.2087969,23.8536367 42.032571,21.1619812 42.032571,16.9852744 C42.032571,14.572066 41.0141606,12.669344 39.0236314,11.5555555 Z M28.1451576,5.0120482 L34.1630367,5.0120482 C35.6906522,5.0120482 36.6627711,5.89379742 36.6627711,7.33244088 C36.6627711,8.72467649 35.5980694,9.69924143 34.1630367,9.69924143 L28.1451576,9.69924143 L28.1451576,5.0120482 Z M34.1630367,19.5841142 L28.1451576,19.5841142 L28.1451576,14.0151718 L34.070454,14.0151718 C36.153566,14.0151718 37.3108504,15.0361446 37.3108504,16.8460508 C37.3108504,19.1200357 35.5980694,19.5841142 34.1630367,19.5841142 Z" id="Combined-Shape" fill="#FFFFFF"></path>
    </g>
</svg>