<?xml version="1.0" encoding="UTF-8" standalone="no"?>
<svg width="166px" height="40px" viewBox="0 0 166 40" version="1.1" xmlns="http://www.w3.org/2000/svg" xmlns:xlink="http://www.w3.org/1999/xlink" xmlns:sketch="http://www.bohemiancoding.com/sketch/ns">
    <!-- Generator: Sketch 3.5.1 (25234) - http://www.bohemiancoding.com/sketch -->
    <title>btn-chat</title>
    <desc>Created with Sketch.</desc>
    <defs></defs>
    <g id="components" stroke="none" stroke-width="1" fill="none" fill-rule="evenodd" sketch:type="MSPage">
        <g id="component---chat" sketch:type="MSArtboardGroup" transform="translate(-382.000000, -384.000000)">
            <g id="Mask-+-Bitmap-+-btn-chat" sketch:type="MSLayerGroup" transform="translate(382.000000, 384.000000)">
                <g id="btn-chat" sketch:type="MSShapeGroup">
                    <path d="M22,39.9012495 L22,40 L172,40 L172,0 L22,0 L22,0.0987504852 C21.3421875,0.0334388845 20.6749988,0 20,0 C8.954305,0 0,8.954305 0,20 C0,31.045695 8.954305,40 20,40 C20.6749988,40 21.3421875,39.9665611 22,39.9012495 Z" id="Rectangle-232" fill="#9E005D"></path>
                    <g id="icon-chat" transform="translate(18.000000, 13.000000)">
                        <path d="M0.886792871,13.3221373 L2.11051312,13.3221373 L2.11051312,16.4773663 L6.20862826,13.3221373 L20.2978532,13.3221373 C20.7873413,13.3221373 21.1851852,12.9266591 21.1851852,12.4382219 L21.1851852,1.05156386 C21.1851852,0.350342175 20.8331635,0 20.2978532,0 L0.886792871,0 C0.351482645,0 0,0.350342175 0,1.05156386 L0,12.4382219 C0,12.9266591 0.397304769,13.3221373 0.886792871,13.3221373 Z" id="Stroke-1" stroke="#FFFFFF" stroke-width="2" stroke-linecap="round" stroke-linejoin="round"></path>
                        <path d="M8.14814815,6.92592593 C8.14814815,7.60163809 7.60130587,8.14814815 6.92518293,8.14814815 C6.25054599,8.14814815 5.7037037,7.60163809 5.7037037,6.92592593 C5.7037037,6.25021376 6.25054599,5.7037037 6.92518293,5.7037037 C7.60130587,5.7037037 8.14814815,6.25021376 8.14814815,6.92592593 L8.14814815,6.92592593 Z" id="Stroke-3" fill="#FFFFFF"></path>
                        <path d="M16.2962963,6.92592593 C16.2962963,7.60163809 15.749454,8.14814815 15.0733311,8.14814815 C14.3972082,8.14814815 13.8518519,7.60163809 13.8518519,6.92592593 C13.8518519,6.25021376 14.3972082,5.7037037 15.0733311,5.7037037 C15.749454,5.7037037 16.2962963,6.25021376 16.2962963,6.92592593 L16.2962963,6.92592593 Z" id="Stroke-5" fill="#FFFFFF"></path>
                        <path d="M12.2222222,6.92592593 C12.2222222,7.60163809 11.6753799,8.14814815 10.999257,8.14814815 C10.3246201,8.14814815 9.77777778,7.60163809 9.77777778,6.92592593 C9.77777778,6.25021376 10.3246201,5.7037037 10.999257,5.7037037 C11.6753799,5.7037037 12.2222222,6.25021376 12.2222222,6.92592593 L12.2222222,6.92592593 Z" id="Stroke-7" fill="#FFFFFF"></path>
                    </g>
                    <path d="M54.696,18.156 C54.6319997,17.9079988 54.5440006,17.680001 54.432,17.472 C54.3199994,17.263999 54.1760009,17.0840008 54,16.932 C53.8239991,16.7799992 53.6180012,16.6620004 53.382,16.578 C53.1459988,16.4939996 52.8720016,16.452 52.56,16.452 C52.1039977,16.452 51.7100017,16.5439991 51.378,16.728 C51.0459983,16.9120009 50.776001,17.1579985 50.568,17.466 C50.359999,17.7740015 50.2060005,18.123998 50.106,18.516 C50.0059995,18.908002 49.956,19.307998 49.956,19.716 C49.956,20.124002 50.0059995,20.523998 50.106,20.916 C50.2060005,21.308002 50.359999,21.6579985 50.568,21.966 C50.776001,22.2740015 51.0459983,22.5199991 51.378,22.704 C51.7100017,22.8880009 52.1039977,22.98 52.56,22.98 C52.8960017,22.98 53.1919987,22.9220006 53.448,22.806 C53.7040013,22.6899994 53.9239991,22.530001 54.108,22.326 C54.2920009,22.121999 54.4359995,21.8840014 54.54,21.612 C54.6440005,21.3399986 54.7119998,21.0480016 54.744,20.736 L56.208,20.736 C56.1759998,21.2480026 56.0660009,21.7159979 55.878,22.14 C55.6899991,22.5640021 55.4360016,22.9299985 55.116,23.238 C54.7959984,23.5460015 54.4200022,23.7839992 53.988,23.952 C53.5559978,24.1200008 53.0800026,24.204 52.56,24.204 C51.9199968,24.204 51.3460025,24.0860012 50.838,23.85 C50.3299975,23.6139988 49.9000018,23.292002 49.548,22.884 C49.1959982,22.475998 48.9260009,22.0000027 48.738,21.456 C48.5499991,20.9119973 48.456,20.3320031 48.456,19.716 C48.456,19.107997 48.5499991,18.5320027 48.738,17.988 C48.9260009,17.4439973 49.1959982,16.968002 49.548,16.56 C49.9000018,16.151998 50.3299975,15.8280012 50.838,15.588 C51.3460025,15.3479988 51.9199968,15.228 52.56,15.228 C53.0400024,15.228 53.4919979,15.2939993 53.916,15.426 C54.3400021,15.5580007 54.7139984,15.7499987 55.038,16.002 C55.3620016,16.2540013 55.623999,16.5599982 55.824,16.92 C56.024001,17.2800018 56.1479998,17.6919977 56.196,18.156 L54.696,18.156 Z M57.384,15.432 L58.752,15.432 L58.752,18.612 L58.776,18.612 C58.9440008,18.3319986 59.1939983,18.0980009 59.526,17.91 C59.8580017,17.7219991 60.227998,17.628 60.636,17.628 C61.3160034,17.628 61.851998,17.8039982 62.244,18.156 C62.636002,18.5080018 62.832,19.0359965 62.832,19.74 L62.832,24 L61.464,24 L61.464,20.1 C61.4479999,19.6119976 61.344001,19.2580011 61.152,19.038 C60.959999,18.8179989 60.660002,18.708 60.252,18.708 C60.0199988,18.708 59.8120009,18.7499996 59.628,18.834 C59.4439991,18.9180004 59.2880006,19.0339993 59.16,19.182 C59.0319994,19.3300007 58.9320004,19.503999 58.86,19.704 C58.7879996,19.904001 58.752,20.1159989 58.752,20.34 L58.752,24 L57.384,24 L57.384,15.432 Z M69.468,22.62 C69.468,22.7880008 69.4899998,22.9079996 69.534,22.98 C69.5780002,23.0520004 69.6639994,23.088 69.792,23.088 L69.936,23.088 C69.9920003,23.088 70.0559996,23.0800001 70.128,23.064 L70.128,24.012 C70.0799998,24.0280001 70.0180004,24.0459999 69.942,24.066 C69.8659996,24.0860001 69.7880004,24.1039999 69.708,24.12 C69.6279996,24.1360001 69.5480004,24.148 69.468,24.156 C69.3879996,24.164 69.3200003,24.168 69.264,24.168 C68.9839986,24.168 68.7520009,24.1120006 68.568,24 C68.3839991,23.8879994 68.2640003,23.6920014 68.208,23.412 C67.9359986,23.6760013 67.602002,23.8679994 67.206,23.988 C66.809998,24.1080006 66.4280018,24.168 66.06,24.168 C65.7799986,24.168 65.5120013,24.1300004 65.256,24.054 C64.9999987,23.9779996 64.774001,23.8660007 64.578,23.718 C64.381999,23.5699993 64.2260006,23.3820011 64.11,23.154 C63.9939994,22.9259989 63.936,22.6600015 63.936,22.356 C63.936,21.9719981 64.0059993,21.6600012 64.146,21.42 C64.2860007,21.1799988 64.4699989,20.9920007 64.698,20.856 C64.9260011,20.7199993 65.1819986,20.6220003 65.466,20.562 C65.7500014,20.5019997 66.0359986,20.4560002 66.324,20.424 C66.5720012,20.3759998 66.8079989,20.3420001 67.032,20.322 C67.2560011,20.3019999 67.4539991,20.2680002 67.626,20.22 C67.7980009,20.1719998 67.9339995,20.0980005 68.034,19.998 C68.1340005,19.8979995 68.184,19.748001 68.184,19.548 C68.184,19.3719991 68.1420004,19.2280006 68.058,19.116 C67.9739996,19.0039994 67.8700006,18.9180003 67.746,18.858 C67.6219994,18.7979997 67.4840008,18.7580001 67.332,18.738 C67.1799992,18.7179999 67.0360007,18.708 66.9,18.708 C66.5159981,18.708 66.2000012,18.7879992 65.952,18.948 C65.7039988,19.1080008 65.5640002,19.3559983 65.532,19.692 L64.164,19.692 C64.1880001,19.291998 64.2839992,18.9600013 64.452,18.696 C64.6200008,18.4319987 64.8339987,18.2200008 65.094,18.06 C65.3540013,17.8999992 65.6479984,17.7880003 65.976,17.724 C66.3040016,17.6599997 66.6399983,17.628 66.984,17.628 C67.2880015,17.628 67.5879985,17.6599997 67.884,17.724 C68.1800015,17.7880003 68.4459988,17.8919993 68.682,18.036 C68.9180012,18.1800007 69.1079993,18.3659989 69.252,18.594 C69.3960007,18.8220011 69.468,19.0999984 69.468,19.428 L69.468,22.62 Z M68.1,20.892 C67.891999,21.0280007 67.6360015,21.1099999 67.332,21.138 C67.0279985,21.1660001 66.7240015,21.2079997 66.42,21.264 C66.2759993,21.2880001 66.1360007,21.3219998 66,21.366 C65.8639993,21.4100002 65.7440005,21.4699996 65.64,21.546 C65.5359995,21.6220004 65.4540003,21.7219994 65.394,21.846 C65.3339997,21.9700006 65.304,22.1199991 65.304,22.296 C65.304,22.4480008 65.3479996,22.5759995 65.436,22.68 C65.5240004,22.7840005 65.6299994,22.8659997 65.754,22.926 C65.8780006,22.9860003 66.0139993,23.0279999 66.162,23.052 C66.3100007,23.0760001 66.4439994,23.088 66.564,23.088 C66.7160008,23.088 66.8799991,23.0680002 67.056,23.028 C67.2320009,22.9879998 67.3979992,22.9200005 67.554,22.824 C67.7100008,22.7279995 67.8399995,22.6060007 67.944,22.458 C68.0480005,22.3099993 68.1,22.1280011 68.1,21.912 L68.1,20.892 Z M70.32,17.796 L71.352,17.796 L71.352,15.936 L72.72,15.936 L72.72,17.796 L73.956,17.796 L73.956,18.816 L72.72,18.816 L72.72,22.128 C72.72,22.2720007 72.7259999,22.3959995 72.738,22.5 C72.7500001,22.6040005 72.7779998,22.6919996 72.822,22.764 C72.8660002,22.8360004 72.9319996,22.8899998 73.02,22.926 C73.1080004,22.9620002 73.2279992,22.98 73.38,22.98 C73.4760005,22.98 73.5719995,22.978 73.668,22.974 C73.7640005,22.97 73.8599995,22.9560001 73.956,22.932 L73.956,23.988 C73.8039992,24.0040001 73.6560007,24.0199999 73.512,24.036 C73.3679993,24.0520001 73.2200008,24.06 73.068,24.06 C72.7079982,24.06 72.4180011,24.0260003 72.198,23.958 C71.9779989,23.8899997 71.8060006,23.7900007 71.682,23.658 C71.5579994,23.5259993 71.4740002,23.360001 71.43,23.16 C71.3859998,22.959999 71.36,22.7320013 71.352,22.476 L71.352,18.816 L70.32,18.816 L70.32,17.796 Z M77.712,17.796 L79.164,17.796 L80.376,22.428 L80.4,22.428 L81.564,17.796 L82.944,17.796 L84.06,22.428 L84.084,22.428 L85.344,17.796 L86.736,17.796 L84.792,24 L83.388,24 L82.236,19.392 L82.212,19.392 L81.072,24 L79.632,24 L77.712,17.796 Z M87.648,15.432 L89.016,15.432 L89.016,16.728 L87.648,16.728 L87.648,15.432 Z M87.648,17.796 L89.016,17.796 L89.016,24 L87.648,24 L87.648,17.796 Z M89.88,17.796 L90.912,17.796 L90.912,15.936 L92.28,15.936 L92.28,17.796 L93.516,17.796 L93.516,18.816 L92.28,18.816 L92.28,22.128 C92.28,22.2720007 92.2859999,22.3959995 92.298,22.5 C92.3100001,22.6040005 92.3379998,22.6919996 92.382,22.764 C92.4260002,22.8360004 92.4919996,22.8899998 92.58,22.926 C92.6680004,22.9620002 92.7879992,22.98 92.94,22.98 C93.0360005,22.98 93.1319995,22.978 93.228,22.974 C93.3240005,22.97 93.4199995,22.9560001 93.516,22.932 L93.516,23.988 C93.3639992,24.0040001 93.2160007,24.0199999 93.072,24.036 C92.9279993,24.0520001 92.7800008,24.06 92.628,24.06 C92.2679982,24.06 91.9780011,24.0260003 91.758,23.958 C91.5379989,23.8899997 91.3660006,23.7900007 91.242,23.658 C91.1179994,23.5259993 91.0340002,23.360001 90.99,23.16 C90.9459998,22.959999 90.92,22.7320013 90.912,22.476 L90.912,18.816 L89.88,18.816 L89.88,17.796 Z M94.5,15.432 L95.868,15.432 L95.868,18.612 L95.892,18.612 C96.0600008,18.3319986 96.3099983,18.0980009 96.642,17.91 C96.9740017,17.7219991 97.343998,17.628 97.752,17.628 C98.4320034,17.628 98.967998,17.8039982 99.36,18.156 C99.752002,18.5080018 99.948,19.0359965 99.948,19.74 L99.948,24 L98.58,24 L98.58,20.1 C98.5639999,19.6119976 98.460001,19.2580011 98.268,19.038 C98.075999,18.8179989 97.776002,18.708 97.368,18.708 C97.1359988,18.708 96.9280009,18.7499996 96.744,18.834 C96.5599991,18.9180004 96.4040006,19.0339993 96.276,19.182 C96.1479994,19.3300007 96.0480004,19.503999 95.976,19.704 C95.9039996,19.904001 95.868,20.1159989 95.868,20.34 L95.868,24 L94.5,24 L94.5,15.432 Z M109.92,22.62 C109.92,22.7880008 109.942,22.9079996 109.986,22.98 C110.03,23.0520004 110.115999,23.088 110.244,23.088 L110.388,23.088 C110.444,23.088 110.508,23.0800001 110.58,23.064 L110.58,24.012 C110.532,24.0280001 110.47,24.0459999 110.394,24.066 C110.318,24.0860001 110.24,24.1039999 110.16,24.12 C110.08,24.1360001 110,24.148 109.92,24.156 C109.84,24.164 109.772,24.168 109.716,24.168 C109.435999,24.168 109.204001,24.1120006 109.02,24 C108.835999,23.8879994 108.716,23.6920014 108.66,23.412 C108.387999,23.6760013 108.054002,23.8679994 107.658,23.988 C107.261998,24.1080006 106.880002,24.168 106.512,24.168 C106.231999,24.168 105.964001,24.1300004 105.708,24.054 C105.451999,23.9779996 105.226001,23.8660007 105.03,23.718 C104.833999,23.5699993 104.678001,23.3820011 104.562,23.154 C104.445999,22.9259989 104.388,22.6600015 104.388,22.356 C104.388,21.9719981 104.457999,21.6600012 104.598,21.42 C104.738001,21.1799988 104.921999,20.9920007 105.15,20.856 C105.378001,20.7199993 105.633999,20.6220003 105.918,20.562 C106.202001,20.5019997 106.487999,20.4560002 106.776,20.424 C107.024001,20.3759998 107.259999,20.3420001 107.484,20.322 C107.708001,20.3019999 107.905999,20.2680002 108.078,20.22 C108.250001,20.1719998 108.386,20.0980005 108.486,19.998 C108.586001,19.8979995 108.636,19.748001 108.636,19.548 C108.636,19.3719991 108.594,19.2280006 108.51,19.116 C108.426,19.0039994 108.322001,18.9180003 108.198,18.858 C108.073999,18.7979997 107.936001,18.7580001 107.784,18.738 C107.631999,18.7179999 107.488001,18.708 107.352,18.708 C106.967998,18.708 106.652001,18.7879992 106.404,18.948 C106.155999,19.1080008 106.016,19.3559983 105.984,19.692 L104.616,19.692 C104.64,19.291998 104.735999,18.9600013 104.904,18.696 C105.072001,18.4319987 105.285999,18.2200008 105.546,18.06 C105.806001,17.8999992 106.099998,17.7880003 106.428,17.724 C106.756002,17.6599997 107.091998,17.628 107.436,17.628 C107.740002,17.628 108.039999,17.6599997 108.336,17.724 C108.632001,17.7880003 108.897999,17.8919993 109.134,18.036 C109.370001,18.1800007 109.559999,18.3659989 109.704,18.594 C109.848001,18.8220011 109.92,19.0999984 109.92,19.428 L109.92,22.62 Z M108.552,20.892 C108.343999,21.0280007 108.088002,21.1099999 107.784,21.138 C107.479998,21.1660001 107.176002,21.2079997 106.872,21.264 C106.727999,21.2880001 106.588001,21.3219998 106.452,21.366 C106.315999,21.4100002 106.196001,21.4699996 106.092,21.546 C105.987999,21.6220004 105.906,21.7219994 105.846,21.846 C105.786,21.9700006 105.756,22.1199991 105.756,22.296 C105.756,22.4480008 105.8,22.5759995 105.888,22.68 C105.976,22.7840005 106.081999,22.8659997 106.206,22.926 C106.330001,22.9860003 106.465999,23.0279999 106.614,23.052 C106.762001,23.0760001 106.895999,23.088 107.016,23.088 C107.168001,23.088 107.331999,23.0680002 107.508,23.028 C107.684001,22.9879998 107.849999,22.9200005 108.006,22.824 C108.162001,22.7279995 108.291999,22.6060007 108.396,22.458 C108.500001,22.3099993 108.552,22.1280011 108.552,21.912 L108.552,20.892 Z M111.396,17.796 L112.692,17.796 L112.692,18.708 L112.716,18.732 C112.924001,18.3879983 113.195998,18.118001 113.532,17.922 C113.868002,17.725999 114.239998,17.628 114.648,17.628 C115.328003,17.628 115.863998,17.8039982 116.256,18.156 C116.648002,18.5080018 116.844,19.0359965 116.844,19.74 L116.844,24 L115.476,24 L115.476,20.1 C115.46,19.6119976 115.356001,19.2580011 115.164,19.038 C114.971999,18.8179989 114.672002,18.708 114.264,18.708 C114.031999,18.708 113.824001,18.7499996 113.64,18.834 C113.455999,18.9180004 113.300001,19.0339993 113.172,19.182 C113.043999,19.3300007 112.944,19.503999 112.872,19.704 C112.8,19.904001 112.764,20.1159989 112.764,20.34 L112.764,24 L111.396,24 L111.396,17.796 Z M125.88,20.352 C125.864,20.1359989 125.818,19.928001 125.742,19.728 C125.666,19.527999 125.562001,19.3540007 125.43,19.206 C125.297999,19.0579993 125.138001,18.9380005 124.95,18.846 C124.761999,18.7539995 124.552001,18.708 124.32,18.708 C124.079999,18.708 123.862001,18.7499996 123.666,18.834 C123.469999,18.9180004 123.302001,19.0339993 123.162,19.182 C123.021999,19.3300007 122.91,19.503999 122.826,19.704 C122.742,19.904001 122.696,20.1199988 122.688,20.352 L125.88,20.352 Z M122.688,21.252 C122.688,21.4920012 122.722,21.7239989 122.79,21.948 C122.858,22.1720011 122.959999,22.3679992 123.096,22.536 C123.232001,22.7040008 123.403999,22.8379995 123.612,22.938 C123.820001,23.0380005 124.067999,23.088 124.356,23.088 C124.756002,23.088 125.077999,23.0020009 125.322,22.83 C125.566001,22.6579991 125.747999,22.4000017 125.868,22.056 L127.164,22.056 C127.092,22.3920017 126.968001,22.6919987 126.792,22.956 C126.615999,23.2200013 126.404001,23.4419991 126.156,23.622 C125.907999,23.8020009 125.630002,23.9379995 125.322,24.03 C125.013998,24.1220005 124.692002,24.168 124.356,24.168 C123.867998,24.168 123.436002,24.0880008 123.06,23.928 C122.683998,23.7679992 122.366001,23.5440014 122.106,23.256 C121.845999,22.9679986 121.650001,22.624002 121.518,22.224 C121.385999,21.823998 121.32,21.3840024 121.32,20.904 C121.32,20.4639978 121.389999,20.046002 121.53,19.65 C121.670001,19.253998 121.869999,18.9060015 122.13,18.606 C122.390001,18.3059985 122.703998,18.0680009 123.072,17.892 C123.440002,17.7159991 123.855998,17.628 124.32,17.628 C124.808002,17.628 125.245998,17.729999 125.634,17.934 C126.022002,18.138001 126.343999,18.4079983 126.6,18.744 C126.856001,19.0800017 127.041999,19.4659978 127.158,19.902 C127.274001,20.3380022 127.304,20.7879977 127.248,21.252 L122.688,21.252 Z M129.96,20.736 L127.812,17.796 L129.468,17.796 L130.764,19.704 L132.12,17.796 L133.704,17.796 L131.592,20.664 L133.968,24 L132.324,24 L130.752,21.708 L129.228,24 L127.62,24 L129.96,20.736 Z M134.772,17.796 L136.068,17.796 L136.068,18.636 L136.092,18.636 C136.284001,18.2759982 136.551998,18.0180008 136.896,17.862 C137.240002,17.7059992 137.611998,17.628 138.012,17.628 C138.500002,17.628 138.925998,17.7139991 139.29,17.886 C139.654002,18.0580009 139.955999,18.2939985 140.196,18.594 C140.436001,18.8940015 140.615999,19.243998 140.736,19.644 C140.856001,20.044002 140.916,20.4719977 140.916,20.928 C140.916,21.3440021 140.862001,21.747998 140.754,22.14 C140.645999,22.532002 140.482001,22.8779985 140.262,23.178 C140.041999,23.4780015 139.764002,23.7179991 139.428,23.898 C139.091998,24.0780009 138.696002,24.168 138.24,24.168 C138.039999,24.168 137.840001,24.1500002 137.64,24.114 C137.439999,24.0779998 137.248001,24.0200004 137.064,23.94 C136.879999,23.8599996 136.710001,23.7580006 136.554,23.634 C136.397999,23.5099994 136.268001,23.3640008 136.164,23.196 L136.14,23.196 L136.14,26.292 L134.772,26.292 L134.772,17.796 Z M139.548,20.904 C139.548,20.6239986 139.512,20.3520013 139.44,20.088 C139.368,19.8239987 139.260001,19.590001 139.116,19.386 C138.971999,19.181999 138.792001,19.0180006 138.576,18.894 C138.359999,18.7699994 138.112001,18.708 137.832,18.708 C137.255997,18.708 136.822001,18.907998 136.53,19.308 C136.237999,19.708002 136.092,20.2399967 136.092,20.904 C136.092,21.2160016 136.13,21.5059987 136.206,21.774 C136.282,22.0420013 136.395999,22.271999 136.548,22.464 C136.700001,22.656001 136.881999,22.8079994 137.094,22.92 C137.306001,23.0320006 137.551999,23.088 137.832,23.088 C138.144002,23.088 138.407999,23.0240006 138.624,22.896 C138.840001,22.7679994 139.017999,22.602001 139.158,22.398 C139.298001,22.193999 139.398,21.9620013 139.458,21.702 C139.518,21.4419987 139.548,21.1760014 139.548,20.904 L139.548,20.904 Z M146.328,20.352 C146.312,20.1359989 146.266,19.928001 146.19,19.728 C146.114,19.527999 146.010001,19.3540007 145.878,19.206 C145.745999,19.0579993 145.586001,18.9380005 145.398,18.846 C145.209999,18.7539995 145.000001,18.708 144.768,18.708 C144.527999,18.708 144.310001,18.7499996 144.114,18.834 C143.917999,18.9180004 143.750001,19.0339993 143.61,19.182 C143.469999,19.3300007 143.358,19.503999 143.274,19.704 C143.19,19.904001 143.144,20.1199988 143.136,20.352 L146.328,20.352 Z M143.136,21.252 C143.136,21.4920012 143.17,21.7239989 143.238,21.948 C143.306,22.1720011 143.407999,22.3679992 143.544,22.536 C143.680001,22.7040008 143.851999,22.8379995 144.06,22.938 C144.268001,23.0380005 144.515999,23.088 144.804,23.088 C145.204002,23.088 145.525999,23.0020009 145.77,22.83 C146.014001,22.6579991 146.195999,22.4000017 146.316,22.056 L147.612,22.056 C147.54,22.3920017 147.416001,22.6919987 147.24,22.956 C147.063999,23.2200013 146.852001,23.4419991 146.604,23.622 C146.355999,23.8020009 146.078002,23.9379995 145.77,24.03 C145.461998,24.1220005 145.140002,24.168 144.804,24.168 C144.315998,24.168 143.884002,24.0880008 143.508,23.928 C143.131998,23.7679992 142.814001,23.5440014 142.554,23.256 C142.293999,22.9679986 142.098001,22.624002 141.966,22.224 C141.833999,21.823998 141.768,21.3840024 141.768,20.904 C141.768,20.4639978 141.837999,20.046002 141.978,19.65 C142.118001,19.253998 142.317999,18.9060015 142.578,18.606 C142.838001,18.3059985 143.151998,18.0680009 143.52,17.892 C143.888002,17.7159991 144.303998,17.628 144.768,17.628 C145.256002,17.628 145.693998,17.729999 146.082,17.934 C146.470002,18.138001 146.791999,18.4079983 147.048,18.744 C147.304001,19.0800017 147.489999,19.4659978 147.606,19.902 C147.722001,20.3380022 147.752,20.7879977 147.696,21.252 L143.136,21.252 Z M148.74,17.796 L150.024,17.796 L150.024,18.996 L150.048,18.996 C150.088,18.8279992 150.165999,18.6640008 150.282,18.504 C150.398001,18.3439992 150.537999,18.1980007 150.702,18.066 C150.866001,17.9339993 151.047999,17.8280004 151.248,17.748 C151.448001,17.6679996 151.651999,17.628 151.86,17.628 C152.020001,17.628 152.13,17.632 152.19,17.64 C152.25,17.648 152.312,17.656 152.376,17.664 L152.376,18.984 C152.28,18.9679999 152.182001,18.9540001 152.082,18.942 C151.981999,18.9299999 151.884,18.924 151.788,18.924 C151.555999,18.924 151.338001,18.9699995 151.134,19.062 C150.929999,19.1540005 150.752001,19.2899991 150.6,19.47 C150.447999,19.6500009 150.328,19.8719987 150.24,20.136 C150.152,20.4000013 150.108,20.7039983 150.108,21.048 L150.108,24 L148.74,24 L148.74,17.796 Z M152.34,17.796 L153.372,17.796 L153.372,15.936 L154.74,15.936 L154.74,17.796 L155.976,17.796 L155.976,18.816 L154.74,18.816 L154.74,22.128 C154.74,22.2720007 154.746,22.3959995 154.758,22.5 C154.77,22.6040005 154.798,22.6919996 154.842,22.764 C154.886,22.8360004 154.952,22.8899998 155.04,22.926 C155.128,22.9620002 155.247999,22.98 155.4,22.98 C155.496,22.98 155.592,22.978 155.688,22.974 C155.784,22.97 155.88,22.9560001 155.976,22.932 L155.976,23.988 C155.823999,24.0040001 155.676001,24.0199999 155.532,24.036 C155.387999,24.0520001 155.240001,24.06 155.088,24.06 C154.727998,24.06 154.438001,24.0260003 154.218,23.958 C153.997999,23.8899997 153.826001,23.7900007 153.702,23.658 C153.577999,23.5259993 153.494,23.360001 153.45,23.16 C153.406,22.959999 153.38,22.7320013 153.372,22.476 L153.372,18.816 L152.34,18.816 L152.34,17.796 Z" id="Chat-with-an-expert" fill="#FFFFFF"></path>
                </g>
            </g>
        </g>
    </g>
</svg>