<?xml version="1.0" encoding="utf-8"?>
<!-- Generator: Adobe Illustrator 18.0.0, SVG Export Plug-In . SVG Version: 6.00 Build 0)  -->
<!DOCTYPE svg PUBLIC "-//W3C//DTD SVG 1.1//EN" "http://www.w3.org/Graphics/SVG/1.1/DTD/svg11.dtd">
<svg version="1.1" xmlns="http://www.w3.org/2000/svg" xmlns:xlink="http://www.w3.org/1999/xlink" x="0px" y="0px"
	 viewBox="0 0 221.3 19.5" enable-background="new 0 0 221.3 19.5" xml:space="preserve">
<g id="Layer_2">
</g>
<g id="Layer_1">
	<path fill="none" d="M27.3,5.2c0-1-0.7-1.7-1.9-1.7H21v3.3h4.5C26.5,6.9,27.3,6.2,27.3,5.2z"/>
	<path fill="none" d="M25.4,9.9H21v3.9h4.5c1.1,0,2.3-0.3,2.3-1.9C27.8,10.6,26.9,9.9,25.4,9.9z"/>
	<path fill="#FFFFFF" d="M29.1,8.2c1-0.8,1.6-1.9,1.6-3.1c0-1.4-0.4-2.5-1.3-3.3c-0.9-0.8-2.2-1.2-3.9-1.2h-7.8h-0.1v6.5l2,1.5
		l-2,1.5v6.9h8.4c3.3,0,5.4-1.9,5.4-4.8C31.3,10.3,30.6,9,29.1,8.2z M21,3.6h4.5c1.1,0,1.9,0.6,1.9,1.7c0,1-0.8,1.7-1.9,1.7H21V3.6z
		 M25.5,13.9H21V9.9h4.4c1.6,0,2.4,0.7,2.4,2C27.8,13.5,26.5,13.9,25.5,13.9z"/>
	<path fill="#0095C9" d="M5.3,8.5c0-0.4,0.3-0.7,0.7-0.7h9.7c-0.1-1-0.6-2-1.5-2.9c0,0,0,0,0,0L13,3.9c0,0,0,0,0,0L9,0L0,8.5l9,8.5
		l4-3.8c0,0,0,0,0.1-0.1l1.2-1.1c0,0,0,0,0.1-0.1c0.8-0.8,1.3-1.8,1.4-2.8H6C5.7,9.2,5.3,8.9,5.3,8.5"/>
	<polygon fill="#FFFFFF" points="39.3,3.6 43.9,3.6 43.9,0.6 43.8,0.6 31.4,0.6 31.4,3.6 35.9,3.6 35.9,16.9 39.3,16.9 	"/>
	<g>
		<path fill="#969596" d="M56.8,12.2c-0.6,0.5-1.4,0.7-2.5,0.7h-2.1v3.6h-2.1V6.5h4.3c1,0,1.8,0.3,2.4,0.8c0.6,0.5,0.9,1.3,0.9,2.4
			C57.7,10.8,57.4,11.7,56.8,12.2z M55.2,8.5c-0.3-0.2-0.6-0.3-1.1-0.3h-1.9v3h1.9c0.5,0,0.9-0.1,1.1-0.4s0.4-0.6,0.4-1.1
			S55.4,8.8,55.2,8.5z"/>
		<path fill="#969596" d="M65.4,15.6c-0.6,0.8-1.6,1.2-2.9,1.2s-2.2-0.4-2.9-1.2s-0.9-1.7-0.9-2.8c0-1.1,0.3-2,0.9-2.8
			s1.6-1.2,2.9-1.2s2.2,0.4,2.9,1.2s0.9,1.7,0.9,2.8C66.4,13.9,66,14.8,65.4,15.6z M63.8,14.5c0.3-0.4,0.5-1,0.5-1.7
			c0-0.7-0.2-1.3-0.5-1.7c-0.3-0.4-0.7-0.6-1.3-0.6s-1,0.2-1.3,0.6c-0.3,0.4-0.5,1-0.5,1.7c0,0.7,0.2,1.3,0.5,1.7
			c0.3,0.4,0.7,0.6,1.3,0.6S63.5,15,63.8,14.5z"/>
		<path fill="#969596" d="M71.3,9.1h2l1.1,5.4l1.2-5.4h2l-2.2,7.5h-2l-1.2-5.4L71,16.5h-2l-2.1-7.5H69l1.2,5.3L71.3,9.1z"/>
		<path fill="#969596" d="M83.5,9.2c0.5,0.2,0.9,0.6,1.3,1.1c0.3,0.4,0.5,1,0.6,1.5c0.1,0.3,0.1,0.8,0.1,1.5H80
			c0,0.7,0.3,1.3,0.8,1.6c0.3,0.2,0.7,0.3,1.1,0.3c0.4,0,0.8-0.1,1.1-0.3c0.2-0.1,0.3-0.3,0.4-0.5h2c-0.1,0.4-0.3,0.9-0.7,1.3
			c-0.7,0.7-1.6,1.1-2.8,1.1c-1,0-1.9-0.3-2.6-0.9c-0.8-0.6-1.1-1.6-1.1-3c0-1.3,0.3-2.3,1-3c0.7-0.7,1.6-1,2.7-1
			C82.4,8.9,83,9,83.5,9.2z M80.6,10.9c-0.3,0.3-0.4,0.7-0.5,1.2h3.4c0-0.5-0.2-0.9-0.5-1.2c-0.3-0.3-0.7-0.4-1.2-0.4
			C81.2,10.5,80.9,10.6,80.6,10.9z"/>
		<path fill="#969596" d="M90.6,8.9c0,0,0.1,0,0.2,0v2c-0.1,0-0.2,0-0.3,0s-0.2,0-0.2,0c-0.8,0-1.3,0.3-1.6,0.8
			c-0.2,0.3-0.2,0.7-0.2,1.3v3.6h-2V9.1h1.9v1.3c0.3-0.5,0.6-0.8,0.8-1C89.4,9.1,89.9,8.9,90.6,8.9C90.5,8.9,90.5,8.9,90.6,8.9z"/>
		<path fill="#969596" d="M96.7,9.2c0.5,0.2,0.9,0.6,1.3,1.1c0.3,0.4,0.5,1,0.6,1.5c0.1,0.3,0.1,0.8,0.1,1.5h-5.4
			c0,0.7,0.3,1.3,0.8,1.6c0.3,0.2,0.7,0.3,1.1,0.3c0.4,0,0.8-0.1,1.1-0.3c0.2-0.1,0.3-0.3,0.4-0.5h2c-0.1,0.4-0.3,0.9-0.7,1.3
			c-0.7,0.7-1.6,1.1-2.8,1.1c-1,0-1.9-0.3-2.6-0.9c-0.8-0.6-1.1-1.6-1.1-3c0-1.3,0.3-2.3,1-3c0.7-0.7,1.6-1,2.7-1
			C95.6,8.9,96.2,9,96.7,9.2z M93.8,10.9c-0.3,0.3-0.4,0.7-0.5,1.2h3.4c0-0.5-0.2-0.9-0.5-1.2c-0.3-0.3-0.7-0.4-1.2-0.4
			C94.5,10.5,94.1,10.6,93.8,10.9z"/>
		<path fill="#969596" d="M103.6,9.2c0.4,0.2,0.6,0.5,0.9,0.8V6.5h2v10.1h-1.9v-1c-0.3,0.4-0.6,0.8-1,1s-0.8,0.3-1.3,0.3
			c-0.9,0-1.6-0.4-2.2-1.1c-0.6-0.7-0.9-1.6-0.9-2.7c0-1.3,0.3-2.3,0.9-3c0.6-0.7,1.4-1.1,2.3-1.1C102.9,8.9,103.3,9,103.6,9.2z
			 M104.1,14.5c0.3-0.4,0.4-0.9,0.4-1.6c0-0.9-0.2-1.6-0.7-2c-0.3-0.2-0.6-0.4-1-0.4c-0.6,0-1,0.2-1.3,0.6c-0.3,0.4-0.4,1-0.4,1.6
			c0,0.7,0.1,1.2,0.4,1.7c0.3,0.4,0.7,0.6,1.2,0.6S103.8,14.9,104.1,14.5z"/>
		<path fill="#969596" d="M118.5,10c0.6,0.7,0.8,1.6,0.8,2.7c0,1.2-0.3,2.1-0.8,2.9c-0.5,0.8-1.3,1.1-2.3,1.1
			c-0.6,0-1.1-0.1-1.5-0.4c-0.2-0.1-0.5-0.4-0.7-0.8v0.9H112V6.5h1.9v3.6c0.2-0.3,0.5-0.6,0.8-0.8c0.4-0.2,0.8-0.3,1.3-0.3
			C117.1,8.9,117.9,9.3,118.5,10z M116.8,14.5c0.3-0.4,0.4-0.9,0.4-1.6c0-0.5-0.1-1-0.2-1.3c-0.3-0.7-0.7-1-1.4-1
			c-0.7,0-1.2,0.3-1.5,1c-0.1,0.3-0.2,0.8-0.2,1.3c0,0.6,0.1,1.2,0.4,1.6c0.3,0.4,0.7,0.6,1.3,0.6C116.2,15.1,116.6,14.9,116.8,14.5
			z"/>
		<path fill="#969596" d="M120.9,18l0.2,0c0.2,0,0.4,0,0.5,0s0.3-0.1,0.4-0.2c0.1-0.1,0.2-0.2,0.3-0.5c0.1-0.2,0.1-0.4,0.1-0.5
			l-2.7-7.8h2.2l1.6,5.5l1.5-5.5h2.1l-2.6,7.3c-0.5,1.4-0.9,2.3-1.2,2.6s-0.9,0.5-1.7,0.5c-0.2,0-0.3,0-0.4,0c-0.1,0-0.3,0-0.5,0V18
			z"/>
		<path fill="#C8C7C7" d="M140,7.5c0.3,0.4,0.5,0.9,0.5,1.5c0,0.6-0.2,1.1-0.5,1.5c-0.2,0.2-0.4,0.4-0.8,0.6
			c0.5,0.2,0.9,0.5,1.2,0.9s0.4,0.9,0.4,1.5c0,0.6-0.1,1.1-0.4,1.6c-0.2,0.3-0.4,0.6-0.7,0.8c-0.3,0.2-0.7,0.4-1.1,0.5
			s-0.9,0.1-1.4,0.1h-4.5V6.5h4.9C138.6,6.5,139.5,6.8,140,7.5z M134.5,8.2v2.2h2.4c0.4,0,0.8-0.1,1.1-0.2c0.3-0.2,0.4-0.5,0.4-0.9
			c0-0.5-0.2-0.8-0.5-0.9c-0.3-0.1-0.7-0.2-1.2-0.2H134.5z M134.5,12.1v2.7h2.4c0.4,0,0.8-0.1,1-0.2c0.4-0.2,0.7-0.6,0.7-1.3
			c0-0.5-0.2-0.9-0.6-1.1c-0.2-0.1-0.6-0.2-1-0.2H134.5z"/>
		<path fill="#C8C7C7" d="M149.9,6.5v1.8h-3v8.3h-2.1V8.2h-3V6.5H149.9z"/>
		<path fill="#C8C7C7" d="M161.8,12.2c-0.6,0.5-1.4,0.7-2.5,0.7h-2.1v3.6h-2.1V6.5h4.3c1,0,1.8,0.3,2.4,0.8s0.9,1.3,0.9,2.4
			C162.7,10.8,162.4,11.7,161.8,12.2z M160.2,8.5c-0.3-0.2-0.6-0.3-1.1-0.3h-1.9v3h1.9c0.5,0,0.9-0.1,1.1-0.4s0.4-0.6,0.4-1.1
			S160.5,8.8,160.2,8.5z"/>
		<path fill="#C8C7C7" d="M167.2,12c0.4,0,0.6-0.1,0.8-0.2c0.3-0.1,0.4-0.3,0.4-0.6c0-0.3-0.1-0.5-0.3-0.6s-0.5-0.2-0.9-0.2
			c-0.5,0-0.8,0.1-1,0.3c-0.1,0.2-0.2,0.4-0.3,0.7h-1.9c0-0.7,0.2-1.2,0.5-1.6c0.5-0.7,1.4-1,2.7-1c0.8,0,1.5,0.2,2.2,0.5
			c0.6,0.3,1,0.9,1,1.8v3.4c0,0.2,0,0.5,0,0.9c0,0.3,0.1,0.4,0.1,0.5s0.2,0.2,0.3,0.2v0.3h-2.1c-0.1-0.2-0.1-0.3-0.1-0.4
			s0-0.3-0.1-0.5c-0.3,0.3-0.6,0.5-0.9,0.7c-0.4,0.2-0.9,0.4-1.4,0.4c-0.7,0-1.2-0.2-1.7-0.6s-0.7-0.9-0.7-1.6c0-0.9,0.4-1.6,1.1-2
			c0.4-0.2,1-0.4,1.7-0.5L167.2,12z M168.4,12.9c-0.1,0.1-0.3,0.1-0.4,0.2s-0.3,0.1-0.5,0.1l-0.4,0.1c-0.4,0.1-0.7,0.2-0.9,0.3
			c-0.3,0.2-0.5,0.5-0.5,0.8c0,0.3,0.1,0.6,0.3,0.7s0.4,0.2,0.7,0.2c0.4,0,0.8-0.1,1.2-0.4c0.4-0.2,0.5-0.7,0.6-1.3V12.9z"/>
		<path fill="#C8C7C7" d="M178,9.5c0.5,0.4,0.7,1.1,0.7,2v5h-2V12c0-0.4-0.1-0.7-0.2-0.9c-0.2-0.4-0.6-0.6-1.1-0.6
			c-0.7,0-1.1,0.3-1.3,0.8c-0.1,0.3-0.2,0.7-0.2,1.1v4H172V9.1h1.9v1.1c0.2-0.4,0.5-0.7,0.7-0.8c0.4-0.3,0.9-0.5,1.5-0.5
			C176.9,8.9,177.5,9.1,178,9.5z"/>
		<path fill="#C8C7C7" d="M186.8,15.6c-0.6,0.8-1.6,1.2-2.9,1.2s-2.2-0.4-2.9-1.2s-0.9-1.7-0.9-2.8c0-1.1,0.3-2,0.9-2.8
			s1.6-1.2,2.9-1.2s2.2,0.4,2.9,1.2s0.9,1.7,0.9,2.8C187.7,13.9,187.4,14.8,186.8,15.6z M185.2,14.5c0.3-0.4,0.5-1,0.5-1.7
			c0-0.7-0.2-1.3-0.5-1.7c-0.3-0.4-0.7-0.6-1.3-0.6s-1,0.2-1.3,0.6c-0.3,0.4-0.5,1-0.5,1.7c0,0.7,0.2,1.3,0.5,1.7
			c0.3,0.4,0.7,0.6,1.3,0.6S184.9,15,185.2,14.5z"/>
		<path fill="#C8C7C7" d="M193.2,8.9c0,0,0.1,0,0.2,0v2c-0.1,0-0.2,0-0.3,0s-0.2,0-0.2,0c-0.8,0-1.3,0.3-1.6,0.8
			c-0.2,0.3-0.2,0.7-0.2,1.3v3.6h-2V9.1h1.9v1.3c0.3-0.5,0.6-0.8,0.8-1C192.1,9.1,192.6,8.9,193.2,8.9
			C193.2,8.9,193.2,8.9,193.2,8.9z"/>
		<path fill="#C8C7C7" d="M197.5,12c0.4,0,0.6-0.1,0.8-0.2c0.3-0.1,0.4-0.3,0.4-0.6c0-0.3-0.1-0.5-0.3-0.6s-0.5-0.2-0.9-0.2
			c-0.5,0-0.8,0.1-1,0.3c-0.1,0.2-0.2,0.4-0.3,0.7h-1.9c0-0.7,0.2-1.2,0.5-1.6c0.5-0.7,1.4-1,2.7-1c0.8,0,1.5,0.2,2.2,0.5
			c0.6,0.3,1,0.9,1,1.8v3.4c0,0.2,0,0.5,0,0.9c0,0.3,0.1,0.4,0.1,0.5s0.2,0.2,0.3,0.2v0.3h-2.1c-0.1-0.2-0.1-0.3-0.1-0.4
			s0-0.3-0.1-0.5c-0.3,0.3-0.6,0.5-0.9,0.7c-0.4,0.2-0.9,0.4-1.4,0.4c-0.7,0-1.2-0.2-1.7-0.6s-0.7-0.9-0.7-1.6c0-0.9,0.4-1.6,1.1-2
			c0.4-0.2,1-0.4,1.7-0.5L197.5,12z M198.7,12.9c-0.1,0.1-0.3,0.1-0.4,0.2s-0.3,0.1-0.5,0.1l-0.4,0.1c-0.4,0.1-0.7,0.2-0.9,0.3
			c-0.3,0.2-0.5,0.5-0.5,0.8c0,0.3,0.1,0.6,0.3,0.7s0.4,0.2,0.7,0.2c0.4,0,0.8-0.1,1.2-0.4c0.4-0.2,0.5-0.7,0.6-1.3V12.9z"/>
		<path fill="#C8C7C7" d="M211.6,9.1c0.3,0.1,0.6,0.4,0.9,0.7c0.2,0.3,0.4,0.6,0.4,1c0,0.3,0.1,0.6,0.1,1.1l0,4.7h-2v-4.7
			c0-0.3,0-0.5-0.1-0.7c-0.2-0.3-0.5-0.5-1-0.5c-0.5,0-0.9,0.2-1.1,0.7c-0.1,0.2-0.2,0.5-0.2,0.9v4.4h-2v-4.4c0-0.4,0-0.8-0.1-1
			c-0.2-0.4-0.5-0.5-1-0.5c-0.6,0-0.9,0.2-1.1,0.5c-0.1,0.2-0.2,0.5-0.2,0.9v4.5h-2V9.1h1.9v1.1c0.2-0.4,0.5-0.7,0.7-0.8
			c0.4-0.3,0.9-0.4,1.5-0.4c0.6,0,1,0.1,1.4,0.4c0.3,0.2,0.5,0.5,0.6,0.9c0.3-0.4,0.6-0.8,1-1c0.4-0.2,0.8-0.3,1.3-0.3
			C211,8.9,211.3,9,211.6,9.1z"/>
		<path fill="#C8C7C7" d="M217.7,12c0.4,0,0.6-0.1,0.8-0.2c0.3-0.1,0.4-0.3,0.4-0.6c0-0.3-0.1-0.5-0.3-0.6s-0.5-0.2-0.9-0.2
			c-0.5,0-0.8,0.1-1,0.3c-0.1,0.2-0.2,0.4-0.3,0.7h-1.9c0-0.7,0.2-1.2,0.5-1.6c0.5-0.7,1.4-1,2.7-1c0.8,0,1.5,0.2,2.2,0.5
			c0.6,0.3,1,0.9,1,1.8v3.4c0,0.2,0,0.5,0,0.9c0,0.3,0.1,0.4,0.1,0.5s0.2,0.2,0.3,0.2v0.3h-2.1c-0.1-0.2-0.1-0.3-0.1-0.4
			s0-0.3-0.1-0.5c-0.3,0.3-0.6,0.5-0.9,0.7c-0.4,0.2-0.9,0.4-1.4,0.4c-0.7,0-1.2-0.2-1.7-0.6s-0.7-0.9-0.7-1.6c0-0.9,0.4-1.6,1.1-2
			c0.4-0.2,1-0.4,1.7-0.5L217.7,12z M218.9,12.9c-0.1,0.1-0.3,0.1-0.4,0.2s-0.3,0.1-0.5,0.1l-0.4,0.1c-0.4,0.1-0.7,0.2-0.9,0.3
			c-0.3,0.2-0.5,0.5-0.5,0.8c0,0.3,0.1,0.6,0.3,0.7s0.4,0.2,0.7,0.2c0.4,0,0.8-0.1,1.2-0.4c0.4-0.2,0.5-0.7,0.6-1.3V12.9z"/>
	</g>
</g>
</svg>
