<?xml version="1.0" encoding="utf-8"?>
<!-- Generator: Adobe Illustrator 18.0.0, SVG Export Plug-In . SVG Version: 6.00 Build 0)  -->
<!DOCTYPE svg PUBLIC "-//W3C//DTD SVG 1.1//EN" "http://www.w3.org/Graphics/SVG/1.1/DTD/svg11.dtd">
<svg version="1.1" id="Layer_1" xmlns="http://www.w3.org/2000/svg" xmlns:xlink="http://www.w3.org/1999/xlink" x="0px" y="0px"
	 viewBox="0 -2.9 843 72.6" enable-background="new 0 -2.9 843 72.6" xml:space="preserve">
<g enable-background="new    ">
	<path fill="#6F797F" d="M41.9,48.3H13.8L7,68.6H1L23.1,2.6h9.7l22.1,66.1h-6.1L41.9,48.3z M40.2,43l-8.5-25.6L28,6.4h-0.4
		l-3.5,10.7L15.5,43H40.2z"/>
	<path fill="#6F797F" d="M62,30.7c0-7.1,6-13.7,17.2-13.7c5.3,0,10.9,1.8,14.1,4.9l-3.6,4.1c-2.6-2.6-6.9-4-10.6-4
		c-8.1,0-11.5,4-11.5,8.5C67.5,43.2,94,38,94,55.3c0,7.1-6.1,14.1-17.8,14.1c-7.8,0-14.1-2.8-17.5-6.1l3.6-4.3
		c3.3,3.3,8.2,5.4,14.1,5.4c7.9,0,11.9-4.1,11.9-9C88.5,42.7,62,48,62,30.7z"/>
	<path fill="#6F797F" d="M106.7,30.7c0-7.1,6-13.7,17.2-13.7c5.3,0,10.9,1.8,14.1,4.9l-3.6,4.1c-2.6-2.6-6.9-4-10.6-4
		c-8.1,0-11.5,4-11.5,8.5c0,12.5,26.5,7.4,26.5,24.7c0,7.1-6.1,14.1-17.8,14.1c-7.8,0-14.1-2.8-17.5-6.1l3.6-4.3
		c3.3,3.3,8.2,5.4,14.1,5.4c7.9,0,11.9-4.1,11.9-9C133.2,42.7,106.7,48,106.7,30.7z"/>
	<path fill="#6F797F" d="M188,65c-3.2,2.3-8.8,4.2-15.5,4.2c-14.2,0-22.1-7-22.1-26.2c0-18.9,10.7-25.9,21.2-25.9
		c11.9,0,18.2,7.7,18.2,19.7c0,2.5-0.2,5.7-0.5,8.7H156c0.8,13.8,6.5,18.7,17.2,18.7c5.1,0,9.8-1.9,12.1-3.7L188,65z M156,40.4h28
		c0.1-1.3,0.1-2.6,0.1-3.4c0-9.4-4.1-14.8-13.2-14.8C164.1,22.2,156.8,26.3,156,40.4z"/>
	<path fill="#6F797F" d="M206,55.9V22.6h-7.9V19l7.9-1.1l1.5-13.5h4v13.5h14.5v4.7h-14.5v32.7c0,6.3,3.2,8.9,8,8.9
		c4.8,0,7-1,8.1-1.7l1.6,4.6c-2,1-5.3,2.1-10.7,2.1C210.2,69.1,206,64.7,206,55.9z"/>
	<path fill="#6F797F" d="M301,48.3h-28.1l-6.8,20.4h-6l22.1-66.1h9.7l22.1,66.1h-6.1L301,48.3z M299.3,43l-8.5-25.6l-3.6-10.9h-0.4
		l-3.5,10.7L274.7,43H299.3z"/>
	<path fill="#6F797F" d="M353.1-2.9h5.5v71.5h-4l-1.4-5.5h-0.4c-2.1,3.5-7.1,6.5-13.7,6.5c-11.9,0-19.1-7.6-19.1-24.3
		c0-17.5,9.5-27.4,24.9-27.4c2.5,0,5.6,0.3,8.1,0.8V-2.9z M353.1,55.4V24.1c-2.2-0.6-5.8-1-8.1-1c-13,0-19.2,7.5-19.2,21.6
		c0,15.5,7.1,20.1,14.3,20.1C346.9,64.7,351,60.8,353.1,55.4z"/>
	<path fill="#6F797F" d="M423.7,16.9c10.1,0,15.9,5.8,15.9,16.8v35H434V34.9c0-8.4-3.9-12.9-11.1-12.9c-7.2,0-11.5,5-12.7,9.1v37.5
		h-5.5V35.4c0-8.6-3.9-13.4-11.1-13.4c-7.3,0-11.7,5.2-12.7,9.9v36.8h-5.5V17.8h4.1l1.2,5.7h0.4c1-1.6,4.5-6.6,13.3-6.6
		c7.6,0,11.9,3.5,13.9,8.4h0.4C410.4,20.9,415.4,16.9,423.7,16.9z"/>
	<path fill="#6F797F" d="M461.2-2c2.7,0,4.7,2,4.7,4.6c0,2.5-2,4.5-4.7,4.5c-2.6,0-4.6-2-4.6-4.5C456.7,0,458.7-2,461.2-2z
		 M458.9,17.8h5.5v50.8h-5.5V17.8z"/>
	<path fill="#6F797F" d="M520.9,68.6h-5.5V35c0-8.4-4.3-13-12.1-13c-7.1,0-12.4,4.6-14.3,9.9v36.8h-5.5V17.8h4.1l1.2,5.6h0.4
		c1-1.3,6.1-6.5,14.9-6.5c10.3,0,16.6,5.6,16.9,16.8V68.6z"/>
	<path fill="#6F797F" d="M542.6-2c2.7,0,4.7,2,4.7,4.6c0,2.5-2,4.5-4.7,4.5c-2.6,0-4.6-2-4.6-4.5C538,0,540-2,542.6-2z M540.3,17.8
		h5.5v50.8h-5.5V17.8z"/>
	<path fill="#6F797F" d="M562.9,30.7c0-7.1,6-13.7,17.2-13.7c5.3,0,10.9,1.8,14,4.9l-3.6,4.1c-2.6-2.6-6.9-4-10.6-4
		c-8.1,0-11.5,4-11.5,8.5c0,12.5,26.5,7.4,26.5,24.7c0,7.1-6.1,14.1-17.8,14.1c-7.8,0-14.1-2.8-17.5-6.1l3.6-4.3
		c3.3,3.3,8.2,5.4,14.1,5.4c7.9,0,11.9-4.1,11.9-9C589.4,42.7,562.9,48,562.9,30.7z"/>
	<path fill="#6F797F" d="M611.1,55.9V22.6h-7.9V19l7.9-1.1l1.5-13.5h4v13.5h14.5v4.7h-14.5v32.7c0,6.3,3.2,8.9,8,8.9
		c4.8,0,7-1,8.1-1.7l1.6,4.6c-2,1-5.3,2.1-10.7,2.1C615.3,69.1,611.1,64.7,611.1,55.9z"/>
	<path fill="#6F797F" d="M669.3,23.5c-1.9-0.6-3.8-0.8-5.7-0.8c-5.3,0-10.5,2.1-12.8,7.3v38.7h-5.5V17.8h4.1l1.2,5.2h0.4
		c2.4-3.3,7.2-5.9,12.9-5.9c2.6,0,4.3,0.3,5.4,0.6V23.5z"/>
	<path fill="#6F797F" d="M708.7,32.2v23.8c0,5,1.5,8.6,5.4,8.6h1.2v4.2c-0.3,0.1-1,0.2-1.5,0.2c-5.2,0-8.2-2.8-9.4-6.3h-0.4
		c-2.6,2.8-6.8,7.1-15.9,7.1c-9.5,0-14.8-6.6-14.8-13.3c0-11.1,11.4-16.7,30.1-16.5V34c0-9-4.3-11.7-11.9-11.7
		c-7.5,0-10.9,4-12.5,6.3l-4.1-3.4c1.7-2.4,6.5-8,16.9-8C702.4,17.2,708.7,22,708.7,32.2z M703.6,44.6c-13.3-0.4-24.5,2.8-24.5,11.3
		c0,5,3.6,9,10.2,9c6.6,0,11.8-4,14.2-7.8V44.6z"/>
	<path fill="#6F797F" d="M730,55.9V22.6h-7.9V19l7.9-1.1l1.5-13.5h4v13.5h14.5v4.7h-14.5v32.7c0,6.3,3.2,8.9,8,8.9
		c4.8,0,7-1,8.1-1.7l1.6,4.6c-2,1-5.3,2.1-10.7,2.1C734.2,69.1,730,64.7,730,55.9z"/>
	<path fill="#6F797F" d="M761.4,43.4c0-15.7,5.8-26.5,21-26.5c15.1,0,20.5,10.5,20.5,25.9c0,15.7-5.8,26.6-21,26.6
		C766.7,69.4,761.4,58.8,761.4,43.4z M782.4,64.3c10.7,0,14.7-6.9,14.7-20.9c0-14.4-4.6-21.4-15.3-21.4s-14.7,6.8-14.7,20.8
		C767.1,57.2,771.7,64.3,782.4,64.3z"/>
	<path fill="#6F797F" d="M840.8,23.5c-1.9-0.6-3.8-0.8-5.7-0.8c-5.3,0-10.5,2.1-12.8,7.3v38.7h-5.5V17.8h4.1l1.2,5.2h0.4
		c2.4-3.3,7.2-5.9,12.9-5.9c2.6,0,4.3,0.3,5.4,0.6V23.5z"/>
</g>
</svg>
