<?xml version="1.0" encoding="utf-8"?>
<!-- Generator: Adobe Illustrator 18.0.0, SVG Export Plug-In . SVG Version: 6.00 Build 0)  -->
<!DOCTYPE svg PUBLIC "-//W3C//DTD SVG 1.1//EN" "http://www.w3.org/Graphics/SVG/1.1/DTD/svg11.dtd">
<svg version="1.1" id="Layer_1" xmlns="http://www.w3.org/2000/svg" xmlns:xlink="http://www.w3.org/1999/xlink" x="0px" y="0px"
	 viewBox="0 0 169.9 19.6" enable-background="new 0 0 169.9 19.6" xml:space="preserve">
<path fill="#454545" d="M5.9,9.8C5.9,9.4,6.2,9,6.6,9h10.7c-0.2-1.2-0.7-2.3-1.6-3.3c0,0,0,0,0,0l-1.3-1.3c0,0,0,0,0,0L9.9,0L0,9.8
	l9.9,9.8l4.4-4.4c0,0,0,0,0.1-0.1l1.3-1.3c0,0,0,0,0.1-0.1c0.9-0.9,1.4-2.1,1.6-3.3H6.6C6.2,10.5,5.9,10.2,5.9,9.8 M30.6,13.7
	c0,1.8-1.4,2.2-2.6,2.2h-4.9v-4.5h4.8C29.6,11.4,30.6,12.2,30.6,13.7 M30.1,6c0,1.1-0.9,1.9-2,1.9h-4.9V4.1H28
	C29.3,4.1,30.1,4.8,30.1,6 M32,9.4c1.1-0.9,1.7-2.1,1.7-3.6c0-1.6-0.5-2.9-1.4-3.8c-1-0.9-2.4-1.4-4.3-1.4h-8.6h-0.1v7.4l2.2,1.7
	l-2.2,1.7v7.9h9.2c3.6,0,6-2.2,6-5.6C34.5,11.8,33.6,10.3,32,9.4 M43.3,4.2h5V0.6h-0.1H34.5v3.5h5v15.2h3.8V4.2z M64.7,6.3
	c0,2.5-1.6,3.5-3.8,3.5h-5.6v-7h5.6C63.1,2.8,64.7,3.9,64.7,6.3 M67,6.3c0-3.3-2.2-5.7-6.1-5.7h-8v8l1.5,1.2L52.9,11v8.4h2.3V12h5.6
	C64.8,12,67,9.6,67,6.3 M77.8,14.1c-0.1,2.5-2.3,3.5-4.7,3.5c-1.8,0-3.3-0.6-3.3-2.2c0-1.2,0.7-2.2,3.7-2.4c1.7-0.1,3.3-0.3,4.3-1.1
	V14.1z M78.2,19.4h2.3c-0.2-0.5-0.4-1.6-0.4-2.3V9.5c0-2.6-1.9-4.3-5.7-4.3c-3.6,0-5.9,1.8-6.1,4.6h2.4c0.2-2,2.2-2.5,3.7-2.5
	c2.4,0,3.4,0.8,3.4,1.9c0,1.1-1.1,1.7-4.6,1.9c-3.6,0.2-5.7,1.5-5.7,4.4c0,3,2.6,4.3,5.5,4.3c2.2,0,3.8-0.7,4.8-1.9
	C77.9,18.5,78,19,78.2,19.4 M92.4,19.4h2.3V11c0-3.5-2-5.9-5.4-5.9c-1.7,0-3.1,0.7-4.1,1.9V5.5h-2.2v13.9h2.3v-8.5
	c0-2.1,1.6-3.7,3.7-3.7c2.2,0,3.4,1.6,3.4,3.7V19.4z M108.7,12.6c0,2.9-2.2,5.3-4.8,5.3c-2.6,0-4.8-2.4-4.8-5.3c0-3,2.2-5.4,4.8-5.4
	C106.5,7.2,108.7,9.6,108.7,12.6 M111.1,12.6c0-4.1-3.1-7.5-7.2-7.5c-4.1,0-7.2,3.4-7.2,7.5c0,4.1,3.1,7.4,7.2,7.4
	C108,20,111.1,16.7,111.1,12.6 M119.3,7.4V5.2c-1.6-0.2-3.5,0.4-4.6,1.9V5.5h-2.2v13.9h2.3v-8.1C114.8,8.6,116.9,7.3,119.3,7.4
	 M130.1,14.1c-0.1,2.5-2.3,3.5-4.7,3.5c-1.8,0-3.3-0.6-3.3-2.2c0-1.2,0.7-2.2,3.7-2.4c1.7-0.1,3.3-0.3,4.3-1.1V14.1z M130.5,19.4
	h2.3c-0.2-0.5-0.4-1.6-0.4-2.3V9.5c0-2.6-1.9-4.3-5.7-4.3c-3.6,0-5.9,1.8-6.1,4.6h2.4c0.2-2,2.2-2.5,3.7-2.5c2.4,0,3.4,0.8,3.4,1.9
	c0,1.1-1.1,1.7-4.6,1.9c-3.6,0.2-5.7,1.5-5.7,4.4c0,3,2.6,4.3,5.5,4.3c2.2,0,3.8-0.7,4.8-1.9C130.1,18.5,130.3,19,130.5,19.4
	 M152.8,19.4h2.3v-8.6c0-3.5-2-5.7-5.2-5.7c-2,0-3.5,0.9-4.4,2.4c-0.9-1.5-2.3-2.4-4.3-2.4c-1.6,0-2.9,0.7-3.7,1.9V5.5h-2.2v13.9
	h2.3v-8.5c0-2.1,1.4-3.7,3.3-3.7c2.1,0,3.2,1.3,3.2,3.5v8.7h2.3v-8.5c0-2.1,1.4-3.7,3.3-3.7c2.2,0,3.2,1.3,3.2,3.5V19.4z
	 M167.2,14.1c-0.1,2.5-2.3,3.5-4.7,3.5c-1.8,0-3.3-0.6-3.3-2.2c0-1.2,0.7-2.2,3.7-2.4c1.7-0.1,3.3-0.3,4.3-1.1V14.1z M169.9,19.4
	c-0.2-0.5-0.4-1.6-0.4-2.3V9.5c0-2.6-1.9-4.3-5.7-4.3c-3.6,0-5.9,1.8-6.1,4.6h2.4c0.2-2,2.2-2.5,3.7-2.5c2.4,0,3.4,0.8,3.4,1.9
	c0,1.1-1.1,1.7-4.6,1.9c-3.6,0.2-5.7,1.5-5.7,4.4c0,3,2.6,4.3,5.5,4.3c2.2,0,3.8-0.7,4.8-1.9c0,0.7,0.2,1.2,0.4,1.6H169.9z"/>
</svg>
