<?xml version="1.0" encoding="utf-8"?>
<!-- Generator: Adobe Illustrator 19.0.0, SVG Export Plug-In . SVG Version: 6.00 Build 0)  -->
<!DOCTYPE svg PUBLIC "-//W3C//DTD SVG 1.1//EN" "http://www.w3.org/Graphics/SVG/1.1/DTD/svg11.dtd">
<svg version="1.1" xmlns="http://www.w3.org/2000/svg" xmlns:xlink="http://www.w3.org/1999/xlink" x="0px" y="0px"
	 viewBox="0 0 172.8 83.4" enable-background="new 0 0 172.8 83.4" xml:space="preserve">
<g id="Layer_5">
	<g>
		<g>
			<path fill="#EC1A3B" d="M134.9,20.8l-5.6-17.4c-0.8-2.7-2.1-3.4-4.2-3.4h-10.4c0.8,0.3,1.4,2.4,1.4,2.4l5,17.5
				c0.6,2.2,2.4,3.3,4.4,3.3h11C135.8,23.1,134.9,20.8,134.9,20.8"/>
			<path fill="#EC1A3B" d="M151.5,20.8l5.6-17.4c0.8-2.7,2.1-3.4,4.2-3.4h10.4c-0.8,0.3-1.4,2.4-1.4,2.4l-5,17.5
				c-0.6,2.2-2.4,3.3-4.4,3.3h-11C150.7,23.1,151.5,20.8,151.5,20.8"/>
		</g>
		<rect x="137.1" y="0.1" fill="#EC1A3B" width="12.3" height="23.1"/>
	</g>
	<g>
		<g>
			<path fill="#FFFFFF" d="M19.9,20.8L14.3,3.4C13.5,0.7,12.1,0,10.1,0H-0.3C0.5,0.3,1,2.4,1,2.4l5,17.5c0.6,2.2,2.4,3.3,4.4,3.3h11
				C20.7,23.1,19.9,20.8,19.9,20.8"/>
			<path fill="#FFFFFF" d="M36.5,20.8l5.6-17.4C42.9,0.7,44.2,0,46.3,0h10.4c-0.8,0.3-1.4,2.4-1.4,2.4l-5,17.5
				c-0.6,2.2-2.4,3.3-4.4,3.3h-11C35.6,23.1,36.5,20.8,36.5,20.8"/>
		</g>
		<rect x="22.1" y="0.1" fill="#FFFFFF" width="12.3" height="23.1"/>
	</g>
</g>
<g id="Layer_2_xA0_Image_1_">
</g>
<g id="Vector_Smart_Object_xA0_Image_1_">
	<polyline fill="#221E20" points="165.2,63.3 150.9,63.3 150.9,67.1 156.1,67.1 156.1,83.1 160.1,83.1 160.1,67.1 165.3,67.1 
		165.3,63.3 	"/>
	<path fill="#221E20" d="M148.3,72.6c1.1-0.9,1.8-2.2,1.8-3.8c0-1.7-0.5-3-1.5-4c-1-1-2.5-1.5-4.5-1.5h-9.1v7.4l2.9,2.2l-2.9,2.2
		v7.9h9.6c3.8,0,6.3-2.3,6.3-5.9C150.8,75.1,149.9,73.5,148.3,72.6 M138.9,67h5.2c1.3,0,2.1,0.8,2.1,2c0,1.2-0.9,2-2.1,2h-5.2V67z
		 M144.1,79.5h-5.2v-4.8h5.1c1.8,0,2.8,0.9,2.8,2.4C146.8,79,145.3,79.5,144.1,79.5"/>
	<path fill="#00B3DD" d="M121.9,74c-0.4,0-0.8-0.3-0.9-0.7c0-0.1-0.1-0.2-0.1-0.3c0-0.1,0-0.2,0.1-0.3c0.1-0.4,0.5-0.7,0.9-0.7h10.9
		c-0.2-1.2-0.7-2.3-1.6-3.2c0,0,0,0,0-0.1l-1.4-1.4c0,0,0,0-0.1,0l-4.6-4.6L114.7,73L125,83.4l4.6-4.6c0,0,0,0,0.1-0.1l1.4-1.4
		c0,0,0,0,0.1-0.1c0.9-0.9,1.4-2,1.6-3.2"/>
	<polyline fill="#FFFFFF" points="50.5,63.3 36.2,63.3 36.2,67.1 41.4,67.1 41.4,83.1 45.4,83.1 45.4,67.1 50.6,67.1 50.6,63.3 	"/>
	<path fill="#FFFFFF" d="M33.6,72.6c1.1-0.9,1.8-2.2,1.8-3.8c0-1.7-0.5-3-1.5-4c-1-1-2.5-1.5-4.5-1.5h-9.1v7.4l2.9,2.2l-2.9,2.2v7.9
		h9.6c3.8,0,6.3-2.3,6.3-5.9C36.1,75.1,35.3,73.5,33.6,72.6 M24.2,67h5.2c1.3,0,2.1,0.8,2.1,2c0,1.2-0.9,2-2.1,2h-5.2V67z
		 M29.4,79.5h-5.2v-4.8h5.1c1.8,0,2.8,0.9,2.8,2.4C32.1,79,30.6,79.5,29.4,79.5"/>
	<path fill="#FFFFFF" d="M7.2,74c-0.4,0-0.8-0.3-0.9-0.7c0-0.1-0.1-0.2-0.1-0.3c0-0.1,0-0.2,0.1-0.3C6.4,72.3,6.7,72,7.2,72h10.9
		c-0.2-1.2-0.7-2.3-1.6-3.2c0,0,0,0,0-0.1L15,67.3c0,0,0,0-0.1,0l-4.6-4.6L0,73l10.4,10.4l4.6-4.6c0,0,0,0,0.1-0.1l1.4-1.4
		c0,0,0,0,0.1-0.1c0.9-0.9,1.4-2,1.6-3.2"/>
</g>
<g id="Vector_Smart_Object_copy_xA0_Image_1_">
</g>
<g id="Westpac-W-Logo-CMYK_xA0_Image_1_">
</g>
</svg>
