<?xml version="1.0" standalone="no"?>
<!DOCTYPE svg PUBLIC "-//W3C//DTD SVG 1.1//EN" "http://www.w3.org/Graphics/SVG/1.1/DTD/svg11.dtd" >
<svg xmlns="http://www.w3.org/2000/svg">
<metadata>
This is a custom SVG font generated by IcoMoon.
<iconset grid="16"></iconset>
</metadata>
<defs>
<font id="bt-icons" horiz-adv-x="512" >
<font-face units-per-em="512" ascent="480" descent="-32" />
<missing-glyph horiz-adv-x="512" />
<glyph class="hidden" unicode="&#xf000;" d="M0,480L 512 -32L0 -32 z" horiz-adv-x="0" />
<glyph unicode="&#xe000;" d="M 0,480L 512,480L 512,352L 0,352zM 0,96L 512,96L 512-32L 0-32zM 0,288L 512,288L 512,160L 0,160z"  />
<glyph unicode="&#xe001;" d="M 0,480L 128,480L 128,352L 0,352zM 0,288L 128,288L 128,160L 0,160zM 192,288L 512,288L 512,160L 192,160zM 192,480L 512,480L 512,352L 192,352zM 192,96L 512,96L 512-32L 192-32zM 0,96L 128,96L 128-32L 0-32z"  />
<glyph unicode="&#xe002;" d="M 353.216,84.608l-28.096,40.064l-237.056,338.592l-26.144-18.272l 65.248-93.184c-51.744-27.744-95.936-71.328-127.136-126.080
					c 54.88-96.352, 148.992-160, 256-160c 22.464,0, 44.192,3.328, 65.216,8.768l 74.592-106.464l 26.176,18.272L 353.216,84.608L 353.216,84.608z
					 M 256.032,113.6c-77.44,0-150.24,41.376-199.328,112c 26.624,38.368, 60.608,67.36, 98.144,86.432l 32.48-46.304
					c-7.008-11.808-11.328-25.376-11.328-40.128c0-44.192, 35.808-80, 80-80c 4.928,0, 9.76,0.576, 14.4,1.44l 21.152-30.176
					C 279.904,114.752, 268.032,113.6, 256.032,113.6zM 256.032,385.6c-23.424,0-46.048-3.552-68-9.312l 29.76-42.496c 12.608,2.24, 25.312,3.808, 38.24,3.808
					c 77.44,0, 150.24-41.376, 199.328-112c-27.168-39.136-61.792-68.8-100.256-87.936l 27.68-39.552c 52.672,27.872, 97.632,72, 129.216,127.488
					C 457.152,321.952, 363.040,385.6, 256.032,385.6zM 256.032,305.6c-5.952,0-11.616-0.736-17.152-1.952l 84.608-120.8c 7.872,12.384, 12.576,27.008, 12.576,42.752
					C 336.032,269.792, 300.224,305.6, 256.032,305.6z"  />
<glyph unicode="&#xe003;" d="M 256,384c-107.008,0-201.12-63.648-256-160c 54.88-96.352, 148.992-160, 256-160s 201.12,63.648, 256,160
					C 457.12,320.352, 363.008,384, 256,384z M 256,112c-77.44,0-150.24,41.376-199.328,112c 49.056,70.624, 121.92,112, 199.328,112
					s 150.24-41.376, 199.328-112C 406.24,153.376, 333.44,112, 256,112zM 256,224L 256,304 c-44.192,0-80-35.808-80-80s 35.808-80, 80-80s 80,35.808, 80,80c0,22.048-8.928,42.048-23.424,56.576
					L 256,224z"  />
<glyph unicode="&#xe004;" d="M 128,448L 512,448L 512,384L 128,384zM 128,160L 512,160L 512,96L 128,96zM 128,64L 512,64L 512,0L 128,0zM 256,352L 512,352L 512,288L 256,288zM 256,256L 512,256L 512,192L 256,192zM 0,352L 256,352L 128,224 				z"  />
<glyph unicode="&#xe005;" d="M 288,480l-64,0 c-17.696,0-32-14.304-32-32l 128,0 C 320,465.696, 305.696,480, 288,480zM 448,416l-384,0 c-17.696,0-32-14.304-32-32l0-64 l 448,0 l0,64 C 480,401.696, 465.696,416, 448,416zM 384,64c0-17.696-14.304-32-32-32s-32,14.304-32,32l0,224 l-32,0 l0-224 c0-17.696-14.304-32-32-32s-32,14.304-32,32l0,224 l-32,0 l0-224 c0-17.696-14.304-32-32-32
					s-32,14.304-32,32l0,224 l-64,0 l0-288 c0-17.696, 14.304-32, 32-32l 320,0 c 17.696,0, 32,14.304, 32,32l0,288 l-64,0 L 384,64 z"  />
<glyph unicode="&#xe006;" d="M 502.752,310.816l-160.48,160.8c-5.632,5.632-10.816,8.384-14.752,8.384c-4.672,0-7.52-3.808-7.52-11.328
				c0-12.256,0-20.672,0-52.672l-144.032,0 c-8.768,0-15.968-6.688-15.968-15.552l0-66.56 l-150.848-151.936c-12.288-12.32-12.192-32.448, 0.064-44.672
				l 160.544-160.704c 12.256-12.352, 22.24-11.040, 22.24,3.008c0,12.192,0,20.64,0,52.64l 143.968,0 c 8.864,0, 16.032,6.752, 16.032,15.552l0,66.56 
				l 150.816,151.872C 515.104,278.368, 515.040,298.56, 502.752,310.816z M 352,159.488l0,0.928 L 352,192 l0,79.552 c0,8.864-7.168,16.448-16.032,16.448
				L 192,288 l0,52.256 L 192,384 l 127.968,0 L 352,384 l0,32 l0,0.448 L 352,416.64 l 128.16-128.384L 352,159.488z"  />
<glyph unicode="&#xe007;" d="M 192,79.712l 192,144l-192,160l0-96 l-183.776,0 c 28.288,96, 128.352,192.288, 247.776,192.288c 141.376,0, 256-114.624, 256-256s-114.624-256-256-256
					c-119.072,0-218.784,95.712-247.424,191.712l 183.424,0 L 192,79.712 z"  />
<glyph unicode="&#xe008;" d="M 320,368.288l-192-144l 192-160l0,96 l 183.776,0 c-28.288-96-128.352-192.288-247.776-192.288c-141.376,0-256,114.624-256,256s 114.624,256, 256,256
					c 119.072,0, 218.784-95.712, 247.424-191.712L 320,288.288 L 320,368.288 z"  />
<glyph unicode="&#xe009;" d="M 355.552,32l-256,0 l0,320 l 256,0 l0-63.968 l 64,63.968l0,32 c0,17.696-14.304,32-32,32l-96,0 c0,35.36-28.64,64-64,64s-64-28.64-64-64l-96,0 
					c-17.696,0-32-14.304-32-32l0-384 c0-17.696, 14.304-32, 32-32l 320,0 c 17.696,0, 32,14.304, 32,32l0,128 l-64-64L 355.552,32 z M 227.552,448c 17.696,0, 32-14.304, 32-32
					s-14.304-32-32-32s-32,14.304-32,32S 209.888,448, 227.552,448zM 507.328,309.44l-22.624,22.624c-6.272,6.304-16.384,6.304-22.656,0.064l-124.48-124.448l-56.576,56.576
					c-6.24,6.24-16.384,6.176-22.624,0l-22.624-22.624c-6.24-6.24-6.24-16.384,0-22.624l 67.84-67.936l 0.032,0 l 22.624-22.624
					c 1.568-1.44, 3.36-2.752, 5.28-3.424c 3.104-1.248, 6.336-1.184, 9.536-0.576c 0.832,0.256, 1.76,0.256, 2.528,0.576
					c 0.704,0.32, 1.344,0.864, 2.016,1.376c 1.12,0.576, 2.304,1.184, 3.264,2.048l 0.064,0.064l 22.624,22.624l 135.712,135.68
					C 513.6,293.12, 513.536,303.2, 507.328,309.44z"  />
<glyph unicode="&#xe00a;" d="M 256.128-32c 141.376,0, 256,114.624, 256,256s-114.624,256-256,256s-256-114.624-256-256S 114.752-32, 256.128-32z M 224.128,368
				c0,8.8, 7.2,16, 16,16l 32,0 c 8.8,0, 16-7.2, 16-16l0-32 c0-8.8-7.2-16-16-16l-32,0 c-8.8,0-16,7.2-16,16L 224.128,368 z
				 M 224.128,272c0,8.8, 7.2,16, 16,16l 32,0 c 8.8,0, 16-7.2, 16-16l0-192 c0-8.8-7.2-16-16-16l-32,0 
				c-8.8,0-16,7.2-16,16L 224.128,272 z"  />
<glyph unicode="&#xe00b;" d="M 256.128,480c-141.376,0-256-114.624-256-256s 114.624-256, 256-256s 256,114.624, 256,256S 397.504,480, 256.128,480z M 256.128,80
				c0-8.8-7.2-16-16-16l-32,0 c-8.8,0-16,7.2-16,16l0,32 c0,8.8, 7.2,16, 16,16l 32,0 c 8.8,0, 16-7.2, 16-16L 256.128,80 z
				 M 271.488,192c-8.8,0-16-7.2-16-16s-7.232-16-16-16l-32,0 c-8.8,0-16,7.2-16,16c0,44.128, 35.936,80, 80,80
				c 17.696,0, 32,14.336, 32,32s-14.304,32-32,32l-31.36,0 c-17.632,0-32-7.776-32-25.44c-1.504-8.672-9.76-6.56-18.464-6.56l-31.52,0 
				c-8.672,0-14.56,0-13.12,0l-0.256,0 c 5.312,64, 46.048,96, 95.36,96l 16,0 l0-0.064 c 64-0.32, 103.36-43.2, 103.36-95.936
				C 359.488,235.072, 324.512,192, 271.488,192z"  />
<glyph unicode="&#xe00c;" d="M 375.52,480l-68.256-136.576l 59.52-84.704c-16.384-30.208-37.184-58.272-62.080-83.328c-25.568-25.568-54.368-46.752-85.44-63.328
				l 1.824,1.536L 136.608,172.8L 0,104.576l 51.296-136.576c 123.072,0, 238.816,47.936, 325.92,134.976c 87.040,87.040, 134.944,202.784, 134.944,325.856
				L 375.52,480z"  />
<glyph unicode="&#xe00d;" d="M 256.128,448c-123.68,0-224-100.32-224-224s 100.32-224, 224-224s 224,100.32, 224,224S 379.808,448, 256.128,448z M 416.128,224
				c0-32.576-9.888-62.816-26.656-88.096l-221.44,221.44c 25.28,16.768, 55.52,26.656, 88.096,26.656C 344.352,384, 416.128,312.224, 416.128,224z
				 M 96.128,224c0,32.576, 9.888,62.816, 26.656,88.096l 221.44-221.44c-25.28-16.768-55.52-26.656-88.096-26.656
				C 167.904,64, 96.128,135.776, 96.128,224z"  />
<glyph unicode="&#xe00e;" d="M 160.128,256l0-160 c0-17.696, 14.304-32, 32-32l 128,0 c 17.696,0, 32,14.304, 32,32l0,160 l 63.872,0 l-160,160l-160-160L 160.128,256 z"  />
<glyph unicode="&#xe00f;" d="M 351.872,224l0,160 c0,17.696-14.304,32-32,32l-128,0 c-17.696,0-32-14.304-32-32l0-160 L 96,224 l 160-160l 160,160L 351.872,224 z"  />
<glyph unicode="&#xe010;" d="M 341.333,31.979l-256,0 l0,320 l 256,0 L 341.333,288 l 64,64L 405.333,384 c0,17.685-14.315,32-32,32l-96,0 c0,35.371-28.629,64-64,64s-64-28.629-64-64
					L 53.333,416 c-17.685,0-32-14.315-32-32l0-384 c0-17.685, 14.315-32, 32-32l 320,0 c 17.685,0, 32,14.315, 32,32l0,128 l-64-64L 341.333,31.979 z M 213.333,448
					c 17.685,0, 32-14.315, 32-32s-14.315-32-32-32s-32,14.315-32,32S 195.648,448, 213.333,448zM 507.541,311.552l-21.547,21.632c-5.973,6.037-15.595,6.037-21.589,0.064l-128.299-128.832l-53.888,54.123
					c-5.952,5.952-15.595,5.888-21.547,0l-21.568-21.675c-5.931-5.973-5.931-15.616,0-21.632l 86.187-86.613c 1.493-1.365, 3.221-2.645, 5.013-3.285
					c 2.965-1.216, 6.059-1.152, 9.131-0.533c 0.789,0.256, 1.643,0.256, 2.389,0.533c 0.661,0.299, 1.28,0.832, 1.92,1.323
					c 1.088,0.533, 2.219,1.152, 3.115,1.984l 0.064,0.064l 160.576,161.216C 513.515,295.957, 513.429,305.579, 507.541,311.552z"  />
<glyph unicode="&#xe011;" d="M 234.667,437.333c-129.621,0-234.667-105.045-234.667-234.667s 105.045-234.667, 234.667-234.667s 234.667,105.045, 234.667,234.667l-234.667,0 L 234.667,437.333 zM 277.333,480l0-234.667 l 234.667,0 C 512,374.955, 406.955,480, 277.333,480z"  />
<glyph unicode="&#xe012;" d="M 234.645,295.701A32,32 180 1 1 298.645,295.701A32,32 180 1 1 234.645,295.701zM 490.645,301.547c 0.299,48.704-20.032,94.336-60.437,135.595l-30.165-30.827c 31.915-32.619, 48.043-67.669, 47.936-104.171
					c-0.213-62.293-47.317-110.528-47.765-110.976l 14.912-15.552l-14.869,15.595l 29.781-31.211C 432.491,162.453, 490.176,220.885, 490.645,301.547zM 405.419,300.096c 0.171,28.779-11.627,55.488-35.093,79.445l-30.165-30.827c 14.997-15.317, 22.592-31.488, 22.592-48.021
					c-0.021-28.757-22.251-51.733-22.464-51.968l 14.955-15.531l-14.869,15.595l 29.781-31.211C 371.584,219.029, 405.12,252.992, 405.419,300.096zM 133.099,406.165l-11.947,12.416l-17.899,18.752c-2.453-2.453-60.117-60.885-60.629-141.547
					c-0.299-48.704, 20.032-94.336, 60.416-135.595l 30.165,30.827c-31.915,32.619-48.043,67.669-47.915,104.171
					C 85.525,357.483, 132.629,405.717, 133.099,406.165zM 193.429,348.608l-13.312,13.781l-16.555,17.344c-1.429-1.408-34.987-35.392-35.243-82.496
					c-0.192-28.757, 11.627-55.488, 35.051-79.445l 30.165,30.827c-14.955,15.317-22.571,31.488-22.549,48.021
					C 170.987,325.397, 193.216,348.373, 193.429,348.608zM 277.312,199.701l-21.333,0 c-11.797,0-21.333-9.536-21.333-21.333l0-149.333 c0-11.797, 9.536-21.333, 21.333-21.333l 21.333,0 c 11.797,0, 21.333,9.536, 21.333,21.333l0,149.333 
					C 298.645,190.165, 289.109,199.701, 277.312,199.701z"  />
<glyph unicode="&#xe013;" d="M 474.027,480L 16.64,480 c-9.237,0-16.64-7.168-16.64-15.979l0-479.701 c0-8.853, 7.424-16.021, 16.64-16.021l 175.36,0 L 192,117.333 l 106.667,0 
				l0-149.035 l 175.36,0 c 9.237,0, 16.64,7.168, 16.64,16.021L 490.667,464.021 C 490.667,472.832, 483.243,480, 474.027,480z M 170.667,309.333l-106.667,0 l0,106.667 l 106.667,0 L 170.667,309.333 z
				 M 298.667,309.333l-106.667,0 l0,106.667 l 106.667,0 L 298.667,309.333 z M 426.667,309.333l-106.667,0 l0,106.667 l 106.667,0 L 426.667,309.333 z M 426.667,181.333l-106.667,0 l0,106.667 l 106.667,0 L 426.667,181.333 z M 298.667,181.333l-106.667,0 l0,106.667 l 106.667,0 L 298.667,181.333 z M 170.667,181.333l-106.667,0 l0,106.667 l 106.667,0 
				L 170.667,181.333 z"  />
<glyph unicode="&#xe014;" d="M 512,224l-256,234.667l-256-234.667l 64,0 l0-192 c0-11.797, 9.536-21.333, 21.333-21.333l 85.333,0 c 11.797,0, 21.333,9.536, 21.333,21.333l0,149.333 l 128,0 l0-149.333 c0-11.797, 9.536-21.333, 21.333-21.333l 85.333,0 
				c 11.797,0, 21.333,9.536, 21.333,21.333l0,192 L 512,224 z"  />
<glyph unicode="&#xe015;" d="M 505.067,8.469l-100.437,99.371c 13.888,20.651, 22.037,45.568, 22.037,72.427c0,71.296-57.301,129.067-128,129.067
					s-128-57.771-128-129.067s 57.301-129.067, 128-129.067c 27.008,0, 52.011,8.469, 72.661,22.848l 100.181-99.115c 4.651-4.629, 10.709-6.933, 16.768-6.933
					s 12.117,2.304, 16.768,6.933C 514.304-15.787, 514.304-0.789, 505.067,8.469z M 298.667,93.867c-47.061,0-85.333,38.741-85.333,86.4s 38.272,86.4, 85.333,86.4
					s 85.333-38.741, 85.333-86.4S 345.728,93.867, 298.667,93.867zM 159.573,234.645c 21.589,55.787, 75.2,95.531, 138.027,95.957c-5.333,47.979-45.525,85.397-94.933,85.397
					c-52.971,0-96-42.965-96-95.979C 106.667,282.539, 128.341,250.475, 159.573,234.645zM 368.171,47.168c-21.355-11.349-45.077-17.301-69.504-17.301c-82.325,0-149.333,67.456-149.333,150.4
					c0,5.205, 0.277,10.368, 0.789,15.445c-86.421-22.592-150.123-99.243-150.123-190.656c0-20.437, 17.024-37.056, 37.995-37.056l 329.365,0 
					c 20.971,0, 37.952,16.555, 37.952,37.056c0,1.899-0.235,3.733-0.299,5.632L 368.171,47.168z"  />
<glyph unicode="&#xe016;" d="M 512,224.192L 352.256,384L 307.872,339.616L 391.68,255.776L 128,255.776L 128,191.744L 391.264,191.744L 307.84,108.352L 352.192,64L 480,191.744L 480.032,191.744L 480.032,191.808L 512,223.744L 511.808,223.968 				zM 64,416L 384,416L 384,480L 0,480L 0-32L 384-32L 384,32L 64,32 				z"  />
<glyph unicode="&#xe017;" d="M 489.664,265.632l-179.52,137.984c-29.792,22.912-54.048,13.184-54.048-21.536l0-57.728 c0,0-256.064-30.528-256.064-244.352
				c0,0,0-61.088, 32-30.56c0,0, 64,61.088, 224.064,61.088l0-44.576 c0-34.72, 24.48-44.48, 54.048-21.568l 179.52,137.984
				C 519.424,205.28, 519.424,242.752, 489.664,265.632z"  />
<glyph unicode="&#xe018;" d="M 461.312,212c0,8.672-0.704,17.184-1.792,25.6l 52.48,16.992l-23.808,73.024l-52.32-16.96
				c-8.32,15.104-18.592,28.832-30.304,41.344l 32.48,44.576l-62.24,45.12l-35.552-44.544c-15.36,7.232-19.84,12.672-51.936,15.936L 288.32,480 l-64.16,0 
				l0-66.912 c-32.096-3.296-36.736-8.704-52-15.936l-34.176,44.544l-63.104-45.12l 32.064-44.576c-11.712-12.512-22.176-26.24-30.56-41.344
				l-52.416,16.96l-23.84-73.024l 52.48-16.992c-1.056-8.416-1.856-16.896-1.856-25.6s 0.704-17.184, 1.792-25.6l-52.512-16.992l 23.808-73.056
				l 52.32,16.96c 8.352-15.072, 18.624-28.8, 30.336-41.312l-32.48-44.576l 62.208-45.184l 35.52,44.608c 15.36-7.232, 19.904-12.672, 52-15.936L 223.744-32 
				l 64.16,0 l0,42.912 c 32.096,3.296, 36.736,8.704, 52,15.936l 34.080-44.608l 63.136,45.184l-32.096,44.576c 11.744,12.512, 22.144,26.24, 30.56,41.312
				l 52.416-16.928l 23.84,73.024l-52.512,16.992C 460.544,194.816, 461.312,203.328, 461.312,212z M 256.032,116
				c-53.184,0-96.256,43.008-96.256,96c0,53.056, 43.072,96, 96.256,96c 53.12,0, 96.224-42.944, 96.224-96
				C 352.256,159.008, 309.216,116, 256.032,116z"  />
<glyph unicode="&#xe019;" d="M 0,288c0-105.984, 86.016-192, 192-192c 41.44,0, 79.712,13.28, 111.136,35.616l 154.24-154.24c 6.24-6.24, 14.432-9.376, 22.624-9.376
				s 16.384,3.136, 22.624,9.376c 12.512,12.512, 12.512,32.736,0,45.248l-154.24,154.24c 22.336,31.328, 35.616,69.696, 35.616,111.136c0,105.984-86.016,192-192,192
				S 0,393.984, 0,288z M 64,288c0,70.592, 57.408,128, 128,128s 128-57.408, 128-128s-57.408-128-128-128S 64,217.408, 64,288z"  />
<glyph unicode="&#xe01a;" d="M 256.128,480c-141.376,0-256-114.624-256-256s 114.624-256, 256-256s 256,114.624, 256,256S 397.504,480, 256.128,480z M 256.128,32
					c-105.888,0-192,86.112-192,192s 86.112,192, 192,192s 192-86.112, 192-192S 361.984,32, 256.128,32zM 256.16,371.072c-17.728,0.064-32.064-14.24-32.032-31.936l-0.064-115.136l-54.624-54.048c-6.24-6.176-9.408-14.496-9.376-22.624
					c-0.064-8.256, 3.136-16.384, 9.376-22.624c 6.176-6.144, 14.464-9.376, 22.592-9.44c 8.224,0.064, 16.384,3.264, 22.592,9.44l 64.064,63.424
					c 6.24,6.24, 9.44,14.432, 9.44,22.624c0,0.064,0,0.128,0,0.128c0,0.096,0,0.128,0,0.192l0,128 
					C 288.128,356.736, 273.824,371.072, 256.16,371.072z"  />
<glyph unicode="&#xe01b;" d="M 352.032,320c 17.664,0, 32,14.336, 32,32l0,64 c0,17.696-14.336,32-32,32c-17.696,0-32.032-14.304-32.032-32l0-64 
						C 320,334.336, 334.336,320, 352.032,320z M 448.032,480l-32,0 l0-192 c0-17.696-14.336-32-32-32l-256,0 c-17.696,0-32,14.304-32,32l0,192 L 32,480 
						c-17.664,0-32-14.336-32-32l0-448 c0-17.696, 14.336-32, 32-32l 448.032,0 c 17.664,0, 32,14.304, 32,32l0,416 L 448.032,480z"  />
<glyph unicode="&#xe01c;" d="M 272.128,416c-73.952,0-138.464-38.784-175.328-96.864l-0.672,0.864l-96-128l 64.8,0 c 8.192-107.36, 97.728-192, 207.2-192
				c 114.88,0, 208,93.12, 208,208S 387.008,416, 272.128,416z M 272.128,64c-73.952,0-134.304,56.192-142.368,128l 62.368,0 l-92.928,123.968l 78.688,0 
				c 25.312,22.144, 58.016,36.032, 94.24,36.032c 79.36,0, 144-64.64, 144-144S 351.488,64, 272.128,64z"  />
<glyph unicode="&#xe01d;" d="M 109.696,288c 24.736,56.416, 80.992,96, 146.432,96s 121.696-39.584, 146.432-96l 13.568,0 l 54.592,0 c-27.552,92.512-113.152,160-214.592,160
					s-187.040-67.488-214.592-160l-41.408,0 l 96-128l 96,128L 109.696,288 zM 416.128,288l-96-128l 82.432,0 c-24.736-56.416-80.992-96-146.432-96s-121.696,39.584-146.432,96l-13.568,0 l-54.592,0 
					c 27.552-92.512, 113.152-160, 214.592-160s 187.040,67.488, 214.592,160l 41.408,0 L 416.128,288z"  />
<glyph unicode="&#xe01e;" d="M 256,55.424L 97.824-32L 128,153.248L 0,284.448L 176.864,311.424L 256,480 			z"  />
<glyph unicode="&#xe01f;" d="M 256,55.456L 97.824-32L 128,153.248L 0,284.48L 176.864,311.456L 256,480L 335.136,311.456L 512,284.48L 384,153.248L 414.176-32 			z"  />
<glyph unicode="&#xe020;" d="M 128,448L 384,448L 384,192L 128,192zM 480,224l-64,0 l0-64 l-320,0 l0,64 l-64,0 c-17.696,0-32-14.304-32-32l0-192 c0-17.696, 14.304-32, 32-32l 448,0 c 17.696,0, 32,14.304, 32,32l0,192 
					C 512,209.696, 497.696,224, 480,224z M 416,32c-26.528,0-48,21.472-48,48s 21.472,48, 48,48s 48-21.472, 48-48
					S 442.528,32, 416,32z"  />
<glyph unicode="&#xe021;" d="M 256.128,480c-141.376,0-256-114.624-256-256s 114.624-256, 256-256s 256,114.624, 256,256S 397.504,480, 256.128,480z M 355.008,80l-98.88,54.688
				l-98.88-54.688l 18.88,115.68l-80,82.112l 110.592,16.768l 49.408,105.408l 49.408-105.312l 110.592-16.864l-80-82.016L 355.008,80z"  />
<glyph unicode="&#xe022;" d="M 96,449.76c0-0.64,0-1.184,0-1.76c0,17.696-14.304,32-32,32s-32-14.304-32-32l0-448 c0-17.696, 14.304-32, 32-32s 32,14.304, 32,32l0,158.24 
				c 138.656-104.864, 213.344,104.928, 352,0c0,97.184,0,194.304,0,291.36C 309.344,554.624, 234.656,344.736, 96,449.76z"  />
<glyph unicode="&#xe023;" d="M 256.128,480c-141.376,0-256-114.624-256-256s 114.624-256, 256-256s 256,114.624, 256,256S 397.504,480, 256.128,480z M 391.904,280.512
				l-135.712-135.68l-22.624-22.624l-0.064-0.064c-0.928-0.864-2.112-1.504-3.264-2.048c-0.672-0.512-1.312-1.056-2.016-1.376
				c-0.768-0.32-1.696-0.32-2.528-0.576c-3.2-0.672-6.432-0.672-9.536,0.576c-1.92,0.672-3.712,1.984-5.28,3.424l-22.624,22.624
				l-0.032,0 l-67.84,67.936c-6.24,6.208-6.24,16.384,0,22.624l 22.624,22.624c 6.24,6.176, 16.384,6.208, 22.624,0l 56.576-56.608l 124.48,124.48
				c 6.272,6.208, 16.384,6.208, 22.656-0.064l 22.624-22.624C 398.112,296.864, 398.176,286.784, 391.904,280.512z"  />
<glyph unicode="&#xe024;" d="M 256,480c-141.376,0-256-114.624-256-256s 114.624-256, 256-256s 256,114.624, 256,256S 397.376,480, 256,480z M 288,80
				c0-8.8-7.2-16-16-16l-32,0 c-8.8,0-16,7.2-16,16l0,32 c0,8.8, 7.2,16, 16,16l 32,0 c 8.8,0, 16-7.2, 16-16L 288,80 z
				 M 288,176c0-8.8-7.2-16-16-16l-32,0 c-8.8,0-16,7.2-16,16l0,192 c0,8.8, 7.2,16, 16,16l 32,0 c 8.8,0, 16-7.2, 16-16
				L 288,176 z"  />
<glyph unicode="&#xe025;" d="M 469.792,94.912l-164.48,350.144c-26.752,46.592-102.624,46.592-129.376,0l-164.448-350.144c-26.816-46.624-4.576-84.672, 49.44-84.672
				l 359.328,0 C 474.304,10.112, 496.576,48.288, 469.792,94.912z M 272.64,90.112c0-8.832-7.2-16-16-16l-32,0 
				c-8.8,0-16,7.168-16,16l0,32 c0,8.832, 7.2,16, 16,16l 32,0 c 8.8,0, 16-7.168, 16-16L 272.64,90.112 z M 273.12,186.112
				c0-8.832-7.168-16-16-16l-32,0 c-8.736,0-16,7.168-16,16l0,160 c0,8.832, 7.264,16, 16,16l 32,0 c 8.832,0, 16-7.168, 16-16L 273.12,186.112 z"  />
<glyph unicode="&#xe026;" d="M 416,32l-352,0 l0,352 l 160,0 l 64,64l-256,0 c-17.696,0-32-14.272-32-32l0-416 c0-17.696, 14.304-32, 32-32l 416,0 c 17.696,0, 32,14.304, 32,32l0,256 l-64-64L 416,32 zM 507.552,432.928l-42.624,42.624c-6.016,5.952-15.424,5.92-21.376,0l-27.552-27.52l 64-64l 27.552,27.584
					C 513.504,417.536, 513.504,427.072, 507.552,432.928zM 197.312,144.064c-4.928,1.376-9.632,3.872-13.568,7.744c-3.872,3.936-6.368,8.672-7.744,13.568
					c-4.928,1.376-9.632,3.872-13.568,7.776c-3.872,3.872-6.368,8.576-7.744,13.536l-12.576-12.608
					c-1.504-1.376-2.624-3.36-3.328-6.272l-7.648-56.096c-2.048-9.024, 3.488-14.72, 12.672-12.64l 56.032,7.712
					c 2.944,0.672, 4.864,1.888, 6.304,3.296l 12.608,12.608c-4.896,1.408-9.696,3.904-13.6,7.776
					C 201.184,134.432, 198.688,139.2, 197.312,144.064zM 232,157.376c 5.888-5.92, 15.424-5.92, 21.312,0l 194.656,194.688L 384,416.032l-194.624-194.688
					c-5.952-5.888-5.952-15.392,0-21.28c 5.888-5.888, 15.424-5.888, 21.312,0c-5.888-5.888-5.888-15.456,0-21.344
					c 5.888-5.92, 15.36-5.92, 21.312,0l0-0.032 C 226.112,172.8, 226.112,163.328, 232,157.376z"  />
<glyph unicode="&#xe027;" d="M 256,480l 44.16-91.168l 83.84,56.832l-7.328-100.992l 100.992,7.328l-56.832-83.84l 91.168-44.16l-91.168-44.16
				l 56.832-83.84l-100.992,7.328l 7.328-100.992l-83.84,56.832l-44.16-91.168l-44.16,91.168l-83.84-56.832l 7.328,100.992l-100.992-7.328l 56.832,83.84
				l-91.168,44.16l 91.168,44.16l-56.832,83.84l 100.992-7.328l-7.328,100.992l 83.84-56.832L 256,480z"  />
<glyph unicode="&#xe028;" d="M 352,480l-192,0 c-35.328,0-64-28.672-64-64l0-384 c0-35.328, 28.672-64, 64-64l 192,0 c 35.328,0, 64,28.672, 64,64l0,384 
				C 416,451.328, 387.328,480, 352,480z M 256,0c-17.696,0-32,14.304-32,32s 14.304,32, 32,32s 32-14.304, 32-32S 273.696,0, 256,0z
				 M 352,96l-192,0 l0,320 l 192,0 L 352,96 z"  />
<glyph unicode="&#xe029;" d="M 287.712,96L 96,96 l0,320 l 191.712,0 l0-32 l 64,0 l0,32 c0,35.328-28.672,64-64,64L 96,480 c-35.328,0-64-28.672-64-64l0-384 c0-35.328, 28.672-64, 64-64l 191.712,0 
					c 35.328,0, 64,28.672, 64,64l0,96 l-64,0 L 287.712,96 z M 192,0c-17.728,0-32,14.304-32,32s 14.272,32, 32,32c 17.696,0, 32-14.304, 32-32S 209.696,0, 192,0zM 384,96l 128,160l-127.616,160l0-64 l-128.352,0 c-17.728,0-32.032-14.24-32.032-31.968l0-128 c0-17.696, 14.304-32.032, 32.032-32.032l 128.352,0 
					L 384,96z"  />
<glyph unicode="&#xe02a;" d="M 333.28,56.096l-45.568,57.12L 287.712,96 l-191.744,0 l0,320 l 191.744,0 l0-17.536 l 46.016,57.504l 1.76,2.208
						c-11.712,13.248-28.672,21.824-47.744,21.824L 96,480 c-35.328,0-64-28.672-64-64l0-384 c0-35.328, 28.672-64, 64-64l 191.744,0 c 35.328,0, 64,28.672, 64,64l0,0.928 
						L 333.28,56.096z M 191.712,0c-17.728,0-32,14.304-32,32s 14.272,32, 32,32c 17.696,0, 32-14.304, 32-32S 209.408,0, 191.712,0zM 383.68,416l-159.68-160l 159.328-160l0,64 l 96.672,0 c 17.728,0, 32.032,14.24, 32.032,31.968l0,128 c0,17.696-14.304,32.032-32.032,32.032l-96.672,0 
					L 383.68,416z"  />
<glyph unicode="&#xe02b;" d="M 480,480l-448,0 c-17.696,0-32-14.336-32-32l0-448 c0-17.696, 14.304-32, 32-32l 448,0 c 17.696,0, 32,14.304, 32,32l0,448 
				C 512,465.664, 497.696,480, 480,480z M 191.424,96l0,256 l 160.576-128L 191.424,96z"  />
<glyph unicode="&#xe02c;" d="M 480,480l-448,0 c-17.696,0-32-14.336-32-32l0-448 c0-17.696, 14.304-32, 32-32l 448,0 c 17.696,0, 32,14.304, 32,32l0,448 
				C 512,465.664, 497.696,480, 480,480z M 224,112c0-8.832-7.168-16-16-16l-32,0 c-8.736,0-16,7.168-16,16l0,224 
				c0,8.832, 7.264,16, 16,16l 32,0 c 8.832,0, 16-7.168, 16-16L 224,112 z M 352,112c0-8.832-7.168-16-16-16l-32,0 c-8.736,0-16,7.168-16,16
				l0,224 c0,8.832, 7.264,16, 16,16l 32,0 c 8.832,0, 16-7.168, 16-16L 352,112 z"  />
<glyph unicode="&#xe02d;" d="M 268,480c-88.448,0-160-75.2-160-160s 128-352, 160-352s 160,267.2, 160,352S 356.448,480, 268,480z M 268,256
				c-35.328,0-64,28.672-64,64s 28.672,64, 64,64s 64-28.672, 64-64S 303.328,256, 268,256z"  />
<glyph unicode="&#xe02e;" d="M 416,288l-32,0 l0,64 c0,70.688-57.312,128-128,128s-128-57.312-128-128l0-64 l-32,0 c-17.696,0-32-14.336-32-32l0-256 c0-17.696, 14.304-32, 32-32l 320,0 
				c 17.696,0, 32,14.304, 32,32l0,256 C 448,273.664, 433.696,288, 416,288z M 288,64c0-17.664-14.336-32-32-32s-32,14.336-32,32l0,96 
				c0,17.664, 14.336,32, 32,32s 32-14.336, 32-32L 288,64 z M 192,288l0,64 c0,35.296, 28.704,64, 64,64s 64-28.704, 64-64l0-64 L 192,288 z"  />
<glyph unicode="&#xe02f;" d="M 351.488,319.488c-12.608,12.512-32.736,12.512-45.248,0l-146.496-146.496c-12.512-12.512-12.448-32.736,0-45.248
					c 6.24-6.24, 14.432-9.408, 22.656-9.408c 8.128,0.032, 16.384,3.168, 22.624,9.408l 146.464,146.496
					C 364.032,286.752, 364.032,306.912, 351.488,319.488zM 474.496,442.496c-24.96,24.992-57.76,37.504-90.496,37.504c-32.736-0.032-65.504-12.448-90.528-37.472l-74.72-74.72l 45.184-45.312
					l 74.816,74.752c 12.064,12.064, 28.192,18.752, 45.248,18.752s 33.184-6.688, 45.248-18.752c 24.864-24.96, 24.928-65.504, 0.064-90.464l-74.88-74.784
					l 45.28-45.28l 74.784,74.784C 524.576,311.488, 524.448,392.512, 474.496,442.496zM 205.312,82.752l-32.096-32c-12.096-12.128-28.16-18.752-45.248-18.752c-17.056,0-33.152,6.624-45.216,18.752
					c-24.928,24.928-24.928,65.504,0,90.432l 77.248,77.312l-45.248,45.216l-77.248-77.248c-49.984-49.984-49.984-131.040-0.032-180.992
					c 24.992-24.96, 57.792-37.504, 90.528-37.472c 32.672-0.032, 65.472,12.512, 90.496,37.504l 77.28,77.184l-45.28,45.248L 205.312,82.752z"  />
<glyph unicode="&#xe030;" d="M 512,224l-256,224l-256-224l 62.944,0 l 0.96-192c0-17.696, 14.336-32, 32-32l 64,0 c 17.696,0, 32,14.304, 32,32l0,128 l 128,0 l0-128 c0-17.696, 14.336-32, 32-32l 64,0 
				c 17.696,0, 32,14.304, 32,32l-0.352,192L 512,224 z"  />
<glyph unicode="&#xe031;" d="M 496,384l-272,0 L 224,432 c0,8.8-7.2,16-16,16l-192,0 c-8.8,0-16-7.2-16-16l0-416 c0-8.8, 7.2-16, 16-16l 480,0 
				c 8.8,0, 16,7.2, 16,16L 512,368 C 512,376.8, 504.8,384, 496,384z"  />
<glyph unicode="&#xe032;" d="M 464,480l-416,0 c-8.8,0-16-7.136-16-15.904l0-15.776 l 160-224.32l0-256 l 128,64l0,192 l 160,224.352l0,15.776 C 480,472.864, 472.8,480, 464,480z
				 M 214.4,267.552c-7.296-5.024-17.248-3.328-22.272,4.096l-108.864,158.080c-4.992,7.328-3.136,17.184, 4.192,22.176s 17.184,3.264, 22.208-4.064
				l 108.864-158.048C 223.488,282.464, 221.696,272.576, 214.4,267.552z"  />
<glyph unicode="&#xe033;" d="M 320,272l0,192 c0,8.8-7.2,16-16,16l-288,0 c-8.8,0-16-7.2-16-16l0-208 l0-96 l 96,96l 208,0 
					C 312.8,256, 320,263.2, 320,272zM 496,288l-144,0 l0-64 l-160,0 L 192,80 c0-8.8, 7.2-16, 16-16l 208,0 l 96-96l0,96 L 512,272 C 512,280.8, 504.8,288, 496,288z"  />
<glyph unicode="&#xe034;" d="M 0,159.52l0-162.176 c0-16.224, 13.12-29.344, 29.312-29.344l 293.344,0 c 16.16,0, 29.344,13.12, 29.344,29.344l0,162.176 l-176-101.312
					L 0,159.52zM 351.68,197.696c-1.536,14.752-13.888,26.304-29.024,26.304l-293.344,0 c-15.136,0-27.488-11.552-28.992-26.304l 175.68-101.152
					L 351.68,197.696zM 512,336l-128,144l 0.256-64L 288,416 c-17.728,0-32.032-14.24-32.032-31.968l0-95.968 c0-17.696, 14.304-32.032, 32.032-32.032l 96,0 l0-64 L 512,336z
					"  />
<glyph unicode="&#xe035;" d="M 503.136,385.856l-85.248,85.312c-11.808,11.84-30.912,11.744-42.688,0L 336,432.032l 127.968-128l 39.232,39.2
					C 514.976,355.040, 514.976,374.080, 503.136,385.856zM 133.28,58.752c-9.984,2.816-19.328,7.808-27.168,15.52c-7.712,7.808-12.704,17.184-15.52,27.104
					c-9.92,2.816-19.296,7.808-27.104,15.52c-7.712,7.744-12.704,17.184-15.52,27.072l-25.024-25.056c-3.008-2.816-5.248-6.816-6.624-12.64
					l-15.424-112.192c-4.192-18.048, 7.2-29.44, 25.248-25.184l 112.064,15.36c 5.92,1.344, 9.888,3.584, 12.672,6.592L 176,16.096
					c-9.952,2.784-19.36,7.808-27.2,15.584C 141.024,39.456, 136.032,48.832, 133.28,58.752zM 101.312,197.344c-11.776-11.744-11.776-30.88,0-42.624c 11.744-11.776, 30.88-11.776, 42.624,0c-11.744-11.776-11.744-30.88,0-42.656
					c 11.808-11.776, 30.848-11.776, 42.656,0l 0.032-0.032c-11.808-11.776-11.808-30.848-0.032-42.624c 11.776-11.744, 30.88-11.744, 42.656,0
					l 186.688,186.688l-127.936,127.936L 101.312,197.344z"  />
<glyph unicode="&#xe036;" d="M 0,0L 512,0L 512-32L 0-32zM 480,256l-96,0 l0,192 c0,17.696-14.304,32-32,32l-192,0 c-17.696,0-32-14.304-32-32l0-192 l-96,0 l 224-224L 480,256z"  />
<glyph unicode="&#xe037;" d="M 352,480l-288,0 l0-512 l 384,0 l0,416 L 352,480z M 320,352l0,96 l 96-96L 320,352 z"  />
<glyph unicode="&#xe038;" d="M 256,224l 128-128l-63.36,0 L 320,96 l0-128 l 128,0 l0,416 l-96,96l-288,0 l0-512 l 128,0 l0,128 l-64,0 L 256,224z M 320,352l0,96 l 96-96L 320,352 z"  />
<glyph unicode="&#xe039;" d="M 352,480l-288,0 l0-512 l 128,0 l 64,0 l-128,128l 63.36,0 l 0.64,0 l0,128 l 128,0 l0-128 l 64,0 l-128-128l 64,0 l 128,0 l0,416 L 352,480z M 320,352l0,96 l 96-96L 320,352 z"  />
<glyph unicode="&#xe03a;" d="M 256,288c-35.328,0-64-28.672-64-64s 28.672-64, 64-64s 64,28.672, 64,64S 291.328,288, 256,288z"  />
<glyph unicode="&#xe03b;" d="M 256,480c-141.376,0-256-114.624-256-256s 114.624-256, 256-256s 256,114.624, 256,256S 397.376,480, 256,480z M 224,64l-64,64l 96,96l-96,96l 64,64l 160-160
				L 224,64z"  />
<glyph unicode="&#xe03c;" d="M 194.048,58.176L 32.128,220.128L 100,288L 194.048,193.952L 416.128,416L 484,348.128 			z"  />
<glyph unicode="&#xe03d;" d="M 256.128,416c 105.888,0, 192-86.112, 192-192s-86.112-192-192-192s-192,86.112-192,192S 150.24,416, 256.128,416 M 256.128,480
				c-141.376,0-256-114.624-256-256s 114.624-256, 256-256s 256,114.624, 256,256S 397.504,480, 256.128,480L 256.128,480z"  />
<glyph unicode="&#xe03e;" d="M 464,480l-448,0 c-8.8,0-16-7.2-16-16l0-480 c0-8.8, 7.2-16, 16-16l 176,0 l0,160 l 96,0 l0-160 l 176,0 c 8.864,0, 16,7.2, 16,16L 480,464 
				C 480,472.8, 472.864,480, 464,480z M 160,192l-96,0 l0,96 l 96,0 L 160,192 z M 160,320l-96,0 l0,96 l 96,0 L 160,320 z M 288,192l-96,0 l0,96 l 96,0 L 288,192 z
				 M 288,320l-96,0 l0,96 l 96,0 L 288,320 z M 416,192l-96,0 l0,96 l 96,0 L 416,192 z M 416,320l-96,0 l0,96 l 96,0 L 416,320 z"  />
<glyph unicode="&#xe03f;" d="M 496,256l-480,0 c-8.8,0-16-7.2-16-16l0-32 c0-8.8, 7.2-16, 16-16l 480,0 c 8.8,0, 16,7.2, 16,16l0,32 
				C 512,248.8, 504.8,256, 496,256z"  />
<glyph unicode="&#xe040;" d="M 192,32l0,128 l-64,0 l 128,128l 128-128l-63.36,0 l-0.64,0 l0-128 l 64,0 c 70.688,0, 128,57.312, 128,128c0,60.64-42.24,111.136-98.88,124.384
				c-13.408,74.816-78.496,131.616-157.12,131.616c-88.384,0-160-71.616-160-160c0-0.576, 0.16-1.056, 0.16-1.6c-54.272-7.744-96.16-54.016-96.16-110.4
				c0-61.888, 50.112-112, 112-112L 192,32 z"  />
<glyph unicode="&#xe041;" d="M 413.12,284.384c-13.408,74.816-78.496,131.616-157.12,131.616c-88.384,0-160-71.616-160-160c0-0.576, 0.16-1.056, 0.16-1.6
				C 41.888,246.656, 0,200.384, 0,144c0-61.888, 50.112-112, 112-112l 144,0 l-128,128l 63.36,0 l 0.64,0 l0,128 l 128,0 l0-128 l 64,0 l-128-128l 128,0 c 70.688,0, 128,57.312, 128,128
				C 512,220.64, 469.76,271.136, 413.12,284.384z"  />
<glyph unicode="&#xe042;" d="M 398.048,411.328l-147.104-147.072l-147.072,147.072c-6.24,6.24-16.384,6.24-22.624,0l-22.656-22.624
				c-6.24-6.24-6.24-16.384,0-22.624l 147.104-147.072l-147.104-147.072c-6.24-6.272-6.24-16.384,0-22.656l 22.656-22.624
				c 6.24-6.24, 16.384-6.24, 22.624,0l 147.072,147.104l 147.104-147.104c 6.24-6.24, 16.352-6.24, 22.624,0l 22.624,22.624
				c 6.24,6.272, 6.24,16.384,0,22.656l-147.104,147.072l 147.104,147.072c 6.24,6.24, 6.24,16.384,0,22.624l-22.624,22.624
				C 414.4,417.568, 404.32,417.568, 398.048,411.328z"  />
<glyph unicode="&#xe043;" d="M 256,256c 61.888,0, 112,50.112, 112,112s-50.112,112-112,112c-61.824,0-112-50.112-112-112S 194.176,256, 256,256z
						 M 256,224c-123.712,0-224-96.512-224-215.552c0-22.304, 18.816-40.448, 41.984-40.448l 364,0 c 23.232,0, 41.984,18.048, 41.984,40.448
						C 480,127.488, 379.744,224, 256,224z"  />
<glyph unicode="&#xe044;" d="M 352,480l-320,0 l0-512 l 32.16,0 c0,0.288-0.16,0.512-0.16,0.736c0,96.512, 78.784,174.688, 176,174.688s 176-78.176, 176-174.688
				c0-0.256-0.16-0.576-0.16-0.736l 32.16,0 l0,416 L 352,480z M 240,170.464c-48.576,0-88,40.672-88,90.784
				c0,50.048, 39.424,90.752, 88,90.752c 48.64,0, 88-40.672, 88-90.752C 328,211.136, 288.64,170.464, 240,170.464z M 320,352l0,96 l 96-96
				L 320,352 z"  />
<glyph unicode="&#xe045;" d="M 88,293.248A88,90.752 180 1 1 264,293.248A88,90.752 180 1 1 88,293.248zM 176,175.456c-97.248,0-176-78.208-176-174.688c0-18.080, 14.752-32.768, 32.992-32.768l 286.016,0 c 18.176,0, 32.992,14.688, 32.992,32.768
					C 352,97.248, 273.184,175.456, 176,175.456zM 282.24,410.176A72.032,69.824 180 1 1 426.304,410.176A72.032,69.824 180 1 1 282.24,410.176zM 354.304,319.584c-22.048,0-42.688-4.992-61.376-13.248c 0.512-4.416, 1.312-8.608, 1.312-13.088
					c0-40.256-19.072-75.488-48.384-97.952c 22.176-8.128, 42.304-34.304, 60.192-34.304l 165.248,0 c 14.912,0, 27.008,10.816, 27.008,24.672
					C 498.304,259.936, 433.888,319.584, 354.304,319.584z"  />
<glyph unicode="&#xe046;" d="M 112,368A112,112 180 1 1 336,368A112,112 180 1 1 112,368zM 400,32l-32,0 c-26.464,0-48,22.848-48,49.312L 320,128 L 272,128 c-26.464,0-48,22.848-48,49.312l0,32 c0,5.12, 0.992,9.952, 2.496,14.56
					c-0.832,0-1.696,0.128-2.496,0.128c-123.744,0-224-96.512-224-215.552c0-22.304, 18.816-40.448, 41.984-40.448l 364,0 
					c 23.2,0, 41.984,18.048, 41.984,40.448c0,17.12-2.304,33.056-6.208,49.056C 433.568,42.752, 417.984,32, 400,32zM 496,224l-80,0 l0,81.312 c0,8.8-7.2,14.688-16,14.688l-32,0 c-8.8,0-16-5.888-16-14.688L 352,224 L 272,224 
					c-8.8,0-16-5.888-16-14.688l0-32 c0-8.8, 7.2-17.312, 16-17.312l 80,0 l0-78.688 c0-8.8, 7.2-17.312, 16-17.312l 32,0 
					c 8.8,0, 16,8.512, 16,17.312L 416,160 l 80,0 c 8.8,0, 16,8.512, 16,17.312l0,32 C 512,218.112, 504.8,224, 496,224z"  />
<glyph unicode="&#xe047;" d="M 366.88,42.688l-22.624-22.624l-22.624,22.624l-103.744,103.744l-22.624,22.624l 22.624,22.624l 30.944,30.944
					c-8.128,0.8-16.448,1.376-24.704,1.376c-123.648,0-224-96.512-224-215.552c0-22.304, 18.816-40.448, 41.984-40.448l 364,0 
					c 23.296,0, 41.984,18.048, 41.984,40.448c0,33.376-8.128,64.928-22.112,93.152L 366.88,42.688zM 112,367.712A112,112 180 1 1 336,367.712A112,112 180 1 1 112,367.712zM 240.512,171.808L 344.256,68.064L 512,235.808L 466.752,281.056L 344.256,158.56L 285.76,217.056 				z"  />
<glyph unicode="&#xe048;" d="M 256,480c-141.376,0-256-114.624-256-256s 114.624-256, 256-256s 256,114.624, 256,256S 397.376,480, 256,480z M 363.328,161.952
				c 6.24-6.144, 6.24-16.384,0-22.624l-22.624-22.624c-6.176-6.144-16.416-6.144-22.624,0L 256,178.752l-62.016-62.048
				c-6.24-6.144-16.416-6.144-22.624,0l-22.624,22.688c-6.24,6.208-6.24,16.448,0,22.624L 210.752,224l-62.016,62.048
				c-6.24,6.144-6.24,16.384,0,22.624l 22.624,22.624c 6.208,6.144, 16.384,6.144, 22.624,0L 256,269.248l 62.048,62.048
				c 6.144,6.144, 16.384,6.144, 22.624,0l 22.624-22.624c 6.144-6.24, 6.144-16.48,0-22.624L 301.248,224L 363.328,161.952z"  />
<glyph unicode="&#xe049;" d="M 224,416c-123.712,0-224-100.288-224-224s 100.288-224, 224-224s 224,100.288, 224,224l-224,0 L 224,416 zM 288,480l0-224 l 224,0 C 512,379.712, 411.712,480, 288,480z"  />
<glyph unicode="&#xe04a;" d="M 96,0c0-17.696-14.304-32-32-32l-32,0 c-17.696,0-32,14.304-32,32l0,224 c0,17.696, 14.304,32, 32,32l 32,0 c 17.696,0, 32-14.304, 32-32L 96,0 zM 224,0c0-17.696-14.304-32-32-32l-32,0 c-17.696,0-32,14.304-32,32l0,320 c0,17.696, 14.304,32, 32,32l 32,0 c 17.696,0, 32-14.304, 32-32L 224,0 zM 352,0c0-17.696-14.304-32-32-32l-32,0 c-17.696,0-32,14.304-32,32l0,224 c0,17.696, 14.304,32, 32,32l 32,0 c 17.696,0, 32-14.304, 32-32L 352,0 zM 480,0c0-17.696-14.304-32-32-32l-32,0 c-17.696,0-32,14.304-32,32l0,448 c0,17.696, 14.304,32, 32,32l 32,0 c 17.696,0, 32-14.304, 32-32L 480,0 z"  />
<glyph unicode="&#xe04b;" d="M 32,352c-17.696,0-32,14.304-32,32l0,32 c0,17.696, 14.304,32, 32,32l 224,0 c 17.696,0, 32-14.304, 32-32l0-32 c0-17.696-14.304-32-32-32L 32,352 zM 32,224c-17.696,0-32,14.304-32,32l0,32 c0,17.696, 14.304,32, 32,32l 320,0 c 17.696,0, 32-14.304, 32-32l0-32 c0-17.696-14.304-32-32-32L 32,224 zM 32,96c-17.696,0-32,14.304-32,32l0,32 c0,17.696, 14.304,32, 32,32l 224,0 c 17.696,0, 32-14.304, 32-32l0-32 c0-17.696-14.304-32-32-32L 32,96 zM 32-32c-17.696,0-32,14.304-32,32l0,32 c0,17.696, 14.304,32, 32,32l 448,0 c 17.696,0, 32-14.304, 32-32l0-32 c0-17.696-14.304-32-32-32L 32-32 z"  />
<glyph unicode="&#xe04c;" d="M 256.128,480c-141.376,0-256-114.624-256-256s 114.624-256, 256-256s 256,114.624, 256,256S 397.504,480, 256.128,480z M 224.128,256l 64,0 
				c 52.928,0, 96-43.072, 96-96s-43.072-96-96-96l0-32 c0-17.696-14.304-32-32-32s-32,14.304-32,32l0,32 l-64,0 c-17.696,0-32,14.304-32,32s 14.304,32, 32,32l 128,0 
				c 17.664,0, 32,14.336, 32,32s-14.336,32-32,32l-64,0 c-52.928,0-96,43.072-96,96s 43.072,96, 96,96l0,32 c0,17.696, 14.304,32, 32,32s 32-14.304, 32-32l0-32 l 64,0 
				c 17.696,0, 32-14.304, 32-32s-14.304-32-32-32l-128,0 c-17.664,0-32-14.336-32-32S 206.464,256, 224.128,256z"  />
<glyph unicode="&#xe04d;" d="M 464,448l-48,0 l0-96 c0-17.696-14.304-32-32-32s-32,14.304-32,32l0,96 l-224,0 l0-96 c0-17.696-14.304-32-32-32s-32,14.304-32,32l0,96 L 16,448 
				c-8.8,0-16-7.2-16-16l0-448 c0-8.8, 7.2-16, 16-16l 448,0 c 8.8,0, 16,7.2, 16,16L 480,432 C 480,440.8, 472.8,448, 464,448z
				 M 160,32l-96,0 l0,96 l 96,0 L 160,32 z M 160,160l-96,0 l0,96 l 96,0 L 160,160 z M 288,32l-96,0 l0,96 l 96,0 L 288,32 z M 288,160l-96,0 l0,96 l 96,0 L 288,160 z M 416,32l-96,0 
				l0,96 l 96,0 L 416,32 z M 416,160l-96,0 l0,96 l 96,0 L 416,160 z"  />
<glyph unicode="&#xe04e;" d="M 272.256,257.12l 14.88,0.64c 17.984,0, 33.984,12.96, 33.984,30.752c0,17.76-12.832,31.488-30.752,31.488l-66.304,0 l0-181.696 
					c 0.224-6.4, 3.968-9.824, 9.952-9.984l 77.44,0.128c 17.952,1.44, 32,13.376, 32,31.616c0,19.328-15.52,31.904-35.072,31.904l-29.248,0 
					c-5.888,0-23.072,9.472-23.072,15.776l0,39.552 C 256.064,253.152, 265.952,256.864, 272.256,257.12zM 160.064,384l0,77.216 c-40.864-16.608-76.512-43.328-103.616-77.216L 160.064,384 zM 256.064,480c-10.88,0-21.504-0.864-32-2.176l0-93.824 l 58.304,0 c 60.672,0, 103.232-34.048, 103.232-93.952
					c0-22.496-11.872-45.312-27.648-59.328c 25.184-16.064, 41.984-44.256, 41.984-76.352c0-49.024-38.88-88.832-87.616-90.432l-142.24,0 
					c-5.568,0.576-9.984,3.936-9.984,10.4l0,231.392 l 43.104,14.080l-183.808,0 c-12.384-32-19.296-62.176-19.296-96.672c0-141.376, 114.624-255.328, 256-255.328
					s 256.032,114.496, 256.032,255.872S 397.44,480, 256.064,480z"  />
<glyph unicode="&#xe04f;" d="M 160,92.864L 160-32L 256,32L 352-28.864L 352,96L 256,64 				zM 448,288L 379.584,321.12L 422.272,384.032L 346.528,378.496L 352,454.272L 289.088,411.648L 255.968,480L 222.88,411.648L 160,454.272L 165.44,378.496L 89.728,384.032L 132.352,321.12L 64,288L 132.352,254.912L 89.728,192.032L 165.44,197.504L 160,121.76L 222.88,164.416L 255.968,96L 289.088,164.416L 352,121.76L 346.528,197.504L 422.272,192.032L 379.584,254.912 				z"  />
<glyph unicode="&#xe050;" d="M 288,384.8l0-192 l 64,0 l-94.944-128.8l-0.128,0 l-96.928,128.8l 64,0 l0,192 L 288,384.8 z"  />
<glyph unicode="&#xe051;" d="M 224,64l0,192 l-64,0 l 94.944,128.8l 0.128,0 L 352,256l-64,0 l0-192 L 224,64 z"  />
<glyph unicode="&#xe052;" d="M 320.256,418.656L 275.872,374.272L 391.68,258.464L 32,258.464L 32,194.432L 391.264,194.432L 275.84,79.040L 320.192,34.656L 480,194.432L 480.032,194.432L 480.032,194.464L 512,226.432L 511.808,226.656L 512,226.848 			z"  />
<glyph unicode="&#xe053;" d="M 0,480l 96-96l 96,96L 0,480 z"  />
<glyph unicode="&#xe054;" d="M 223.744,32.992L 268.128,77.376L 152.32,193.184L 512,193.184L 512,257.216L 152.736,257.216L 268.16,372.64L 223.808,416.992L 64,257.216L 63.968,257.216L 63.968,257.184L 32,225.216L 32.192,224.992L 32,224.8 			z"  />
<glyph unicode="&#xe055;" d="M 192,64L 352,224L 192,384 				z"  />
<glyph unicode="&#xe056;" d="M 96,288L 256,128L 416,288 				z"  />
<glyph unicode="&#xe057;" d="M 448,191.712L 403.616,236.096L 287.808,120.288L 287.808,480L 223.808,480L 223.808,120.704L 108.384,236.16L 64,191.776L 255.808,0L 256,0.192L 256.192,0 			z"  />
<glyph unicode="&#xe058;" d="M 96,288L 256,128L 416,288L 384,320L 256,192L 128,320 			z"  />
<glyph unicode="&#xe059;" d="M 64,288.256L 108.384,243.872L 224.192,359.68L 224.192,0L 288.224,0L 288.224,359.264L 403.616,243.84L 448,288.192L 288.224,448L 288.224,448.032L 288.192,448.032L 256.224,480L 256,479.808L 255.808,480 			z"  />
<glyph unicode="&#xe05a;" d="M 384,224l-32,0 l-96-128l-96,128l-32,0 c-35.328,0-64-28.672-64-64l0-192 l 384,0 l0,192 C 448,195.328, 419.328,224, 384,224zM 143.968,368A112,112 180 1 1 367.968,368A112,112 180 1 1 143.968,368z"  />
<glyph unicode="&#xe05b;" d="M 496,256l-208,0 L 288,464 c0,8.8-7.2,16-16,16l-32,0 c-8.8,0-16-7.2-16-16l0-208 L 16,256 c-8.8,0-16-7.2-16-16l0-32 
				c0-8.8, 7.2-16, 16-16l 208,0 L 224-16 c0-8.8, 7.2-16, 16-16l 32,0 c 8.8,0, 16,7.2, 16,16l0,208 l 208,0 c 8.8,0, 16,7.2, 16,16
				l0,32 C 512,248.8, 504.8,256, 496,256z"  />
<glyph unicode="&#xe05c;" d="M 256,480c-141.376,0-256-114.624-256-256s 114.624-256, 256-256s 256,114.624, 256,256S 397.376,480, 256,480z M 367.936,313.248L 285.248,313.248 l0-227.424 L 227.136,85.824 
				l0,227.424 L 144.064,313.248 l0,48.928 l 223.872,0 L 367.936,313.248 z"  />
<glyph unicode="&#xe05d;" d="M 256,480c-141.376,0-256-114.624-256-256s 114.624-256, 256-256s 256,114.624, 256,256S 397.376,480, 256,480z M 341.28,103.264
				c-19.52-16.672-47.104-24.992-82.72-24.992c-36.416,0-64.992,8.192-85.856,24.64c-20.864,16.448-31.296,39.072-31.296,67.808l 55.136,0 
				c 1.792-12.64, 5.312-22.048, 10.528-28.32c 9.568-11.36, 25.984-17.056, 49.184-17.056c 13.92,0, 25.216,1.504, 33.92,4.512
				c 16.48,5.76, 24.672,16.448, 24.672,32.064c0,9.12-4.032,16.192-12.096,21.184c-8.064,4.864-20.864,9.184-38.368,12.928l-29.92,6.56
				c-29.44,6.496-49.632,13.568-60.64,21.184c-18.624,12.736-27.936,32.672-27.936,59.808c0,24.736, 9.088,45.312, 27.328,61.696
				c 18.208,16.384, 44.96,24.576, 80.288,24.576c 29.472,0, 54.624-7.744, 75.424-23.2s 31.744-37.824, 32.736-67.2L 306.24,279.456 
				c-1.024,16.64-8.48,28.448-22.304,35.424c-9.216,4.64-20.672,6.944-34.4,6.944c-15.264,0-27.392-3.008-36.512-8.992
				s-13.664-14.368-13.664-25.12c0-9.888, 4.512-17.248, 13.472-22.112c 5.76-3.264, 17.984-7.072, 36.704-11.424l 48.512-11.424
				c 21.248-4.992, 37.184-11.68, 47.776-20.064c 16.48-12.992, 24.704-31.808, 24.704-56.448C 370.56,140.928, 360.8,119.936, 341.28,103.264z"  />
<glyph unicode="&#xe05e;" d="M 256,480c-141.376,0-256-114.624-256-256s 114.624-256, 256-256s 256,114.624, 256,256S 397.376,480, 256,480z M 325.888,173.184
				c0-23.488-3.936-42.112-11.872-55.872c-13.504-23.264-37.76-34.88-72.8-34.88s-58.624,9.408-70.56,28.224
				c-12,18.816-17.984,44.48-17.984,76.96l0,6.368 l 54.56,0 l0-6.368 c 0.512-21.376, 2.688-36.416, 6.624-45.088s 12.384-13.024, 25.248-13.024
				c 12.8,0, 21.248,4.736, 25.376,14.24c 2.496,5.632, 3.68,15.136, 3.68,28.512l0,193.312 l 57.76,0 L 325.92,173.184 z"  />
<glyph unicode="&#xe05f;" d="M 256,480c-141.376,0-256-114.624-256-256s 114.624-256, 256-256s 256,114.624, 256,256S 397.376,480, 256,480z M 284.672,85.824l-57.376,0 l0,276.384 
				l 57.376,0 L 284.672,85.824 z"  />
<glyph unicode="&#xe060;" d="M 256,480c-141.376,0-256-114.624-256-256s 114.624-256, 256-256s 256,114.624, 256,256S 397.376,480, 256,480z M 212.288,152.384
				c 12.544-15.424, 28.448-23.2, 47.744-23.2c 19.808,0, 34.944,6.624, 45.312,19.872c 5.76,7.136, 10.528,17.824, 14.304,32.064l 57.376,0 
				c-4.928-30.112-17.6-54.624-37.952-73.504s-46.4-28.32-78.176-28.32c-39.328,0-70.24,12.736-92.736,38.24
				c-22.496,25.632-33.76,60.736-33.76,105.376c0,48.256, 12.8,85.44, 38.4,111.552c 22.24,22.752, 50.56,34.112, 84.928,34.112
				c 46.016,0, 79.648-15.264, 100.928-45.76c 11.712-17.12, 18.016-34.304, 18.912-51.552l-57.76,0 c-3.68,13.248-8.384,23.264-14.144,30.016
				c-10.272,12-25.536,17.984-45.728,17.984c-20.608,0-36.8-8.448-48.672-25.376s-17.824-40.928-17.824-71.936S 199.744,167.808, 212.288,152.384
				z"  />
<glyph unicode="&#x20;" horiz-adv-x="256" />
</font>
</defs>
</svg>
